<svg
        xmlns="http://www.w3.org/2000/svg"
        xmlns:xlink="http://www.w3.org/1999/xlink"
        viewBox="0 0 18 18"
        width="18px" height="18px">
    <path fill-rule="evenodd"  fill="#0cbcee"
          d="M16.500,18.000 L1.500,18.000 C0.671,18.000 -0.000,17.328 -0.000,16.499 L-0.000,3.186 C-0.000,2.358 0.671,1.687 1.500,1.687 L3.937,1.687 L3.937,0.562 C3.937,0.251 4.189,-0.001 4.500,-0.001 C4.810,-0.001 5.062,0.251 5.062,0.562 L5.062,1.687 L8.437,1.687 L8.437,0.562 C8.437,0.251 8.690,-0.001 9.000,-0.001 C9.310,-0.001 9.562,0.251 9.562,0.562 L9.562,1.687 L12.937,1.687 L12.937,0.562 C12.937,0.251 13.189,-0.001 13.500,-0.001 C13.811,-0.001 14.062,0.251 14.062,0.562 L14.062,1.687 L16.500,1.687 C17.329,1.687 18.000,2.358 18.000,3.186 L18.000,16.499 C18.000,17.328 17.329,18.000 16.500,18.000 ZM16.875,3.186 C16.875,2.980 16.707,2.812 16.500,2.812 L14.062,2.812 L14.062,3.937 C14.062,4.248 13.811,4.499 13.500,4.499 C13.189,4.499 12.937,4.248 12.937,3.937 L12.937,2.812 L9.562,2.812 L9.562,3.937 C9.562,4.248 9.310,4.499 9.000,4.499 C8.690,4.499 8.437,4.248 8.437,3.937 L8.437,2.812 L5.062,2.812 L5.062,3.937 C5.062,4.248 4.810,4.499 4.500,4.499 C4.189,4.499 3.937,4.248 3.937,3.937 L3.937,2.812 L1.500,2.812 C1.293,2.812 1.125,2.980 1.125,3.186 L1.125,16.499 C1.125,16.706 1.293,16.875 1.500,16.875 L16.500,16.875 C16.707,16.875 16.875,16.706 16.875,16.499 L16.875,3.186 ZM11.812,12.374 L14.062,12.374 L14.062,14.062 L11.812,14.062 L11.812,12.374 ZM11.812,9.562 L14.062,9.562 L14.062,11.249 L11.812,11.249 L11.812,9.562 ZM11.812,6.749 L14.062,6.749 L14.062,8.437 L11.812,8.437 L11.812,6.749 ZM7.875,12.374 L10.125,12.374 L10.125,14.062 L7.875,14.062 L7.875,12.374 ZM7.875,9.562 L10.125,9.562 L10.125,11.249 L7.875,11.249 L7.875,9.562 ZM7.875,6.749 L10.125,6.749 L10.125,8.437 L7.875,8.437 L7.875,6.749 ZM3.937,12.374 L6.187,12.374 L6.187,14.062 L3.937,14.062 L3.937,12.374 ZM3.937,9.562 L6.187,9.562 L6.187,11.249 L3.937,11.249 L3.937,9.562 ZM3.937,6.749 L6.187,6.749 L6.187,8.437 L3.937,8.437 L3.937,6.749 Z"/>
</svg>
