<svg
        xmlns="http://www.w3.org/2000/svg"
        viewBox="0 0 14 18"
        xmlns:xlink="http://www.w3.org/1999/xlink"
        width="14px" height="18px">
    <path fill-rule="evenodd"  fill="rgb(12, 188, 238)"
          d="M11.109,10.647 L9.205,9.397 C9.450,8.692 9.395,7.905 9.041,7.237 L10.602,5.825 C11.460,6.367 12.603,6.261 13.349,5.506 C14.217,4.628 14.217,3.203 13.349,2.325 C12.481,1.446 11.073,1.446 10.205,2.325 C9.522,3.017 9.377,4.047 9.770,4.883 L8.208,6.295 C7.461,5.772 6.507,5.680 5.688,6.022 L3.887,3.513 C4.533,2.655 4.469,1.424 3.694,0.640 C2.849,-0.215 1.479,-0.215 0.633,0.640 C-0.212,1.495 -0.212,2.882 0.633,3.737 C1.240,4.351 2.118,4.524 2.877,4.257 L4.678,6.765 C3.789,7.821 3.836,9.408 4.822,10.406 C4.841,10.425 4.861,10.443 4.880,10.462 L3.135,13.561 C2.410,13.388 1.615,13.587 1.050,14.159 C0.182,15.038 0.182,16.462 1.050,17.341 C1.918,18.219 3.325,18.219 4.193,17.341 C5.052,16.471 5.061,15.068 4.220,14.187 L5.965,11.088 C6.841,11.343 7.821,11.132 8.525,10.457 L10.431,11.707 C10.309,12.279 10.467,12.900 10.906,13.344 C11.594,14.040 12.709,14.040 13.397,13.344 C14.085,12.648 14.085,11.520 13.397,10.823 C12.773,10.193 11.799,10.134 11.109,10.647 ZM1.803,15.250 C1.761,15.299 1.721,15.345 1.682,15.384 C1.633,15.433 1.567,15.493 1.484,15.519 C1.381,15.551 1.275,15.523 1.194,15.441 C0.981,15.226 1.062,14.820 1.382,14.496 C1.702,14.172 2.104,14.090 2.316,14.305 C2.397,14.387 2.425,14.494 2.393,14.599 C2.368,14.683 2.308,14.750 2.260,14.799 C2.221,14.839 2.175,14.879 2.128,14.921 C2.072,14.971 2.015,15.022 1.958,15.079 C1.902,15.136 1.852,15.194 1.803,15.250 ZM10.538,2.662 C10.858,2.338 11.259,2.256 11.471,2.470 C11.553,2.552 11.581,2.660 11.549,2.765 C11.523,2.848 11.464,2.916 11.415,2.965 C11.376,3.004 11.331,3.044 11.283,3.087 C11.228,3.136 11.171,3.187 11.114,3.245 C11.058,3.302 11.007,3.360 10.958,3.416 C10.916,3.464 10.876,3.510 10.837,3.550 C10.789,3.599 10.722,3.659 10.640,3.684 C10.536,3.717 10.430,3.688 10.349,3.606 C10.137,3.391 10.218,2.985 10.538,2.662 ZM1.367,1.702 C1.326,1.749 1.287,1.794 1.249,1.833 C1.202,1.880 1.137,1.939 1.056,1.964 C0.956,1.995 0.853,1.968 0.774,1.888 C0.567,1.679 0.646,1.283 0.957,0.968 C1.269,0.653 1.659,0.573 1.866,0.782 C1.945,0.862 1.973,0.966 1.941,1.068 C1.917,1.150 1.859,1.215 1.812,1.263 C1.774,1.302 1.730,1.341 1.683,1.382 C1.629,1.430 1.573,1.480 1.518,1.536 C1.463,1.591 1.414,1.648 1.367,1.702 ZM5.220,7.008 C5.602,6.622 6.081,6.523 6.335,6.780 C6.432,6.878 6.465,7.006 6.427,7.131 C6.397,7.231 6.326,7.312 6.268,7.370 C6.221,7.417 6.167,7.466 6.110,7.517 C6.044,7.576 5.975,7.636 5.908,7.705 C5.840,7.773 5.780,7.842 5.722,7.909 C5.672,7.967 5.624,8.022 5.578,8.069 C5.519,8.128 5.440,8.199 5.341,8.230 C5.218,8.269 5.091,8.235 4.994,8.137 C4.741,7.880 4.838,7.395 5.220,7.008 ZM11.407,11.794 C11.369,11.833 11.316,11.880 11.251,11.901 C11.169,11.926 11.085,11.904 11.020,11.839 C10.852,11.669 10.916,11.347 11.170,11.090 C11.423,10.834 11.741,10.769 11.910,10.939 C11.974,11.004 11.996,11.089 11.971,11.172 C11.951,11.238 11.904,11.292 11.865,11.331 C11.834,11.362 11.798,11.394 11.760,11.428 C11.717,11.467 11.671,11.507 11.626,11.552 C11.582,11.597 11.542,11.644 11.503,11.688 C11.470,11.726 11.438,11.763 11.407,11.794 Z"/>
</svg>
