<svg
        xmlns="http://www.w3.org/2000/svg"
        xmlns:xlink="http://www.w3.org/1999/xlink"
        viewBox="0 0 13 9"
        width="13px" height="9px">
    <path fill-rule="evenodd"  fill="rgb(12, 188, 238)"
          d="M9.755,4.980 C10.447,4.554 11.286,4.047 12.275,3.458 C12.550,3.292 12.792,3.106 13.000,2.902 L13.000,7.839 L9.755,4.980 ZM11.760,2.774 C10.586,3.492 9.700,4.033 9.099,4.402 C8.768,4.604 8.522,4.754 8.365,4.851 C8.341,4.866 8.305,4.888 8.256,4.919 C8.204,4.952 8.138,4.994 8.056,5.046 C7.899,5.146 7.769,5.227 7.664,5.289 C7.560,5.351 7.435,5.420 7.287,5.497 C7.140,5.573 7.001,5.631 6.870,5.669 C6.740,5.707 6.619,5.727 6.507,5.727 L6.500,5.727 L6.493,5.727 C6.382,5.727 6.261,5.707 6.130,5.669 C6.000,5.631 5.861,5.573 5.713,5.497 C5.565,5.420 5.440,5.351 5.336,5.289 C5.232,5.227 5.101,5.146 4.944,5.046 C4.862,4.994 4.796,4.952 4.744,4.919 C4.695,4.888 4.659,4.865 4.636,4.851 C4.433,4.725 4.188,4.574 3.903,4.400 C3.570,4.195 3.181,3.957 2.735,3.685 C1.908,3.180 1.412,2.876 1.248,2.774 C0.948,2.594 0.665,2.349 0.399,2.036 C0.133,1.722 0.000,1.432 0.000,1.163 C0.000,0.831 0.100,0.554 0.301,0.332 C0.502,0.111 0.788,-0.000 1.161,-0.000 L11.839,-0.000 C12.154,-0.000 12.426,0.100 12.655,0.300 C12.885,0.501 13.000,0.741 13.000,1.023 C13.000,1.359 12.881,1.681 12.645,1.987 C12.408,2.294 12.113,2.556 11.760,2.774 ZM3.246,4.979 L-0.000,7.839 L-0.000,2.902 C0.213,3.111 0.457,3.296 0.733,3.458 C1.760,4.073 2.597,4.579 3.246,4.979 ZM4.338,5.663 C4.614,5.842 4.837,5.981 5.009,6.081 C5.181,6.182 5.409,6.283 5.695,6.388 C5.980,6.493 6.246,6.544 6.493,6.544 L6.500,6.544 L6.507,6.544 C6.754,6.544 7.020,6.493 7.305,6.388 C7.590,6.283 7.819,6.182 7.991,6.081 C8.162,5.981 8.386,5.842 8.662,5.663 C8.743,5.611 8.828,5.557 8.917,5.501 L12.600,8.746 C12.385,8.914 12.131,8.999 11.839,8.999 L1.161,8.999 C0.869,8.999 0.615,8.914 0.400,8.746 L4.084,5.500 C4.176,5.559 4.261,5.613 4.338,5.663 Z"/>
</svg>
