<svg
        xmlns="http://www.w3.org/2000/svg"
        xmlns:xlink="http://www.w3.org/1999/xlink"
        width="31px" height="23px">
    <path fill-rule="evenodd"  fill="rgb(14, 189, 238)"
          d="M30.354,14.694 C30.711,14.694 31.000,14.980 31.000,15.333 L31.000,20.444 C31.000,21.854 29.841,23.000 28.417,23.000 L2.583,23.000 C1.159,23.000 -0.000,21.854 -0.000,20.444 L-0.000,15.333 C-0.000,14.980 0.289,14.694 0.646,14.694 C2.426,14.694 3.875,13.261 3.875,11.500 C3.875,9.739 2.426,8.305 0.646,8.305 C0.289,8.305 -0.000,8.020 -0.000,7.667 L-0.000,2.555 C-0.000,1.146 1.159,-0.000 2.583,-0.000 L28.417,-0.000 C29.841,-0.000 31.000,1.146 31.000,2.555 L31.000,7.667 C31.000,8.020 30.711,8.305 30.354,8.305 C28.574,8.305 27.125,9.739 27.125,11.500 C27.125,13.261 28.574,14.694 30.354,14.694 ZM25.833,11.500 C25.833,9.251 27.520,7.384 29.708,7.073 L29.708,2.555 C29.708,1.851 29.129,1.278 28.417,1.278 L2.583,1.278 C1.871,1.278 1.292,1.851 1.292,2.555 L1.292,7.073 C3.480,7.384 5.167,9.251 5.167,11.500 C5.167,13.749 3.480,15.616 1.292,15.926 L1.292,20.444 C1.292,21.149 1.871,21.722 2.583,21.722 L28.417,21.722 C29.129,21.722 29.708,21.149 29.708,20.444 L29.708,15.926 C27.520,15.616 25.833,13.749 25.833,11.500 ZM20.667,17.889 C19.242,17.889 18.083,16.456 18.083,14.694 C18.083,12.933 19.242,11.500 20.667,11.500 C22.091,11.500 23.250,12.933 23.250,14.694 C23.250,16.456 22.091,17.889 20.667,17.889 ZM20.667,12.778 C19.967,12.778 19.375,13.656 19.375,14.694 C19.375,15.733 19.967,16.611 20.667,16.611 C21.367,16.611 21.958,15.733 21.958,14.694 C21.958,13.656 21.367,12.778 20.667,12.778 ZM14.100,17.604 C13.975,17.789 13.771,17.889 13.562,17.889 C13.439,17.889 13.315,17.854 13.204,17.781 C12.907,17.585 12.827,17.189 13.025,16.896 L20.775,5.395 C20.973,5.102 21.372,5.022 21.671,5.218 C21.968,5.414 22.048,5.810 21.850,6.104 L14.100,17.604 ZM14.208,11.500 C12.784,11.500 11.625,10.067 11.625,8.305 C11.625,6.544 12.783,5.111 14.208,5.111 C15.633,5.111 16.792,6.544 16.792,8.305 C16.792,10.067 15.633,11.500 14.208,11.500 ZM14.208,6.389 C13.508,6.389 12.917,7.267 12.917,8.305 C12.917,9.344 13.508,10.222 14.208,10.222 C14.908,10.222 15.500,9.344 15.500,8.305 C15.500,7.267 14.908,6.389 14.208,6.389 ZM8.396,20.444 C8.039,20.444 7.750,20.159 7.750,19.805 L7.750,18.528 C7.750,18.175 8.039,17.889 8.396,17.889 C8.753,17.889 9.042,18.175 9.042,18.528 L9.042,19.805 C9.042,20.159 8.753,20.444 8.396,20.444 ZM8.396,15.333 C8.039,15.333 7.750,15.047 7.750,14.694 L7.750,13.417 C7.750,13.063 8.039,12.778 8.396,12.778 C8.753,12.778 9.042,13.063 9.042,13.417 L9.042,14.694 C9.042,15.047 8.753,15.333 8.396,15.333 ZM8.396,10.222 C8.039,10.222 7.750,9.936 7.750,9.583 L7.750,8.305 C7.750,7.952 8.039,7.667 8.396,7.667 C8.753,7.667 9.042,7.952 9.042,8.305 L9.042,9.583 C9.042,9.936 8.753,10.222 8.396,10.222 ZM8.396,5.111 C8.039,5.111 7.750,4.825 7.750,4.472 L7.750,3.035 C7.750,2.681 8.039,2.396 8.396,2.396 C8.753,2.396 9.042,2.681 9.042,3.035 L9.042,4.472 C9.042,4.825 8.753,5.111 8.396,5.111 Z"/>
</svg>
