<svg
        xmlns="http://www.w3.org/2000/svg"
        xmlns:xlink="http://www.w3.org/1999/xlink"
        width="30px" height="24px">
    <path fill-rule="evenodd"  fill="rgb(14, 189, 238)"
          d="M29.414,21.639 L24.717,21.639 L24.717,23.410 C24.717,23.736 24.454,24.000 24.131,24.000 L17.461,24.000 C17.137,24.000 16.875,23.736 16.875,23.410 C16.875,23.084 17.137,22.819 17.461,22.819 L20.331,22.819 L20.331,20.221 C20.331,19.895 20.593,19.631 20.917,19.631 C21.240,19.631 21.502,19.895 21.502,20.221 L21.502,22.819 L23.545,22.819 L23.545,21.279 C23.515,21.208 23.498,21.130 23.498,21.048 C23.498,20.966 23.515,20.888 23.545,20.817 L23.545,20.159 C23.545,18.155 22.194,16.431 20.260,15.965 L17.386,15.274 L15.534,19.518 C15.440,19.732 15.230,19.870 14.998,19.870 L14.998,19.870 C14.765,19.870 14.555,19.732 14.461,19.518 L12.607,15.268 L9.725,15.963 C7.793,16.430 6.443,18.154 6.443,20.156 L6.443,22.819 L8.497,22.819 L8.497,20.221 C8.497,19.895 8.760,19.631 9.083,19.631 C9.407,19.631 9.669,19.895 9.669,20.221 L9.669,22.819 L12.285,22.819 C12.609,22.819 12.871,23.084 12.871,23.410 C12.871,23.736 12.609,24.000 12.285,24.000 L5.857,24.000 C5.534,24.000 5.271,23.736 5.271,23.410 L5.271,21.639 L0.586,21.639 C0.262,21.639 -0.000,21.374 -0.000,21.048 L-0.000,17.080 C-0.000,15.170 1.288,13.527 3.131,13.083 L5.086,12.613 L5.086,11.832 C4.001,11.141 3.278,9.923 3.278,8.537 L3.278,6.337 C3.278,4.188 5.013,2.441 7.146,2.441 C8.301,2.441 9.339,2.954 10.048,3.766 C10.666,1.594 12.654,-0.000 15.006,-0.000 C17.354,-0.000 19.340,1.589 19.961,3.756 C20.670,2.950 21.704,2.441 22.854,2.441 C24.987,2.441 26.722,4.188 26.722,6.337 L26.722,8.537 C26.722,9.923 25.999,11.141 24.914,11.832 L24.914,12.613 L26.869,13.083 C28.712,13.527 30.000,15.170 30.000,17.080 L30.000,21.048 C30.000,21.374 29.738,21.639 29.414,21.639 ZM22.849,15.269 L23.744,13.111 C23.743,13.100 23.742,13.090 23.742,13.079 L23.742,12.328 C23.457,12.396 23.160,12.433 22.854,12.433 C22.550,12.433 22.254,12.396 21.970,12.329 L21.970,13.058 C21.970,13.063 21.970,13.069 21.970,13.074 C21.970,13.096 21.969,13.118 21.966,13.139 L22.849,15.269 ZM20.532,14.817 C20.883,14.902 21.218,15.020 21.536,15.166 L20.963,13.783 L19.110,14.230 C18.962,14.266 18.818,14.313 18.679,14.371 L20.532,14.817 ZM13.532,14.455 L14.998,17.813 L16.461,14.461 L16.461,13.243 C15.999,13.380 15.511,13.454 15.006,13.454 C14.494,13.454 14.000,13.378 13.532,13.237 L13.532,14.455 ZM15.006,12.273 C17.157,12.273 18.914,10.547 18.987,8.397 L18.987,6.639 L16.630,5.244 C15.583,6.298 14.166,6.893 12.670,6.893 L11.021,6.893 L11.021,8.259 C11.021,10.472 12.809,12.273 15.006,12.273 ZM9.452,14.815 L11.310,14.367 C11.174,14.311 11.034,14.265 10.890,14.230 L9.032,13.781 L8.462,15.158 C8.775,15.015 9.106,14.899 9.452,14.815 ZM8.032,13.130 C8.030,13.112 8.029,13.093 8.029,13.075 C8.029,13.064 8.029,13.053 8.030,13.041 L8.030,12.329 C7.746,12.396 7.450,12.433 7.146,12.433 C6.840,12.433 6.543,12.396 6.258,12.328 L6.258,13.079 C6.258,13.093 6.257,13.107 6.256,13.121 L7.146,15.269 L8.032,13.130 ZM3.403,14.232 C2.090,14.548 1.172,15.719 1.172,17.080 L1.172,20.458 L2.344,20.458 L2.344,17.835 C2.344,17.509 2.606,17.245 2.930,17.245 C3.253,17.245 3.516,17.509 3.516,17.835 L3.516,20.458 L5.271,20.458 L5.271,20.156 C5.271,18.861 5.715,17.659 6.473,16.710 L5.261,13.785 L3.403,14.232 ZM7.146,3.621 C5.659,3.621 4.450,4.839 4.450,6.337 L4.450,6.483 L4.450,6.542 L6.126,6.542 C7.392,6.542 8.636,6.207 9.732,5.573 C9.404,4.446 8.369,3.621 7.146,3.621 ZM9.841,6.851 C8.688,7.423 7.417,7.723 6.126,7.723 L4.450,7.723 L4.450,8.537 C4.450,10.034 5.659,11.252 7.146,11.252 C8.632,11.252 9.841,10.034 9.841,8.537 L9.841,6.851 ZM9.202,11.834 L9.202,12.608 L11.163,13.082 C11.589,13.185 11.993,13.355 12.360,13.585 L12.360,12.716 C11.532,12.215 10.854,11.487 10.413,10.618 C10.104,11.108 9.689,11.525 9.202,11.834 ZM18.991,5.195 C18.991,2.981 17.203,1.181 15.006,1.181 C12.809,1.181 11.021,2.981 11.021,5.195 L11.021,5.713 L12.670,5.713 C13.986,5.713 15.225,5.130 16.070,4.114 C16.254,3.893 16.569,3.838 16.816,3.984 L18.991,5.272 L18.991,5.195 ZM19.594,10.628 C19.149,11.500 18.466,12.228 17.633,12.727 L17.633,12.727 L17.633,13.589 C18.002,13.357 18.408,13.185 18.837,13.082 L20.798,12.608 L20.798,11.834 C20.314,11.527 19.902,11.114 19.594,10.628 ZM25.550,6.483 L25.550,6.337 C25.550,4.840 24.341,3.621 22.854,3.621 C21.631,3.621 20.596,4.446 20.267,5.573 C21.364,6.207 22.608,6.542 23.874,6.542 L25.550,6.542 L25.550,6.483 ZM25.550,8.537 L25.550,7.723 L23.874,7.723 C22.584,7.723 21.314,7.424 20.162,6.853 C20.162,6.853 20.161,8.380 20.159,8.440 L20.159,8.537 C20.159,10.034 21.368,11.252 22.854,11.252 C24.341,11.252 25.550,10.034 25.550,8.537 ZM28.828,17.080 C28.828,15.719 27.910,14.548 26.596,14.232 L24.735,13.783 L23.519,16.717 C24.275,17.665 24.717,18.866 24.717,20.159 L24.717,20.458 L26.484,20.458 L26.484,17.835 C26.484,17.509 26.747,17.245 27.070,17.245 C27.394,17.245 27.656,17.509 27.656,17.835 L27.656,20.458 L28.828,20.458 L28.828,17.080 ZM13.035,7.427 C13.189,7.427 13.340,7.490 13.449,7.600 C13.558,7.709 13.621,7.862 13.621,8.017 C13.621,8.172 13.558,8.325 13.449,8.434 C13.340,8.544 13.189,8.607 13.035,8.607 C12.881,8.607 12.730,8.544 12.620,8.434 C12.511,8.325 12.449,8.172 12.449,8.017 C12.449,7.862 12.511,7.709 12.620,7.600 C12.729,7.490 12.881,7.427 13.035,7.427 ZM14.671,9.587 C14.844,9.761 15.126,9.761 15.299,9.587 C15.528,9.356 15.899,9.356 16.128,9.587 C16.357,9.817 16.357,10.191 16.128,10.422 C15.813,10.739 15.399,10.898 14.985,10.898 C14.571,10.898 14.157,10.739 13.842,10.422 C13.613,10.191 13.613,9.817 13.842,9.587 C14.071,9.356 14.442,9.356 14.671,9.587 ZM16.953,7.427 C17.107,7.427 17.258,7.490 17.367,7.600 C17.477,7.709 17.539,7.862 17.539,8.017 C17.539,8.172 17.477,8.325 17.367,8.434 C17.258,8.544 17.107,8.607 16.953,8.607 C16.799,8.607 16.648,8.544 16.539,8.434 C16.430,8.325 16.367,8.172 16.367,8.017 C16.367,7.862 16.430,7.709 16.539,7.600 C16.648,7.490 16.799,7.427 16.953,7.427 ZM14.985,22.819 C15.139,22.819 15.290,22.882 15.399,22.992 C15.508,23.102 15.571,23.254 15.571,23.410 C15.571,23.565 15.508,23.717 15.399,23.827 C15.290,23.937 15.139,24.000 14.985,24.000 C14.831,24.000 14.679,23.937 14.570,23.827 C14.461,23.717 14.399,23.565 14.399,23.410 C14.399,23.254 14.461,23.102 14.570,22.992 C14.679,22.882 14.831,22.819 14.985,22.819 Z"/>
</svg>
