<svg
        xmlns="http://www.w3.org/2000/svg"
        xmlns:xlink="http://www.w3.org/1999/xlink"
        width="37px" height="24px">
    <path fill-rule="evenodd"  fill="rgb(14, 189, 238)"
          d="M36.458,8.224 L34.675,8.224 C34.376,8.224 34.133,8.474 34.133,8.781 C34.133,9.089 34.376,9.338 34.675,9.338 L35.916,9.338 L35.916,19.612 L27.516,19.612 L27.516,15.993 L31.978,15.993 C32.277,15.993 32.520,15.743 32.520,15.436 C32.520,15.128 32.277,14.878 31.978,14.878 L27.516,14.878 L27.516,9.338 L32.363,9.338 C32.662,9.338 32.905,9.089 32.905,8.781 C32.905,8.474 32.662,8.224 32.363,8.224 L27.510,8.224 C27.447,7.592 26.926,7.097 26.295,7.097 L21.584,7.097 C20.953,7.097 20.432,7.592 20.369,8.224 L19.478,8.224 C19.099,8.224 18.730,8.149 18.381,8.002 L22.777,3.485 C23.153,3.099 23.360,2.586 23.360,2.041 C23.360,1.496 23.153,0.982 22.777,0.596 C22.003,-0.200 20.743,-0.200 19.969,0.596 L14.518,6.195 L14.347,6.115 C13.974,5.940 13.544,5.937 13.168,6.108 L7.157,8.840 C6.781,9.011 6.493,9.339 6.366,9.741 C6.240,10.142 6.285,10.582 6.492,10.947 C6.544,11.039 6.600,11.128 6.660,11.214 L4.999,11.927 C4.798,12.012 4.625,12.156 4.499,12.344 L1.800,16.405 C1.515,16.835 1.592,17.411 1.977,17.747 L2.353,18.073 C2.466,18.171 2.589,18.252 2.720,18.317 L1.777,19.286 C1.768,19.295 1.760,19.305 1.751,19.315 C1.741,19.326 1.730,19.338 1.720,19.350 C1.716,19.356 1.712,19.362 1.707,19.368 C1.695,19.385 1.682,19.402 1.670,19.420 C1.670,19.420 1.670,19.421 1.669,19.422 C1.593,19.541 1.547,19.679 1.536,19.823 C0.991,20.168 0.244,21.006 0.006,23.045 C-0.025,23.306 0.062,23.562 0.243,23.749 C0.401,23.911 0.610,24.000 0.829,24.000 C0.862,24.000 0.895,23.998 0.929,23.994 C2.913,23.749 3.729,22.981 4.064,22.421 C4.255,22.406 4.441,22.324 4.587,22.175 L5.916,20.810 C5.918,20.807 5.920,20.804 5.922,20.802 L7.409,19.274 C7.634,19.445 7.898,19.562 8.182,19.609 L8.249,20.200 C8.304,20.685 8.539,21.119 8.912,21.422 C9.229,21.680 9.612,21.817 10.009,21.817 C10.079,21.817 10.149,21.812 10.219,21.804 L10.731,21.743 L10.771,22.099 C10.826,22.584 11.061,23.018 11.433,23.321 C11.750,23.580 12.134,23.717 12.533,23.717 C12.602,23.717 12.672,23.712 12.742,23.704 L14.077,23.544 C14.962,23.439 15.668,22.776 15.878,21.918 L16.651,21.840 C16.975,21.807 17.295,21.731 17.601,21.615 C17.906,21.498 18.197,21.341 18.465,21.147 C18.844,20.872 19.290,20.727 19.754,20.727 L20.425,20.727 C20.586,21.226 21.044,21.588 21.584,21.588 L26.295,21.588 C26.835,21.588 27.293,21.226 27.454,20.727 L36.458,20.727 C36.757,20.727 37.000,20.477 37.000,20.169 L37.000,8.781 C37.000,8.474 36.757,8.224 36.458,8.224 ZM20.735,1.384 C21.087,1.023 21.659,1.023 22.011,1.384 C22.182,1.560 22.276,1.793 22.276,2.041 C22.276,2.288 22.182,2.521 22.011,2.697 L17.325,7.511 L15.572,6.689 L20.735,1.384 ZM3.052,17.221 L2.747,16.956 L5.393,12.974 C5.398,12.967 5.406,12.960 5.415,12.956 L7.514,12.055 C7.790,12.240 8.093,12.381 8.410,12.471 L6.015,14.932 C5.803,15.149 5.803,15.502 6.015,15.720 C6.120,15.829 6.259,15.883 6.398,15.883 C6.537,15.883 6.675,15.829 6.781,15.720 L9.884,12.532 C9.975,12.514 10.066,12.491 10.157,12.465 L12.360,11.817 C12.521,11.770 12.692,11.817 12.807,11.941 L12.908,12.049 L9.926,15.113 L8.186,15.321 C7.714,15.378 7.292,15.619 6.998,16.002 C6.703,16.385 6.571,16.862 6.626,17.347 L6.701,18.018 C6.715,18.134 6.738,18.246 6.771,18.354 L5.532,19.627 L4.255,18.315 L5.146,17.400 C5.358,17.182 5.358,16.829 5.147,16.611 C4.935,16.394 4.592,16.394 4.380,16.611 L3.632,17.379 C3.428,17.417 3.213,17.361 3.052,17.221 ZM3.999,21.202 L3.600,20.792 L2.722,19.890 L3.488,19.103 L4.765,20.415 L3.999,21.202 ZM1.128,22.839 C1.343,21.508 1.802,20.993 2.073,20.800 L2.311,21.044 L3.114,21.869 C2.926,22.147 2.424,22.619 1.128,22.839 ZM7.778,17.889 L7.702,17.219 C7.681,17.029 7.733,16.843 7.848,16.694 C7.962,16.545 8.127,16.450 8.311,16.428 L10.226,16.199 C10.228,16.199 10.229,16.199 10.230,16.199 L10.902,16.119 C10.942,16.114 10.982,16.111 11.021,16.111 C11.531,16.111 11.972,16.506 12.033,17.039 C12.098,17.615 11.695,18.139 11.134,18.206 L8.547,18.515 C8.167,18.560 7.822,18.280 7.778,17.889 ZM10.093,20.697 C9.910,20.719 9.729,20.666 9.584,20.548 C9.439,20.430 9.347,20.261 9.326,20.071 L9.267,19.551 L11.260,19.313 C11.819,19.246 12.319,18.959 12.668,18.506 C12.714,18.446 12.757,18.384 12.796,18.321 C13.205,18.418 13.529,18.771 13.580,19.221 C13.611,19.501 13.535,19.775 13.366,19.996 C13.196,20.216 12.953,20.355 12.682,20.388 L10.093,20.697 ZM13.951,22.437 L12.616,22.597 C12.432,22.619 12.251,22.566 12.106,22.448 C11.961,22.330 11.869,22.160 11.848,21.971 L11.807,21.614 L12.807,21.495 C13.366,21.428 13.866,21.142 14.216,20.688 C14.265,20.623 14.311,20.556 14.353,20.487 C14.622,20.650 14.812,20.937 14.851,21.273 C14.855,21.312 14.858,21.356 14.858,21.402 C14.853,21.931 14.464,22.376 13.951,22.437 ZM19.754,19.612 C19.066,19.612 18.404,19.828 17.840,20.236 C17.649,20.374 17.442,20.487 17.224,20.570 C17.005,20.653 16.776,20.707 16.545,20.731 L15.860,20.800 C15.687,20.172 15.246,19.661 14.670,19.405 C14.673,19.302 14.669,19.198 14.657,19.093 C14.555,18.194 13.928,17.483 13.121,17.256 C13.126,17.141 13.122,17.026 13.109,16.910 C13.005,15.986 12.345,15.265 11.514,15.057 L13.659,12.853 L15.897,15.247 C16.064,15.426 16.241,15.597 16.425,15.757 C16.654,15.955 16.996,15.926 17.189,15.690 C17.382,15.455 17.353,15.104 17.124,14.905 C16.969,14.770 16.819,14.626 16.679,14.475 L13.588,11.168 C13.194,10.746 12.609,10.584 12.062,10.745 L9.859,11.393 C8.919,11.669 7.920,11.255 7.429,10.387 C7.358,10.262 7.379,10.144 7.397,10.085 C7.416,10.026 7.466,9.918 7.595,9.860 L13.606,7.127 C13.699,7.085 13.805,7.086 13.898,7.129 L17.820,8.968 C18.344,9.214 18.902,9.338 19.478,9.338 L20.362,9.338 L20.362,16.358 L19.616,16.183 C19.388,16.130 19.160,16.062 18.939,15.980 C18.658,15.876 18.347,16.027 18.246,16.317 C18.145,16.607 18.292,16.926 18.574,17.029 C18.835,17.126 19.105,17.207 19.375,17.270 L20.362,17.502 L20.362,19.612 L19.754,19.612 ZM26.432,20.332 C26.432,20.410 26.371,20.473 26.295,20.473 L21.584,20.473 C21.508,20.473 21.446,20.410 21.446,20.332 L21.446,8.353 C21.446,8.276 21.508,8.212 21.584,8.212 L26.295,8.212 C26.371,8.212 26.432,8.276 26.432,8.353 L26.432,20.332 Z"/>
</svg>
