<svg
        xmlns="http://www.w3.org/2000/svg"
        xmlns:xlink="http://www.w3.org/1999/xlink"
        viewBox="0 0 53 33"
        width="53px" height="33px">
    <path fill-rule="evenodd"  fill="rgb(14, 189, 238)"
          d="M51.896,24.199 L45.271,24.199 C44.774,24.199 44.339,23.869 44.206,23.392 C44.135,23.133 44.029,22.783 43.909,22.397 L42.152,23.572 C42.388,24.806 41.972,26.044 40.964,26.903 C40.216,27.543 39.310,27.854 38.432,27.807 C38.113,28.602 37.473,29.282 36.588,29.726 C35.682,30.179 34.686,30.309 33.816,30.124 C33.348,31.070 32.522,31.851 31.517,32.239 C30.667,32.569 29.784,32.566 29.006,32.265 C28.426,32.751 27.589,33.000 26.500,33.000 C25.144,33.000 23.393,32.252 22.580,31.719 C21.595,31.075 16.653,27.372 12.541,23.942 C11.856,23.370 10.838,22.309 9.853,21.284 C9.563,20.982 9.290,20.698 9.037,20.437 C8.894,20.885 8.800,21.172 8.778,21.240 C8.630,21.693 8.206,21.999 7.729,21.999 L1.104,21.999 C0.495,21.999 -0.000,21.506 -0.000,20.899 L-0.000,1.097 C-0.000,0.793 0.126,0.503 0.347,0.296 C0.568,0.087 0.857,-0.016 1.170,-0.001 C3.445,0.133 11.013,0.712 12.905,2.498 C13.151,2.727 13.274,3.057 13.246,3.392 C13.218,3.709 13.178,4.047 13.131,4.397 L21.975,4.397 C24.818,2.165 27.387,1.619 31.367,3.392 C33.707,4.435 36.042,5.353 37.713,5.984 C37.589,5.735 37.547,5.454 37.625,5.185 C37.714,4.883 37.928,4.635 38.215,4.501 C38.416,4.408 43.226,2.197 51.896,2.197 C52.505,2.197 53.000,2.688 53.000,3.297 L53.000,23.099 C53.000,23.706 52.505,24.199 51.896,24.199 ZM2.208,2.276 L2.208,19.799 L6.923,19.799 C7.745,17.216 10.392,8.655 10.978,3.836 C9.586,3.163 5.757,2.556 2.208,2.276 ZM12.764,6.597 C12.030,10.384 10.697,15.034 9.774,18.068 C10.179,18.446 10.784,19.069 11.450,19.761 C12.351,20.698 13.371,21.759 13.961,22.254 C18.159,25.757 23.020,29.370 23.795,29.878 C24.442,30.305 25.764,30.800 26.500,30.800 C26.721,30.800 26.881,30.783 27.025,30.763 C25.353,29.194 23.129,26.847 22.381,26.050 C21.966,25.605 21.988,24.910 22.434,24.494 C22.878,24.078 23.578,24.102 23.996,24.547 C24.625,25.218 27.847,28.635 29.422,29.957 C29.428,29.962 29.430,29.969 29.435,29.974 C29.441,29.980 29.449,29.983 29.455,29.988 C29.894,30.388 30.384,30.311 30.722,30.184 C31.256,29.977 31.691,29.524 31.899,29.000 C30.066,27.365 26.827,23.883 26.791,23.845 C26.378,23.398 26.409,22.701 26.858,22.289 C27.308,21.880 28.004,21.907 28.419,22.355 C29.170,23.170 32.493,26.688 33.816,27.741 C33.827,27.750 33.831,27.762 33.841,27.771 C33.853,27.781 33.867,27.786 33.878,27.797 C34.154,28.052 34.892,28.113 35.598,27.757 C35.825,27.644 36.274,27.346 36.399,26.864 C34.737,25.353 30.633,21.091 30.122,20.560 C29.700,20.122 29.713,19.425 30.155,19.005 C30.594,18.582 31.294,18.597 31.716,19.038 C33.874,21.279 37.341,24.815 38.191,25.503 C38.519,25.713 39.100,25.596 39.529,25.229 C39.827,24.976 40.267,24.424 39.858,23.576 C39.030,21.860 35.349,18.894 32.102,16.278 C30.307,14.833 28.602,13.458 27.339,12.276 C27.017,12.406 26.774,12.514 26.566,12.606 C25.992,12.864 25.610,13.022 24.908,13.130 C23.207,15.379 20.924,16.166 18.422,15.343 C17.424,15.015 16.752,14.311 16.525,13.361 C15.997,11.136 18.030,8.108 19.539,6.597 L12.764,6.597 ZM30.464,5.403 C26.555,3.662 24.705,4.558 21.116,8.135 C19.608,9.638 18.444,11.887 18.676,12.853 C18.709,12.993 18.771,13.141 19.115,13.255 C20.195,13.616 21.812,13.814 23.373,11.488 C23.556,11.216 23.852,11.040 24.181,11.007 C24.926,10.932 25.111,10.848 25.663,10.602 C26.025,10.441 26.485,10.234 27.229,9.966 C27.629,9.823 28.081,9.920 28.384,10.224 C29.592,11.427 31.486,12.954 33.492,14.569 C36.537,17.024 39.656,19.546 41.176,21.575 L43.201,20.219 C42.066,16.825 40.316,11.953 39.018,8.810 C37.873,8.402 34.171,7.054 30.464,5.403 ZM50.792,4.411 C45.538,4.534 41.918,5.513 40.234,6.083 C41.958,9.744 45.050,18.602 46.097,21.999 L50.792,21.999 L50.792,4.411 Z"/>
</svg>
