<svg
        xmlns="http://www.w3.org/2000/svg"
        xmlns:xlink="http://www.w3.org/1999/xlink"
        viewBox="0 0 41 56"
        width="41px" height="56px">
    <path fill-rule="evenodd"  fill="rgb(12, 188, 238)"
          d="M40.767,20.937 L37.715,24.828 L38.391,29.706 C38.459,30.201 38.180,30.679 37.713,30.867 L33.102,32.728 L31.220,37.287 C31.029,37.749 30.546,38.025 30.046,37.957 L28.242,37.713 L28.242,54.906 C28.242,55.348 27.973,55.747 27.559,55.916 C27.146,56.085 26.670,55.992 26.354,55.679 L20.498,49.890 L14.643,55.679 C14.327,55.992 13.851,56.085 13.437,55.916 C13.024,55.747 12.754,55.348 12.754,54.906 L12.754,37.713 L10.951,37.957 C10.451,38.026 9.967,37.750 9.776,37.287 L7.894,32.728 L3.284,30.868 C2.816,30.679 2.537,30.201 2.606,29.706 L3.281,24.828 L0.230,20.937 C-0.080,20.542 -0.080,19.991 0.230,19.597 L3.281,15.706 L2.605,10.828 C2.537,10.334 2.816,9.856 3.283,9.667 L7.894,7.805 L9.776,3.247 C9.967,2.785 10.451,2.509 10.951,2.577 L15.884,3.245 L19.820,0.227 C20.219,-0.079 20.777,-0.079 21.176,0.227 L25.112,3.245 L30.046,2.577 C30.546,2.509 31.029,2.785 31.220,3.247 L33.102,7.805 L37.713,9.667 C38.181,9.856 38.459,10.333 38.391,10.828 L37.715,15.706 L40.767,19.596 C41.076,19.991 41.076,20.542 40.767,20.937 ZM14.967,52.265 L19.716,47.570 C20.148,47.143 20.848,47.143 21.280,47.570 L26.030,52.265 L26.030,37.413 L25.112,37.289 L21.176,40.306 C20.977,40.459 20.737,40.536 20.498,40.536 C20.259,40.536 20.020,40.459 19.820,40.306 L15.884,37.289 L14.967,37.413 L14.967,52.265 ZM35.682,16.683 C35.499,16.451 35.419,16.156 35.460,15.864 L36.082,11.372 L31.835,9.657 C31.560,9.546 31.342,9.330 31.229,9.057 L29.496,4.860 L24.952,5.475 C24.657,5.515 24.359,5.436 24.124,5.256 L20.498,2.476 L16.873,5.256 C16.638,5.436 16.340,5.515 16.045,5.475 L11.501,4.860 L9.767,9.057 C9.655,9.329 9.436,9.545 9.161,9.657 L4.914,11.372 L5.537,15.864 C5.577,16.156 5.497,16.451 5.315,16.683 L2.504,20.267 L5.315,23.851 C5.497,24.084 5.577,24.379 5.537,24.670 L4.914,29.163 L9.161,30.876 C9.436,30.987 9.655,31.203 9.767,31.476 L11.501,35.675 L16.045,35.059 C16.342,35.019 16.639,35.100 16.873,35.278 L20.498,38.058 L24.124,35.279 C24.359,35.099 24.656,35.020 24.952,35.059 L26.998,35.337 C27.204,35.311 27.395,35.341 27.568,35.414 L29.496,35.675 L31.229,31.476 C31.342,31.204 31.560,30.988 31.835,30.877 L36.082,29.163 L35.460,24.670 C35.419,24.379 35.499,24.084 35.681,23.851 L38.492,20.267 L35.682,16.683 ZM13.934,18.705 C14.064,18.309 14.410,18.020 14.827,17.960 L18.060,17.496 L19.506,14.599 C19.692,14.226 20.077,13.989 20.498,13.989 C20.498,13.989 20.498,13.989 20.498,13.989 C20.919,13.989 21.304,14.226 21.490,14.599 L22.935,17.496 L26.169,17.960 C26.585,18.020 26.932,18.309 27.062,18.704 C27.192,19.101 27.083,19.535 26.782,19.826 L24.442,22.081 L24.995,25.265 C25.066,25.676 24.895,26.091 24.555,26.335 C24.212,26.582 23.760,26.611 23.390,26.418 L20.498,24.915 L17.606,26.418 C17.233,26.612 16.781,26.580 16.441,26.335 C16.100,26.091 15.929,25.676 16.000,25.265 L16.553,22.081 L14.213,19.826 C13.912,19.535 13.803,19.101 13.934,18.705 ZM18.514,20.916 C18.774,21.168 18.893,21.530 18.832,21.884 L18.560,23.451 L19.983,22.711 C20.306,22.543 20.691,22.543 21.013,22.711 L22.435,23.450 L22.164,21.884 C22.102,21.530 22.221,21.168 22.482,20.916 L23.633,19.807 L22.042,19.578 C21.681,19.527 21.370,19.303 21.209,18.980 L20.498,17.555 L19.786,18.980 C19.625,19.303 19.314,19.527 18.954,19.578 L17.363,19.807 L18.514,20.916 ZM20.498,33.392 C12.975,33.392 6.868,27.168 7.240,19.602 C7.252,19.378 7.269,19.158 7.290,18.944 C7.350,18.342 7.889,17.902 8.499,17.962 C9.107,18.021 9.552,18.556 9.492,19.157 C9.474,19.340 9.459,19.528 9.449,19.714 C9.139,26.030 14.241,31.205 20.498,31.205 C26.628,31.205 31.561,26.278 31.561,20.267 C31.561,14.236 26.598,9.329 20.498,9.329 C17.845,9.329 15.210,10.249 12.997,12.234 C12.545,12.641 11.846,12.609 11.434,12.162 C11.023,11.716 11.055,11.024 11.507,10.617 C11.579,10.574 14.944,7.141 20.498,7.141 C27.818,7.141 33.773,13.029 33.773,20.267 C33.773,27.455 27.872,33.392 20.498,33.392 ZM9.435,15.891 C9.346,15.891 9.258,15.881 9.174,15.860 C8.690,15.745 8.329,15.314 8.329,14.798 C8.329,14.194 8.825,13.704 9.435,13.704 C9.703,13.704 9.950,13.798 10.141,13.954 C10.386,14.157 10.542,14.458 10.542,14.798 C10.542,15.403 10.046,15.891 9.435,15.891 Z"/>
</svg>
