<svg
        xmlns="http://www.w3.org/2000/svg"
        xmlns:xlink="http://www.w3.org/1999/xlink"
        viewBox="0 0 50 50"
        width="50px" height="50px">
    <path fill-rule="evenodd"  fill="rgb(14, 189, 238)"
          d="M47.500,37.497 L37.208,37.497 L43.573,48.105 C43.928,48.696 43.736,49.465 43.143,49.819 C42.942,49.942 42.720,49.997 42.500,49.997 C42.078,49.997 41.663,49.781 41.428,49.390 L36.250,40.761 L36.250,48.748 C36.250,49.439 35.691,49.998 35.000,49.998 C34.309,49.998 33.750,49.439 33.750,48.748 L33.750,40.761 L28.573,49.391 C28.216,49.986 27.445,50.180 26.859,49.821 C26.265,49.466 26.072,48.697 26.429,48.107 L32.794,37.499 L22.500,37.499 C21.120,37.499 20.001,36.380 20.001,34.999 L20.001,31.403 L22.500,32.027 L22.500,34.999 L47.500,34.999 L47.500,15.000 L22.500,15.000 L22.500,18.159 L20.001,16.909 L20.001,15.000 C20.001,13.619 21.120,12.500 22.500,12.500 L47.500,12.500 C48.881,12.500 50.000,13.619 50.000,15.000 L50.000,34.997 C50.000,36.378 48.881,37.497 47.500,37.497 ZM10.001,15.000 C5.865,15.000 2.501,11.637 2.501,7.501 C2.501,3.365 5.865,0.001 10.001,-0.000 C14.136,-0.000 17.501,3.364 17.501,7.500 C17.501,11.636 14.136,15.000 10.001,15.000 ZM10.001,2.501 C7.239,2.501 5.001,4.739 5.001,7.501 C5.001,10.262 7.239,12.501 10.001,12.501 C12.762,12.501 15.001,10.262 15.001,7.501 C15.001,4.739 12.762,2.501 10.001,2.501 ZM5.001,17.500 L15.001,17.500 C15.389,17.500 15.772,17.591 16.119,17.764 L26.119,22.764 C26.349,22.880 26.550,23.032 26.730,23.207 L42.156,18.799 C42.822,18.601 43.513,18.991 43.701,19.656 C43.892,20.319 43.508,21.012 42.844,21.201 L27.500,25.585 L27.500,27.499 C27.500,28.269 27.146,28.996 26.539,29.470 C26.095,29.816 25.552,29.999 25.001,29.999 C24.798,29.999 24.595,29.975 24.395,29.925 L17.170,28.119 L14.986,47.775 C14.845,49.041 13.775,49.998 12.501,49.998 L7.501,49.998 C6.197,49.998 5.112,48.997 5.009,47.696 L4.098,36.249 L2.501,36.249 C1.759,36.249 1.056,35.920 0.581,35.351 C0.106,34.782 -0.092,34.031 0.041,33.302 L2.541,19.553 C2.757,18.364 3.793,17.500 5.001,17.500 ZM6.407,33.749 L7.501,47.499 L12.501,47.499 L15.001,25.000 L25.000,27.500 L25.000,25.000 L15.001,20.000 L11.251,20.000 L11.251,27.605 C11.251,28.296 10.692,28.855 10.001,28.855 C9.310,28.855 8.751,28.296 8.751,27.605 L8.751,20.000 L5.001,20.000 L2.501,33.749 L6.407,33.749 Z"/>
</svg>
