<svg
        xmlns="http://www.w3.org/2000/svg"
        xmlns:xlink="http://www.w3.org/1999/xlink"
        viewBox="0 0 58 41"
        width="58px" height="41px">
    <path fill-rule="evenodd"  fill="rgb(12, 188, 238)"
          d="M57.033,36.232 L52.102,36.232 C51.639,38.933 49.268,41.000 46.400,41.000 C43.532,41.000 41.161,38.933 40.698,36.232 L37.701,36.232 C37.700,36.232 37.700,36.232 37.700,36.232 L19.236,36.232 C18.772,38.933 16.401,41.000 13.533,41.000 C10.666,41.000 8.294,38.933 7.831,36.232 L0.967,36.232 C0.433,36.232 -0.000,35.806 -0.000,35.279 L-0.000,4.767 C-0.000,4.241 0.433,3.814 0.967,3.814 L37.700,3.814 C38.235,3.814 38.667,4.241 38.667,4.767 L38.667,10.488 L48.333,10.488 C48.662,10.488 48.968,10.653 49.146,10.926 L57.846,24.275 C57.947,24.428 58.000,24.608 58.000,24.791 L58.000,35.279 C58.000,35.806 57.568,36.232 57.033,36.232 ZM13.533,39.093 C15.666,39.093 17.400,37.382 17.400,35.279 C17.400,33.176 15.666,31.465 13.533,31.465 C11.401,31.465 9.667,33.175 9.667,35.279 C9.667,37.382 11.401,39.093 13.533,39.093 ZM36.733,32.419 L20.300,32.419 L20.300,30.511 L36.733,30.511 L36.733,11.442 L36.733,9.535 L3.867,9.535 L3.867,7.628 L36.733,7.628 L36.733,5.721 L1.933,5.721 L1.933,30.511 L6.767,30.511 L6.767,32.419 L1.933,32.419 L1.933,34.325 L7.831,34.325 C8.295,31.625 10.666,29.558 13.533,29.558 C16.401,29.558 18.772,31.625 19.236,34.325 L36.733,34.325 L36.733,32.419 ZM46.400,39.093 C48.533,39.093 50.267,37.382 50.267,35.279 C50.267,33.176 48.533,31.465 46.400,31.465 C44.268,31.465 42.533,33.175 42.533,35.279 C42.533,37.382 44.267,39.093 46.400,39.093 ZM50.267,16.172 L50.267,16.209 L42.533,16.209 L42.533,22.883 L54.641,22.883 L50.267,16.172 ZM56.067,32.419 L53.167,32.419 L53.167,30.511 L56.067,30.511 L56.067,25.071 L55.884,24.790 L41.567,24.790 C41.032,24.790 40.600,24.364 40.600,23.837 L40.600,15.256 C40.600,14.729 41.032,14.302 41.567,14.302 L49.048,14.302 L47.805,12.395 L38.667,12.395 L38.667,34.325 L40.698,34.325 C41.161,31.625 43.532,29.558 46.400,29.558 C49.268,29.558 51.639,31.625 52.102,34.325 L56.067,34.325 L56.067,32.419 ZM47.367,36.232 L45.433,36.232 L45.433,34.325 L47.367,34.325 L47.367,36.232 ZM14.500,36.232 L12.567,36.232 L12.567,34.325 L14.500,34.325 L14.500,36.232 ZM3.867,-0.000 L17.400,-0.000 L17.400,1.907 L3.867,1.907 L3.867,-0.000 ZM-0.000,-0.000 L1.933,-0.000 L1.933,1.907 L-0.000,1.907 L-0.000,-0.000 Z"/>
</svg>
