<svg
        xmlns="http://www.w3.org/2000/svg"
        xmlns:xlink="http://www.w3.org/1999/xlink"
        viewBox="0 0 42 37"
        width="42px" height="37px">
    <path fill-rule="evenodd"  fill="rgb(12, 188, 238)"
          d="M40.777,4.934 C40.775,4.934 40.772,4.933 40.769,4.933 L29.613,4.933 L29.613,3.700 C29.613,1.660 27.957,-0.000 25.922,-0.000 L16.078,-0.000 C14.043,-0.000 12.387,1.660 12.387,3.700 L12.387,4.933 L1.230,4.933 C0.545,4.933 -0.000,5.496 -0.000,6.167 L-0.000,33.300 C-0.000,35.340 1.656,37.000 3.691,37.000 L38.309,37.000 C40.344,37.000 42.000,35.340 42.000,33.300 L42.000,6.193 C42.000,6.191 42.000,6.189 42.000,6.188 C41.953,5.378 41.456,4.938 40.777,4.934 ZM14.848,3.700 C14.848,3.020 15.400,2.466 16.078,2.466 L25.922,2.466 C26.600,2.466 27.152,3.020 27.152,3.700 L27.152,4.933 L14.848,4.933 L14.848,3.700 ZM39.062,7.400 L35.241,18.890 C35.073,19.394 34.604,19.733 34.074,19.733 L27.152,19.733 L27.152,18.500 C27.152,17.819 26.601,17.266 25.922,17.266 L16.078,17.266 C15.398,17.266 14.848,17.819 14.848,18.500 L14.848,19.733 L7.926,19.733 C7.396,19.733 6.926,19.394 6.759,18.890 L2.938,7.400 L39.062,7.400 ZM24.691,19.733 L24.691,22.200 L17.309,22.200 L17.309,19.733 L24.691,19.733 ZM39.539,33.300 C39.539,33.980 38.987,34.533 38.309,34.533 L3.691,34.533 C3.013,34.533 2.461,33.980 2.461,33.300 L2.461,13.767 L4.424,19.670 C4.927,21.183 6.335,22.200 7.926,22.200 L14.848,22.200 L14.848,23.433 C14.848,24.114 15.398,24.666 16.078,24.666 L25.922,24.666 C26.601,24.666 27.152,24.114 27.152,23.433 L27.152,22.200 L34.074,22.200 C35.665,22.200 37.073,21.183 37.576,19.670 L39.539,13.767 L39.539,33.300 Z"/>
</svg>
