<svg
        xmlns="http://www.w3.org/2000/svg"
        xmlns:xlink="http://www.w3.org/1999/xlink"
        viewBox="0 0 57 52"
        width="57px" height="52px">
    <path fill-rule="evenodd"  fill="rgb(12, 188, 238)"
          d="M56.439,6.570 L50.342,9.898 C49.813,10.187 49.147,9.999 48.853,9.482 C48.559,8.964 48.749,8.311 49.277,8.022 L55.375,4.694 C55.903,4.406 56.570,4.592 56.863,5.110 C57.157,5.628 56.968,6.281 56.439,6.570 ZM44.067,30.456 C24.392,34.242 23.276,34.456 23.106,34.489 L24.529,36.906 C24.832,37.419 24.652,38.075 24.129,38.372 L21.286,39.982 L24.569,45.560 C25.780,47.615 25.060,50.238 22.967,51.425 C20.852,52.624 18.176,51.875 16.987,49.853 L11.476,40.490 C8.013,41.850 3.934,40.557 1.999,37.270 C-0.118,33.675 1.148,29.076 4.803,27.007 L14.097,21.744 L28.392,3.883 C29.000,2.950 30.026,2.398 31.156,2.398 C31.170,2.398 31.184,2.398 31.198,2.399 C32.368,2.413 33.415,3.015 34.000,4.008 L38.038,10.867 L42.248,10.620 C42.660,10.596 43.054,10.802 43.261,11.154 L45.450,14.872 C45.657,15.225 45.644,15.661 45.415,16.000 L43.091,19.453 L46.728,25.631 C47.957,27.717 46.499,30.326 44.067,30.456 ZM22.087,37.049 L20.993,35.190 L19.097,36.264 L20.191,38.123 L22.087,37.049 ZM18.883,48.780 C19.480,49.796 20.820,50.162 21.872,49.566 C22.921,48.971 23.278,47.659 22.674,46.634 C22.572,46.461 23.534,48.096 17.202,37.337 L13.411,39.484 L18.883,48.780 ZM5.897,28.866 C4.209,29.822 3.160,31.605 3.160,33.519 C3.160,34.456 3.414,35.382 3.895,36.197 C5.403,38.759 8.756,39.641 11.369,38.162 L19.898,33.331 L14.427,24.036 L5.897,28.866 ZM28.391,7.360 L16.145,22.662 L21.950,32.523 L41.041,28.851 L28.391,7.360 ZM43.216,15.371 L41.704,12.802 L39.261,12.946 L41.868,17.374 L43.216,15.371 ZM44.833,26.705 L32.104,5.081 C31.823,4.604 31.358,4.547 31.171,4.545 C30.982,4.540 30.516,4.589 30.223,5.060 C30.167,5.150 30.130,5.184 29.848,5.541 L43.312,28.414 C43.694,28.344 43.763,28.317 43.912,28.314 C44.743,28.294 45.247,27.409 44.833,26.705 ZM15.961,33.082 C15.438,33.379 14.768,33.203 14.466,32.689 C14.164,32.177 14.343,31.520 14.867,31.223 C15.390,30.927 16.059,31.103 16.361,31.616 C16.663,32.129 16.484,32.786 15.961,33.082 ZM12.170,35.229 L10.275,36.302 C8.700,37.194 6.691,36.654 5.790,35.124 C5.488,34.611 5.667,33.954 6.191,33.657 C6.714,33.361 7.383,33.537 7.685,34.050 C7.987,34.563 8.658,34.739 9.180,34.443 L11.076,33.370 C11.599,33.073 12.268,33.250 12.571,33.763 C12.873,34.276 12.693,34.932 12.170,35.229 ZM45.091,5.498 C44.934,6.071 44.334,6.410 43.750,6.257 C43.166,6.103 42.820,5.515 42.976,4.942 L44.111,0.794 C44.267,0.222 44.867,-0.118 45.451,0.036 C46.035,0.189 46.381,0.778 46.224,1.350 L45.091,5.498 ZM50.508,14.700 L54.736,15.810 C55.320,15.964 55.666,16.552 55.510,17.125 C55.354,17.693 54.757,18.039 54.170,17.884 L49.941,16.773 C49.357,16.619 49.011,16.031 49.167,15.458 C49.324,14.886 49.924,14.546 50.508,14.700 Z"/>
</svg>
