<svg
        xmlns="http://www.w3.org/2000/svg"
        xmlns:xlink="http://www.w3.org/1999/xlink"
        viewBox="0 0 54 54"
        width="54px" height="54px">
    <path fill-rule="evenodd"  fill="rgb(14, 189, 238)"
          d="M48.251,6.210 C50.227,8.819 50.234,12.400 48.332,14.953 L52.076,18.591 C52.080,18.595 52.083,18.598 52.087,18.602 C53.301,19.815 53.301,21.779 52.087,22.993 L22.866,52.089 C21.655,53.300 19.689,53.301 18.475,52.087 L14.370,47.982 C11.745,48.898 8.770,48.237 6.765,46.231 C4.760,44.227 4.098,41.252 5.015,38.627 L0.910,34.522 C-0.304,33.308 -0.304,31.343 0.910,30.129 L30.002,0.911 C31.224,-0.311 33.188,-0.298 34.395,0.910 C34.399,0.913 34.402,0.917 34.406,0.920 L38.045,4.665 C40.615,2.756 44.195,2.788 46.787,4.746 L51.230,0.303 C51.634,-0.101 52.289,-0.101 52.693,0.303 C53.098,0.707 53.098,1.363 52.693,1.767 L48.251,6.210 ZM46.768,7.692 L45.250,9.210 C45.790,10.338 45.619,11.770 44.643,12.746 C43.429,13.960 41.464,13.959 40.250,12.746 C39.040,11.535 39.040,9.565 40.250,8.354 C41.205,7.400 42.630,7.198 43.785,7.748 L45.303,6.230 C43.259,4.854 40.484,5.044 38.713,6.816 C38.286,7.242 37.625,7.203 37.238,6.805 L32.927,2.369 C32.522,1.969 31.871,1.971 31.468,2.373 L2.375,31.592 C1.970,31.997 1.970,32.654 2.374,33.058 L6.964,37.648 C7.273,37.957 7.355,38.425 7.169,38.820 C6.235,40.811 6.661,43.201 8.229,44.767 C9.796,46.335 12.186,46.761 14.177,45.827 C14.318,45.761 14.468,45.729 14.616,45.729 C14.885,45.729 15.150,45.834 15.348,46.032 L19.939,50.623 C20.343,51.027 21.000,51.027 21.404,50.623 L50.624,21.527 C51.024,21.128 51.029,20.476 50.627,20.070 L46.191,15.758 C45.992,15.565 45.879,15.301 45.877,15.024 C45.875,14.746 45.985,14.480 46.180,14.284 C47.975,12.490 48.132,9.713 46.768,7.692 ZM43.178,9.818 C42.775,9.414 42.118,9.415 41.714,9.818 C41.310,10.221 41.310,10.878 41.714,11.282 C42.119,11.687 42.774,11.687 43.178,11.282 C43.584,10.877 43.582,10.222 43.178,9.818 ZM46.838,22.261 L22.135,46.963 C21.731,47.368 21.076,47.368 20.672,46.963 L6.034,32.325 C5.629,31.921 5.629,31.265 6.034,30.861 L14.013,22.882 C14.417,22.478 15.073,22.478 15.477,22.882 C15.881,23.286 15.881,23.941 15.477,24.345 L8.229,31.593 L21.404,44.767 L44.642,21.529 L31.468,8.354 L21.332,18.490 C20.928,18.894 20.273,18.894 19.868,18.490 C19.464,18.086 19.464,17.430 19.868,17.026 L30.736,6.158 C30.930,5.964 31.193,5.856 31.468,5.856 C31.742,5.856 32.005,5.964 32.199,6.158 L46.838,20.797 C47.242,21.201 47.242,21.857 46.838,22.261 ZM24.260,22.882 C23.046,21.668 23.046,19.704 24.260,18.491 C25.473,17.277 27.438,17.277 28.651,18.491 C29.862,19.702 29.862,21.671 28.651,22.882 C27.440,24.093 25.470,24.093 24.260,22.882 ZM27.188,19.955 C26.783,19.550 26.128,19.550 25.723,19.955 C25.318,20.360 25.319,21.014 25.723,21.418 C26.127,21.822 26.784,21.821 27.188,21.418 C27.591,21.014 27.591,20.358 27.188,19.955 ZM28.651,30.201 C29.862,31.412 29.862,33.382 28.651,34.593 C27.438,35.807 25.473,35.806 24.260,34.593 C23.046,33.379 23.046,31.415 24.260,30.201 C25.473,28.987 27.438,28.988 28.651,30.201 ZM25.723,33.129 C26.128,33.534 26.783,33.534 27.188,33.129 C27.591,32.725 27.591,32.068 27.188,31.665 C26.783,31.260 26.128,31.260 25.723,31.665 C25.318,32.070 25.319,32.725 25.723,33.129 ZM34.789,24.874 C34.901,25.435 34.537,25.980 33.977,26.092 L19.339,29.020 C18.779,29.132 18.233,28.770 18.121,28.208 C18.008,27.648 18.372,27.103 18.933,26.990 L33.571,24.062 C34.131,23.950 34.677,24.313 34.789,24.874 ZM16.940,21.418 C16.535,21.013 16.535,20.358 16.940,19.955 C17.345,19.550 18.000,19.550 18.404,19.955 C18.809,20.358 18.809,21.013 18.404,21.418 C18.000,21.822 17.345,21.822 16.940,21.418 Z"/>
</svg>
