<svg
        xmlns="http://www.w3.org/2000/svg"
        xmlns:xlink="http://www.w3.org/1999/xlink"
        viewBox="0 0 46 20"
        width="46px" height="20px">
    <path fill-rule="evenodd"  fill="rgb(12, 188, 238)"
          d="M45.059,16.216 L40.770,16.216 C40.567,17.128 40.104,17.964 39.418,18.630 C38.508,19.513 37.307,20.000 36.036,20.000 C34.766,20.000 33.565,19.513 32.655,18.629 C31.969,17.964 31.506,17.129 31.303,16.216 L14.443,16.216 C14.242,17.126 13.777,17.963 13.092,18.630 C12.181,19.513 10.980,20.000 9.710,20.000 C8.439,20.000 7.238,19.513 6.327,18.630 C5.642,17.964 5.178,17.129 4.976,16.216 L0.941,16.216 C0.421,16.216 -0.000,15.795 -0.000,15.277 L-0.000,11.924 C-0.000,10.532 0.502,9.185 1.415,8.133 C2.328,7.079 3.591,6.388 4.972,6.187 L10.668,5.359 L18.610,1.331 C20.326,0.459 22.250,-0.000 24.175,-0.000 L29.547,-0.000 C31.120,-0.000 32.657,0.295 34.116,0.879 L42.881,4.383 C44.775,5.141 46.000,6.947 46.000,8.983 L46.000,15.277 C46.000,15.795 45.579,16.216 45.059,16.216 ZM36.037,18.123 C37.676,18.123 39.004,16.798 39.004,15.164 C39.004,13.529 37.676,12.204 36.037,12.204 C34.398,12.204 33.069,13.529 33.069,15.164 C33.069,16.798 34.398,18.123 36.037,18.123 ZM9.709,18.123 C11.348,18.123 12.676,16.798 12.676,15.164 C12.676,13.529 11.348,12.204 9.709,12.204 C8.070,12.204 6.742,13.529 6.742,15.164 C6.742,16.798 8.070,18.123 9.709,18.123 ZM2.159,10.488 C3.557,10.354 4.711,9.375 5.098,8.070 C3.747,8.318 2.649,9.261 2.159,10.488 ZM23.176,1.926 C21.885,2.051 20.618,2.417 19.462,3.004 L14.884,5.326 L23.176,5.326 L23.176,1.926 ZM30.058,1.889 C29.889,1.880 29.718,1.877 29.547,1.877 L25.057,1.877 L25.057,5.326 L32.704,5.326 L30.058,1.889 ZM33.416,2.621 C33.222,2.544 33.026,2.472 32.829,2.407 L35.077,5.326 L40.182,5.326 L33.416,2.621 ZM44.119,8.983 C44.119,8.327 43.913,7.711 43.552,7.203 L42.449,7.203 L42.449,8.424 C42.449,9.107 43.006,9.662 43.689,9.662 L44.119,9.662 L44.119,8.983 ZM44.119,11.539 L43.689,11.539 C41.968,11.539 40.567,10.141 40.567,8.424 L40.567,7.203 L34.615,7.203 C34.614,7.203 34.614,7.203 34.614,7.203 C34.613,7.203 34.613,7.203 34.613,7.203 L11.030,7.203 L7.074,7.778 C6.746,10.355 4.546,12.355 1.881,12.380 L1.881,14.339 L4.933,14.339 C5.327,12.064 7.318,10.327 9.710,10.327 C12.101,10.327 14.092,12.064 14.487,14.339 L31.260,14.339 C31.654,12.064 33.645,10.327 36.036,10.327 C38.428,10.327 40.419,12.064 40.813,14.339 L44.119,14.339 L44.119,11.539 ZM26.072,11.709 L19.833,11.709 C19.314,11.709 18.893,11.289 18.893,10.771 C18.893,10.253 19.314,9.833 19.833,9.833 L26.072,9.833 C26.592,9.833 27.013,10.253 27.013,10.771 C27.013,11.289 26.592,11.709 26.072,11.709 ZM9.709,13.920 C10.398,13.920 10.956,14.477 10.956,15.164 C10.956,15.851 10.398,16.408 9.709,16.408 C9.020,16.408 8.462,15.850 8.462,15.164 C8.462,14.477 9.020,13.920 9.709,13.920 ZM36.037,13.920 C36.726,13.920 37.284,14.477 37.284,15.164 C37.284,15.851 36.726,16.408 36.037,16.408 C35.348,16.408 34.790,15.850 34.790,15.164 C34.790,14.477 35.348,13.920 36.037,13.920 Z"/>
</svg>
