<svg
        xmlns="http://www.w3.org/2000/svg"
        xmlns:xlink="http://www.w3.org/1999/xlink"
        viewBox="0 0 18 18"
        width="18px" height="18px">
    <path fill-rule="evenodd"  fill="rgb(12, 188, 238)"
          d="M9.000,18.000 C4.050,18.000 -0.000,13.949 -0.000,9.000 C-0.000,4.050 4.050,-0.001 9.000,-0.001 C13.950,-0.001 18.000,4.050 18.000,9.000 C18.000,13.949 13.950,18.000 9.000,18.000 ZM9.000,1.799 C5.040,1.799 1.800,5.039 1.800,9.000 C1.800,12.959 5.040,16.199 9.000,16.199 C12.960,16.199 16.200,12.959 16.200,9.000 C16.200,5.039 12.960,1.799 9.000,1.799 ZM8.100,9.899 L8.100,4.499 L9.450,4.499 L9.450,9.179 L13.500,11.609 L12.780,12.779 L8.100,9.899 Z"/>
</svg>
