<svg
        xmlns="http://www.w3.org/2000/svg"
        xmlns:xlink="http://www.w3.org/1999/xlink"
        viewBox="0 0 35 24"
        width="35px" height="24px">
    <path fill-rule="evenodd"  fill="rgb(12, 188, 238)"
          d="M31.733,24.000 L3.267,24.000 C1.465,24.000 -0.000,22.523 -0.000,20.707 L-0.000,3.292 C-0.000,1.477 1.465,-0.000 3.267,-0.000 L31.733,-0.000 C33.534,-0.000 35.000,1.477 35.000,3.292 L35.000,20.707 C35.000,22.523 33.534,24.000 31.733,24.000 ZM32.822,3.292 C32.822,2.687 32.334,2.195 31.733,2.195 L3.267,2.195 C2.666,2.195 2.178,2.687 2.178,3.292 L2.178,20.707 C2.178,21.312 2.666,21.805 3.267,21.805 L31.733,21.805 C32.334,21.805 32.822,21.312 32.822,20.707 L32.822,3.292 ZM18.221,17.017 C18.016,17.200 17.758,17.291 17.501,17.291 C17.244,17.291 16.987,17.200 16.782,17.017 L4.725,6.311 C4.274,5.910 4.230,5.217 4.628,4.762 C5.025,4.307 5.713,4.263 6.165,4.664 L17.501,14.731 L28.835,4.664 C29.287,4.263 29.975,4.307 30.372,4.762 C30.770,5.217 30.727,5.910 30.275,6.311 L18.221,17.017 Z"/>
</svg>
