<svg
        xmlns="http://www.w3.org/2000/svg"
        xmlns:xlink="http://www.w3.org/1999/xlink"
        viewBox="0 0 27 39"
        width="27px" height="39px">
    <path fill-rule="evenodd"  fill="rgb(12, 188, 238)"
          d="M25.096,20.735 L14.653,38.444 C14.451,38.786 14.089,38.997 13.696,39.000 C13.693,39.000 13.690,39.000 13.687,39.000 C13.298,39.000 12.937,38.796 12.732,38.460 L2.015,20.921 C0.697,18.758 -0.000,16.265 -0.000,13.711 C-0.000,6.150 6.056,-0.000 13.500,-0.000 C20.944,-0.000 27.000,6.150 27.000,13.711 C27.000,16.189 26.342,18.618 25.096,20.735 ZM13.500,2.270 C7.297,2.270 2.235,7.411 2.235,13.711 C2.235,15.840 2.830,17.916 3.927,19.717 L13.670,35.662 L23.165,19.562 C24.202,17.800 24.757,15.777 24.757,13.711 C24.757,7.411 19.703,2.270 13.500,2.270 ZM13.500,20.566 C9.729,20.566 6.750,17.467 6.750,13.711 C6.750,9.931 9.778,6.855 13.500,6.855 C17.222,6.855 20.250,9.931 20.250,13.711 C20.250,17.426 17.318,20.566 13.500,20.566 ZM13.500,9.125 C11.019,9.125 8.985,11.191 8.985,13.711 C8.985,16.237 11.006,18.296 13.500,18.296 C16.034,18.296 18.007,16.200 18.007,13.711 C18.007,11.191 15.981,9.125 13.500,9.125 Z"/>
</svg>
