<svg
        xmlns="http://www.w3.org/2000/svg"
        xmlns:xlink="http://www.w3.org/1999/xlink"
        viewBox="0 0 36 36"
        width="36px" height="36px">
    <path fill-rule="evenodd"  fill="rgb(12, 188, 238)"
          d="M34.244,31.034 C34.219,31.058 32.595,32.555 32.570,32.578 C27.979,37.151 20.574,37.134 16.002,32.562 L3.436,20.168 C-1.149,15.583 -1.148,8.166 3.435,3.583 C3.435,3.582 3.574,3.444 3.574,3.444 C3.574,3.444 5.107,1.911 5.107,1.911 C6.375,0.643 8.438,0.643 9.706,1.911 L14.305,6.510 C15.573,7.777 15.573,9.841 14.305,11.109 L12.215,13.199 C11.252,14.162 11.252,15.720 12.215,16.683 L19.485,23.781 C19.485,23.781 19.485,23.782 19.486,23.782 C20.449,24.745 22.007,24.745 22.970,23.782 L25.060,21.692 C26.331,20.421 28.388,20.421 29.659,21.692 C29.664,21.696 29.668,21.701 29.672,21.705 L34.251,26.443 C35.512,27.711 35.509,29.769 34.244,31.034 ZM12.006,10.342 L12.772,9.576 C13.196,9.152 13.196,8.466 12.772,8.042 L8.173,3.444 C7.750,3.021 7.063,3.021 6.640,3.444 L5.874,4.210 L12.006,10.342 ZM24.287,25.517 C22.464,27.125 19.692,27.053 17.954,25.317 L10.683,18.217 C8.946,16.481 8.880,13.699 10.480,11.882 L4.370,5.772 C1.259,9.509 1.427,15.093 4.968,18.634 L17.534,31.028 C21.072,34.566 26.623,34.762 30.396,31.627 L24.287,25.517 ZM32.711,27.968 C32.702,27.960 28.129,23.228 28.121,23.219 C27.697,22.801 27.015,22.803 26.593,23.225 L25.827,23.991 L31.995,30.159 L32.724,29.488 C33.133,29.065 33.129,28.387 32.711,27.968 ZM18.572,7.672 C23.952,7.672 28.328,12.048 28.328,17.428 C28.328,18.026 27.843,18.511 27.244,18.511 C26.645,18.511 26.160,18.026 26.160,17.428 C26.160,13.244 22.756,9.840 18.572,9.840 C17.974,9.840 17.488,9.354 17.488,8.756 C17.488,8.157 17.974,7.672 18.572,7.672 ZM31.580,18.511 C30.981,18.511 30.496,18.026 30.496,17.428 C30.496,10.853 25.147,5.504 18.572,5.504 C17.974,5.504 17.488,5.018 17.488,4.420 C17.488,3.821 17.974,3.336 18.572,3.336 C26.342,3.336 32.664,9.657 32.664,17.428 C32.664,18.026 32.179,18.511 31.580,18.511 Z"/>
</svg>
