<svg
        xmlns="http://www.w3.org/2000/svg"
        xmlns:xlink="http://www.w3.org/1999/xlink"
        viewBox="0 0 22 22"
        width="22px" height="22px">
    <path fill-rule="evenodd"  fill="rgb(12, 188, 238)"
          d="M21.773,12.480 L12.489,21.772 C12.318,21.924 12.129,22.000 11.920,22.000 C11.712,22.000 11.503,21.924 11.352,21.772 L0.230,10.641 C0.059,10.470 -0.016,10.242 0.003,9.996 L0.950,1.652 C0.988,1.273 1.291,0.988 1.651,0.950 L9.988,0.002 C10.215,-0.017 10.461,0.059 10.632,0.230 L21.754,11.361 C21.905,11.513 21.981,11.721 22.000,11.911 C22.000,12.138 21.924,12.328 21.773,12.480 ZM9.779,1.633 L2.466,2.468 L1.632,9.787 L9.192,17.353 L17.339,9.199 L9.779,1.633 ZM18.476,10.337 L10.329,18.491 L11.920,20.084 L20.067,11.930 L18.476,10.337 ZM6.994,10.034 C6.179,10.034 5.421,9.712 4.853,9.142 C3.678,7.967 3.678,6.052 4.853,4.876 C5.440,4.307 6.179,3.984 6.994,3.984 C7.809,3.984 8.567,4.307 9.135,4.876 C9.703,5.444 10.026,6.203 10.026,7.000 C10.026,7.815 9.703,8.573 9.135,9.142 C8.548,9.712 7.809,10.034 6.994,10.034 ZM7.998,5.995 C7.733,5.729 7.373,5.577 6.994,5.577 C6.615,5.577 6.255,5.729 5.990,5.995 C5.440,6.563 5.440,7.474 5.990,8.023 C6.539,8.555 7.487,8.555 8.017,8.023 C8.282,7.739 8.434,7.398 8.415,7.000 C8.415,6.620 8.263,6.260 7.998,5.995 Z"/>
</svg>
