<svg
        xmlns="http://www.w3.org/2000/svg"
        xmlns:xlink="http://www.w3.org/1999/xlink"
        viewBox="0 0 44 32"
        width="44px" height="32px">
    <path fill-rule="evenodd"  fill="rgb(12, 188, 238)"
          d="M42.953,11.508 L42.156,10.699 C42.153,10.696 42.149,10.693 42.146,10.690 L32.841,1.218 C32.506,0.877 31.963,0.876 31.627,1.217 L30.500,2.360 C28.424,4.465 25.667,5.629 22.737,5.639 C22.471,5.640 22.221,5.766 22.059,5.980 L14.382,16.137 L10.441,16.137 C4.684,16.137 -0.000,20.905 -0.000,26.765 L-0.000,30.250 C-0.000,31.215 0.771,32.000 1.719,32.000 L33.568,32.000 C34.042,32.000 34.427,31.608 34.427,31.125 C34.427,30.642 34.042,30.250 33.568,30.250 L21.929,30.250 L42.342,17.130 C43.262,16.539 43.857,15.569 43.977,14.469 C44.097,13.369 43.724,12.290 42.953,11.508 L42.953,11.508 ZM23.169,7.380 C26.395,7.262 29.415,5.930 31.713,3.600 L32.233,3.073 L34.180,5.055 C30.538,8.492 25.838,10.397 20.854,10.443 L23.169,7.380 ZM9.051,18.000 C9.087,18.063 9.131,18.123 9.185,18.177 L13.756,22.831 C13.924,23.002 14.144,23.087 14.364,23.087 C14.584,23.087 14.804,23.002 14.972,22.831 C15.307,22.489 15.307,21.936 14.972,21.594 L11.330,17.886 L14.449,17.886 L16.145,19.613 C16.313,19.784 16.533,19.869 16.753,19.869 C16.973,19.869 17.193,19.784 17.360,19.613 C17.696,19.271 17.696,18.717 17.360,18.376 L15.946,16.936 L17.753,14.546 L21.198,18.053 C21.366,18.224 21.586,18.309 21.805,18.309 C22.025,18.309 22.246,18.224 22.413,18.053 C22.749,17.711 22.749,17.158 22.413,16.816 L18.810,13.147 L19.530,12.194 L20.738,12.194 C23.571,12.185 26.334,11.620 28.950,10.515 C31.343,9.504 33.508,8.085 35.396,6.293 L40.193,11.176 L17.499,26.284 L1.731,26.284 C1.953,22.086 5.052,18.654 9.051,18.000 L9.051,18.000 ZM42.269,14.276 C42.207,14.845 41.899,15.345 41.425,15.650 L18.710,30.250 L1.719,30.250 L1.719,28.034 L17.755,28.034 C17.923,28.034 18.086,27.984 18.226,27.892 L41.436,12.439 L41.740,12.748 C42.138,13.151 42.331,13.709 42.269,14.276 L42.269,14.276 Z"/>
</svg>
