<svg
        xmlns="http://www.w3.org/2000/svg"
        xmlns:xlink="http://www.w3.org/1999/xlink"
        viewBox="0 0 34 34"
        width="34px" height="34px">
    <path fill-rule="evenodd"  fill="rgb(12, 188, 238)"
          d="M16.934,34.000 C7.506,34.000 -0.000,26.223 -0.000,16.934 C-0.000,7.573 7.574,-0.000 16.934,-0.000 C26.213,-0.000 34.000,7.495 34.000,16.934 C34.000,26.316 26.260,34.000 16.934,34.000 ZM16.934,1.979 C8.695,1.979 1.979,8.695 1.979,16.934 C1.979,25.245 8.695,32.021 16.934,32.021 C25.246,32.021 32.021,25.245 32.021,16.934 C32.021,8.695 25.246,1.979 16.934,1.979 ZM16.934,30.016 C9.819,30.016 3.984,24.102 3.984,16.934 C3.984,9.788 9.801,3.984 16.934,3.984 C24.107,3.984 30.016,9.823 30.016,16.934 C30.016,24.096 24.072,30.016 16.934,30.016 ZM25.466,9.942 L24.814,10.594 C24.620,10.789 24.365,10.886 24.110,10.886 C23.230,10.886 22.776,9.815 23.406,9.186 L24.052,8.539 C22.364,7.139 20.248,6.226 17.930,6.021 L17.930,6.973 C17.930,7.523 17.484,7.968 16.934,7.968 C16.383,7.968 15.937,7.523 15.937,6.973 L15.937,6.022 C13.663,6.228 11.587,7.132 9.926,8.517 L10.594,9.186 C10.984,9.575 10.984,10.205 10.594,10.594 C10.205,10.983 9.575,10.983 9.186,10.594 L8.517,9.926 C7.132,11.587 6.228,13.663 6.022,15.937 L6.973,15.937 C7.523,15.937 7.969,16.383 7.969,16.934 C7.969,17.484 7.523,17.930 6.973,17.930 L6.021,17.930 C6.226,20.248 7.139,22.364 8.539,24.052 L9.186,23.406 C9.575,23.016 10.205,23.016 10.594,23.406 C10.983,23.795 10.983,24.425 10.594,24.814 L9.942,25.466 C11.601,26.860 13.671,27.769 15.937,27.977 L15.937,27.027 C15.937,26.477 16.383,26.031 16.934,26.031 C17.484,26.031 17.930,26.477 17.930,27.027 L17.930,27.976 C20.205,27.762 22.307,26.826 23.997,25.406 L23.405,24.814 C23.016,24.425 23.016,23.794 23.405,23.405 C23.794,23.016 24.425,23.016 24.814,23.405 L25.406,23.997 C26.826,22.307 27.762,20.205 27.976,17.930 L27.027,17.930 C26.477,17.930 26.031,17.484 26.031,16.934 C26.031,16.383 26.477,15.937 27.027,15.937 L27.977,15.937 C27.769,13.671 26.860,11.601 25.466,9.942 ZM21.755,21.622 C21.366,22.011 20.735,22.011 20.346,21.622 L16.362,17.638 C15.973,17.249 15.973,16.618 16.362,16.229 L20.346,12.245 C20.735,11.856 21.366,11.856 21.755,12.245 C22.144,12.634 22.144,13.264 21.755,13.653 L18.475,16.934 L21.755,20.213 C22.144,20.603 22.144,21.233 21.755,21.622 Z"/>
</svg>
