<!-- Generator: Adobe Illustrator 22.0.1, SVG Export Plug-In  -->
<svg version="1.1"
     xmlns="http://www.w3.org/2000/svg" xmlns:xlink="http://www.w3.org/1999/xlink" xmlns:a="http://ns.adobe.com/AdobeSVGViewerExtensions/3.0/"
     x="0px" y="0px" width="218.2px" height="688.2px" viewBox="0 0 218.2 688.2" style="enable-background:new 0 0 218.2 688.2;"
     xml:space="preserve">
<style type="text/css">
	.st0{opacity:0.76;}
	.st1{opacity:0.34;fill:#EBEBEB;}
	.st2{opacity:0.75;fill:url(#SVGID_1_);}
	.st3{opacity:0.85;fill:url(#SVGID_2_);}
	.st4{opacity:0.7;fill:url(#SVGID_3_);}
	.st5{opacity:0.69;fill:#CFCFCF;}
	.st6{fill:#D0D1D0;}
	.st7{opacity:0.78;fill:#C5C6C6;}
	.st8{filter:url(#Adobe_OpacityMaskFilter);}
	.st9{opacity:0.75;fill:url(#SVGID_5_);}
	.st10{opacity:0.85;fill:url(#SVGID_6_);}
	.st11{opacity:0.7;fill:url(#SVGID_7_);}
	.st12{filter:url(#Adobe_OpacityMaskFilter_1_);}
</style>
    <defs>
</defs>
    <g>
	<g>

			<image style="overflow:visible;" width="62" height="79" xlink:href="39AF1C9848C54AB4.png"  transform="matrix(0.24 0 0 0.24 68.6273 218.4778)">
		</image>

        <image style="overflow:visible;" width="590" height="1120" xlink:href="39AF1C9848C54AB5.png"  transform="matrix(0.24 0 0 0.24 58.7873 65.3578)">
		</image>

        <image style="overflow:visible;" width="338" height="582" xlink:href="39AF1C9848C54AB3.png"  transform="matrix(0.24 0 0 0.24 -1.269571e-02 113.5978)">
		</image>
        <g class="st0">
			<path class="st1" d="M126.8,264.8c0.4,1-0.3,2.3-1.1,3.5c-0.5,0.8-0.9,2-1.5,1.2c-0.1,0,0.1-1.1-0.9-2.3c-1.1-1.8-3-4-0.2-5.5
				c1.3-0.7,3.2-0.2,3.8,0.2c1,0.6,1.4,1.5,0.2,2.8"/>
            <radialGradient id="SVGID_1_" cx="123.2912" cy="263.7173" r="2.9022" gradientUnits="userSpaceOnUse">
				<stop  offset="0" style="stop-color:#B8B9B8"/>
                <stop  offset="1" style="stop-color:#D0D1D0"/>
			</radialGradient>
            <path class="st2" d="M126.8,265.1c-0.2-1.4-1.9-1.5-2.5-0.5c-0.4,0.7-0.1,3.8-0.1,4.5c-0.1,0-0.5-0.8-0.7-1.8
				c-0.4-1.4-2.1-2.9-0.1-4.5c0.8-0.7,2.5-0.4,3-0.1C127.6,263.7,126.9,265.6,126.8,265.1"/>
		</g>
        <g>

				<image style="overflow:visible;" width="268" height="1703" xlink:href="39AF1C9848C54ABC.png"  transform="matrix(0.24 0 0 0.24 52.0673 277.7578)">
			</image>
            <linearGradient id="SVGID_2_" gradientUnits="userSpaceOnUse" x1="104.1085" y1="687.0872" x2="103.4538" y2="679.2311">
				<stop  offset="0" style="stop-color:#C2C3C3"/>
                <stop  offset="1" style="stop-color:#CCCCCC"/>
			</linearGradient>
            <path class="st3" d="M115.7,684.9c-1.4,0.6-2.2,1.7-4.9,0.5c-5-2.2,0.4-6.6-1.1-6.9c-0.5-0.6-2.4,1.7-1.6,4.1
				c0.3,1-0.3,2.2-1.2,2.8c-1.6,0.9-3.7-0.5-3-1.7c0.6-1,1-2.1,1-2.8c-0.5,0.1-0.5,1.4-1,2.8c-0.4,1-2.7,1.7-3.6,1.4
				c-0.9-0.3-1.4-1.4-1.4-2.2c-0.7,0.8-2.3,1.1-3.5,0.6c-1.1-0.5-0.9-0.8-1.1-1.8c-2,0.4-2.2-1.4-2.6-2.3c-0.2-0.5,0.5,2.4,0.5,1.9
				c0.3,1.2,1.2,2,2.4,2.1c1,0.1,1,2.4,4.1,1.7c0.3-0.1,0.6,0.8,1.3,1c1.7,0.5,2.5,0.1,3.4-0.4c1,0.7,2.9,1.3,4.4,0.4
				c0.9-0.5,1.5-0.5,2.7-0.1C112.6,686.7,115,686,115.7,684.9"/>
		</g>
        <g>

				<image style="overflow:visible;" width="361" height="1587" xlink:href="39AF1C9848C54ABF.png"  transform="matrix(0.24 0 0 0.24 84.4673 307.2778)">
			</image>
            <linearGradient id="SVGID_3_" gradientUnits="userSpaceOnUse" x1="143.0443" y1="686.8029" x2="142.9342" y2="680.0903">
				<stop  offset="0" style="stop-color:#C2C3C3"/>
                <stop  offset="1" style="stop-color:#CCCCCC"/>
			</linearGradient>
            <path class="st4" d="M130.1,684.9c1.4,0.9,3.1,2.6,5.4,2c3.6-1.1,1.7-7,4.8-7.6c1.3-0.1,0.1,2.6-1.6,4.4
				c-0.7,0.7-0.7,2.8,0.3,3.3c1.6,0.9,5.3,0.7,5.2-1.3c0-1.2-0.5-3.6,1.1-3.8c0.9,0-1.2,1.7-0.9,3.5c0.1,1.1,0.4,1.7,1.8,1.5
				c0.9-0.1,1.2-2,1.2-2.8c0.3,1,1.2,2.3,2.3,1.8c1.1-0.5,1.1-1.3,1.3-2.3c2.5,2.1,4.4-2.4,4.9-3.3c0.2-0.5-0.6,1.6-1.2,2.5
				c-2.2,3.4-3,3-7.8,4.3c-2.3,0.6-5.5,0.8-7.7,0.9C138.1,688.2,130.9,688.1,130.1,684.9"/>
		</g>
        <path class="st5" d="M52,252.9c4.8,0.9,9.8-3.1,9.5-5.9c-0.2-1.9-2.1-1.9-2.3-3.7c-0.3-3.5,2.1-3.8,4.2-4.8c1.6-0.8,4.5-5.2,5.4-6
			c2.3-2,7.6-2.6,10.5-2.6c-0.8,1.6-0.6,1.8-1.3,3.7c-1,2.6-5.3,6.7-7,9C68,246.5,57,254.5,52,252.9"/>

        <image style="overflow:visible;" width="81" height="59" xlink:href="39AF1C9848C54ABD.png"  transform="matrix(0.24 0 0 0.24 72.7073 225.4378)">
		</image>

        <image style="overflow:visible;" width="83" height="74" xlink:href="39AF1C9848C54AB2.png"  transform="matrix(0.24 0 0 0.24 67.9073 228.7978)">
		</image>

        <image style="overflow:visible;" width="84" height="74" xlink:href="39AF1C9848C54AB6.png"  transform="matrix(0.24 0 0 0.24 63.3473 234.0778)">
		</image>

        <image style="overflow:visible;" width="61" height="76" xlink:href="39AF1C9848C54AB7.png"  transform="matrix(0.24 0 0 0.24 58.0673 240.0778)">
		</image>
        <path class="st6" d="M180.4,371.9c-1.5,0.1-7.2-1.6-7.9,0c-0.4,1.1,0.6,2.3,2.5,2.6c1.6,0.2,4-0.7,2.1,1.3c-1,1.1-6.9,0.6-8.5,0.6
			c-0.9,0-3.7,0.5-3.1,2.3c0.4,1.2,6.4,1.5,7.5,1.5c1.5,0,3.4-0.3,4.4-1.2c1-0.9,1.7-3.4,2.3-4.6c0.5-1,1.2-1.9,0.7-3"/>

        <image style="overflow:visible;" width="229" height="1179" xlink:href="564F22028483CC53.png"  transform="matrix(0.24 0 0 0.24 163.4273 105.1978)">
		</image>
        <path class="st7" d="M169.7,387.4c1.2,0,4.3-3.5,4.5-3.8c2.6-2.8,3.2-4.2,5.8-6.9c1.4-1.5,8-10,7.9-11.3c-0.4,2.2-3.9,8.2-4.4,9.1
			c-0.3,0.5-0.6,1.8-0.5,2.5c0.5,2.5,3.8-2.2,4.2-2.8c0.8-1.3,4.4-4.7,5-6.2c-2,4.1-5.6,6.7-4.3,7.8c0.8,0.6,2.7-2.7,3.3-2.9
			c1.1-0.4,2.1-1.7,3.2-3.5c-2,3.7-5.7,6.8-8.1,8.6c-1.9,1.4-3.9,2.5-6.1,3.2c-1.8,0.5-2.9,0.6-5.2,2.8
			C173.1,385.8,170.3,387.1,169.7,387.4"/>
        <g>

				<image style="overflow:visible;" width="252" height="324" xlink:href="564F22028483CC51.png"  transform="matrix(0.24 0 0 0.24 94.5473 -0.1622)">
			</image>
		</g>
	</g>
</g>
</svg>

