<svg
        xmlns="http://www.w3.org/2000/svg"
        xmlns:xlink="http://www.w3.org/1999/xlink"
        width="98px" height="101px">
    <path fill-rule="evenodd"  fill="rgb(235, 235, 235)"
          d="M48.292,58.017 C49.277,58.484 49.696,59.660 49.227,60.642 L48.899,61.329 C48.560,62.038 47.852,62.452 47.113,62.452 C46.829,62.452 46.540,62.391 46.265,62.260 C45.280,61.793 44.862,60.617 45.331,59.635 L45.658,58.948 C46.128,57.966 47.307,57.549 48.292,58.017 ZM92.757,30.589 C91.737,31.607 90.606,32.490 89.387,33.228 C91.613,41.945 91.487,51.149 88.853,59.351 C85.548,69.641 78.617,77.812 68.759,83.079 L73.988,98.363 C74.340,99.393 73.789,100.513 72.756,100.864 C72.544,100.936 72.329,100.970 72.118,100.970 C71.296,100.970 70.528,100.455 70.248,99.635 L64.938,84.115 C59.300,84.058 54.244,81.515 50.238,76.695 C47.034,72.839 45.634,68.882 45.576,68.715 C45.358,68.090 45.450,67.396 45.854,66.870 C46.258,66.344 46.880,66.055 47.543,66.101 C47.555,66.101 49.620,66.140 51.175,64.624 C52.522,63.312 53.194,61.169 53.171,58.257 C53.141,54.292 49.319,52.385 42.567,49.354 C35.471,46.170 26.639,42.206 21.567,32.749 C19.640,29.155 18.598,25.565 18.442,22.132 C15.573,26.094 12.266,32.265 12.266,39.671 C12.266,49.907 7.384,55.548 4.205,58.134 C4.973,58.543 5.841,58.958 6.685,59.362 C9.898,60.899 11.838,61.827 11.838,63.725 L11.838,67.919 C11.838,68.910 11.648,69.878 11.274,70.796 L10.784,71.999 C10.631,72.375 10.692,72.807 10.944,73.126 L11.293,73.568 C11.567,73.915 11.716,74.344 11.716,74.786 L11.716,75.898 C11.716,76.042 11.802,76.171 11.934,76.228 L12.020,76.264 C12.748,76.574 13.221,77.287 13.221,78.076 L13.221,81.475 C13.221,84.260 15.493,86.526 18.286,86.526 L24.121,86.526 C25.212,86.526 26.097,87.408 26.097,88.496 C26.097,89.584 25.212,90.466 24.121,90.466 L18.286,90.466 C13.314,90.466 9.269,86.433 9.269,81.476 L9.269,79.163 C8.328,78.360 7.764,77.176 7.764,75.898 L7.764,75.466 C6.699,74.047 6.452,72.162 7.123,70.516 L7.613,69.314 C7.794,68.869 7.886,68.399 7.886,67.919 L7.886,64.410 C7.238,63.997 5.910,63.361 4.975,62.915 C3.918,62.409 2.825,61.886 1.852,61.341 C0.788,60.745 0.100,59.664 0.010,58.449 C-0.080,57.235 0.442,56.065 1.406,55.320 C3.986,53.327 8.314,48.642 8.314,39.672 C8.314,26.202 17.533,16.703 19.576,14.764 C19.959,13.749 20.435,12.762 21.008,11.809 C25.345,4.594 34.696,0.110 45.416,0.103 C45.984,0.090 52.539,-0.003 60.552,2.500 C62.994,3.262 65.311,4.189 67.493,5.269 C74.482,-1.627 85.796,-1.608 92.758,5.333 C99.742,12.297 99.742,23.626 92.757,30.589 ZM59.371,6.259 C51.788,3.891 45.560,4.040 45.499,4.042 C45.480,4.042 45.461,4.043 45.442,4.043 C36.092,4.043 28.029,7.795 24.398,13.835 C23.877,14.703 23.456,15.604 23.134,16.532 C23.129,16.548 23.123,16.565 23.117,16.581 C21.648,20.865 22.297,25.752 25.053,30.892 C29.489,39.165 37.299,42.669 44.190,45.762 C50.815,48.735 57.072,51.543 57.124,58.227 C57.155,62.294 56.061,65.416 53.872,67.506 C52.706,68.619 51.411,69.246 50.284,69.597 C50.946,70.893 51.958,72.606 53.356,74.270 C56.822,78.397 61.015,80.378 65.823,80.162 C75.330,75.411 81.988,67.808 85.089,58.151 C88.593,47.240 87.237,34.365 81.463,23.711 C76.894,15.282 69.461,9.411 59.371,6.259 ZM89.963,8.119 C84.814,2.985 76.611,2.711 71.131,7.291 C77.009,10.940 81.695,15.854 84.939,21.838 C86.236,24.231 87.324,26.729 88.206,29.291 C88.828,28.846 89.415,28.350 89.963,27.803 C95.407,22.377 95.407,13.546 89.963,8.119 ZM42.280,13.105 L42.193,13.105 C42.189,13.105 42.185,13.105 42.181,13.105 C41.095,13.105 40.211,12.231 40.205,11.147 C40.198,10.059 41.078,9.171 42.169,9.165 L42.280,9.165 C43.371,9.165 44.256,10.047 44.256,11.135 C44.256,12.223 43.371,13.105 42.280,13.105 ZM36.420,14.234 C33.965,15.279 32.224,16.961 31.517,18.967 C30.803,20.993 31.116,23.280 32.448,25.764 C32.962,26.723 32.599,27.917 31.637,28.430 C31.340,28.588 31.021,28.663 30.707,28.663 C30.001,28.663 29.318,28.286 28.962,27.621 C27.113,24.173 26.707,20.729 27.788,17.661 C28.867,14.600 31.381,12.096 34.866,10.611 C35.870,10.183 37.031,10.648 37.460,11.648 C37.889,12.649 37.423,13.807 36.420,14.234 ZM14.613,49.385 C13.842,48.615 13.842,47.368 14.613,46.599 C15.385,45.829 16.636,45.829 17.408,46.599 C19.047,48.232 21.712,48.232 23.351,46.599 C24.122,45.829 25.374,45.829 26.145,46.599 C26.917,47.368 26.917,48.615 26.145,49.385 C24.556,50.970 22.468,51.762 20.379,51.762 C18.291,51.762 16.203,50.970 14.613,49.385 ZM22.418,69.194 L22.515,68.989 C24.446,64.925 28.763,62.439 33.259,62.804 C39.374,63.300 44.117,68.284 44.292,74.398 L44.501,81.698 L50.693,92.389 C51.238,93.332 50.914,94.536 49.969,95.079 C49.024,95.623 47.815,95.301 47.270,94.358 L41.817,84.942 L39.434,86.314 L37.051,87.686 L43.032,98.014 C43.578,98.957 43.254,100.162 42.309,100.706 C41.997,100.885 41.657,100.970 41.322,100.970 C40.639,100.970 39.975,100.617 39.609,99.985 L32.876,88.358 L26.713,84.353 C21.705,81.097 19.858,74.581 22.418,69.194 ZM28.872,81.053 L34.414,84.655 L40.532,81.134 L40.342,74.511 C40.224,70.409 37.042,67.065 32.939,66.732 C32.753,66.717 32.567,66.709 32.383,66.709 C29.721,66.709 27.239,68.252 26.087,70.676 L25.989,70.881 C24.272,74.495 25.511,78.869 28.872,81.053 ZM52.257,97.059 C52.777,97.059 53.287,97.270 53.654,97.637 C54.021,98.003 54.233,98.511 54.233,99.029 C54.233,99.547 54.021,100.056 53.654,100.422 C53.286,100.789 52.777,100.999 52.257,100.999 C51.735,100.999 51.227,100.789 50.860,100.422 C50.492,100.056 50.281,99.547 50.281,99.029 C50.281,98.511 50.492,98.003 50.860,97.637 C51.227,97.270 51.735,97.059 52.257,97.059 Z"/>
</svg>
