<svg
        xmlns="http://www.w3.org/2000/svg"
        xmlns:xlink="http://www.w3.org/1999/xlink"
        width="137px" height="122px">
    <path fill-rule="evenodd"  fill="rgb(235, 235, 235)"
          d="M134.527,85.781 C121.538,85.781 110.186,80.189 103.998,71.890 L103.998,117.031 L109.800,117.031 C111.172,117.031 112.286,118.141 112.286,119.509 C112.286,120.877 111.172,121.987 109.800,121.987 L93.224,121.987 C91.852,121.987 90.738,120.877 90.738,119.509 C90.738,118.141 91.852,117.031 93.224,117.031 L99.026,117.031 L99.026,71.890 C92.839,80.189 81.489,85.781 68.500,85.781 C55.511,85.781 44.160,80.189 37.973,71.890 L37.973,117.031 L43.774,117.031 C45.148,117.031 46.260,118.141 46.260,119.509 C46.260,120.877 45.148,121.987 43.774,121.987 L27.199,121.987 C25.824,121.987 24.712,120.877 24.712,119.509 C24.712,118.141 25.824,117.031 27.199,117.031 L33.000,117.031 L33.000,71.890 C26.811,80.189 15.461,85.781 2.473,85.781 C1.099,85.781 -0.013,84.671 -0.013,83.303 C-0.013,81.935 1.099,80.825 2.473,80.825 C19.305,80.825 33.000,70.388 33.000,57.557 C33.000,56.189 34.112,55.079 35.486,55.079 C36.861,55.079 37.973,56.189 37.973,57.557 C37.973,70.388 51.668,80.825 68.500,80.825 C85.332,80.825 99.026,70.388 99.026,57.557 C99.026,56.189 100.139,55.079 101.512,55.079 C102.884,55.079 103.998,56.189 103.998,57.557 C103.998,70.388 117.694,80.825 134.527,80.825 C135.899,80.825 137.013,81.935 137.013,83.303 C137.013,84.671 135.899,85.781 134.527,85.781 ZM86.733,52.325 L50.267,52.325 C48.894,52.325 47.780,51.217 47.780,49.849 L47.780,2.489 C47.780,1.120 48.892,0.011 50.267,0.011 L86.733,0.011 C88.106,0.011 89.220,1.120 89.220,2.489 L89.220,49.847 C89.220,51.217 88.106,52.325 86.733,52.325 ZM84.247,4.967 L52.753,4.967 L52.753,47.371 L84.247,47.371 L84.247,4.967 Z"/>
</svg>
