<svg
        xmlns="http://www.w3.org/2000/svg"
        xmlns:xlink="http://www.w3.org/1999/xlink"
        width="109px" height="94px">
    <path fill-rule="evenodd"  fill="rgb(235, 235, 235)"
          d="M108.348,27.479 L93.451,42.251 L83.028,57.971 L84.060,58.994 C86.963,61.873 86.964,66.560 84.060,69.442 C82.607,70.882 80.698,71.602 78.790,71.602 C78.764,71.602 78.737,71.600 78.710,71.600 C78.731,73.518 78.006,75.443 76.534,76.903 C75.125,78.302 73.232,79.088 71.185,79.066 C71.205,80.984 70.481,82.907 69.010,84.366 C67.557,85.806 65.648,86.526 63.740,86.526 C63.714,86.526 63.687,86.524 63.660,86.524 C63.681,88.443 62.956,90.367 61.484,91.828 C58.572,94.718 53.859,94.715 50.947,91.828 L47.186,88.097 L46.434,88.843 C43.529,91.723 38.803,91.722 35.898,88.844 C34.426,87.384 33.701,85.460 33.721,83.543 C33.694,83.543 33.667,83.545 33.640,83.545 C31.650,83.545 29.780,82.777 28.373,81.382 C26.901,79.920 26.176,77.995 26.197,76.076 C26.170,76.076 26.143,76.078 26.116,76.078 C24.208,76.078 22.301,75.359 20.848,73.919 C19.376,72.459 18.651,70.536 18.671,68.618 C16.620,68.639 14.730,67.852 13.322,66.454 C10.408,63.568 10.412,58.893 13.324,56.008 L16.781,52.580 L15.123,44.363 L0.619,29.981 C-0.213,29.157 -0.212,27.820 0.618,26.996 L24.700,3.116 C25.099,2.720 25.640,2.498 26.205,2.498 C26.228,2.502 27.029,2.441 27.710,3.117 L42.169,17.454 L56.213,19.444 L66.508,15.239 C68.635,13.129 79.057,2.794 81.257,0.613 C82.089,-0.211 83.436,-0.211 84.267,0.613 L108.348,24.494 C109.179,25.318 109.179,26.654 108.348,27.479 ZM38.908,85.858 C40.153,87.092 42.179,87.092 43.424,85.857 L47.938,81.381 C49.200,80.127 49.175,78.131 47.937,76.901 C46.689,75.664 44.664,75.673 43.424,76.903 L38.908,81.382 C37.663,82.616 37.663,84.624 38.908,85.858 ZM31.384,78.398 C32.631,79.634 34.651,79.633 35.897,78.397 L40.414,73.918 C41.664,72.679 41.658,70.676 40.414,69.442 C39.164,68.202 37.145,68.203 35.899,69.441 L31.383,73.919 C30.139,75.153 30.139,77.162 31.384,78.398 ZM23.857,70.933 C25.102,72.167 27.129,72.168 28.373,70.933 L32.888,66.456 C34.135,65.220 34.135,63.215 32.888,61.978 C31.640,60.741 29.621,60.742 28.374,61.977 C28.374,61.978 28.374,61.978 28.374,61.978 C28.373,61.978 28.373,61.979 28.373,61.979 L23.859,66.454 C23.859,66.454 23.858,66.454 23.858,66.454 C23.858,66.455 23.857,66.455 23.856,66.456 C22.613,67.690 22.613,69.699 23.857,70.933 ZM16.362,58.965 C16.360,58.967 16.358,58.969 16.356,58.972 C16.352,58.975 16.348,58.980 16.343,58.984 C16.340,58.987 16.337,58.991 16.333,58.994 C15.084,60.232 15.084,62.233 16.332,63.469 C17.588,64.715 19.606,64.703 20.846,63.471 L25.363,58.995 C25.363,58.994 25.363,58.994 25.364,58.993 C26.609,57.759 26.613,55.756 25.364,54.517 C24.114,53.278 22.095,53.279 20.849,54.516 C17.368,57.968 16.520,58.809 16.362,58.965 ZM32.225,13.564 L21.689,24.012 C20.857,24.836 19.510,24.836 18.678,24.012 C17.847,23.188 17.847,21.851 18.678,21.027 L29.215,10.579 L26.205,7.593 L5.134,28.488 L17.084,40.337 L38.155,19.445 L32.225,13.564 ZM41.918,21.682 L19.395,44.015 L20.563,49.807 C23.195,48.861 26.260,49.436 28.373,51.532 C29.769,52.916 30.576,54.787 30.553,56.832 C32.599,56.811 34.489,57.596 35.898,58.993 C37.310,60.394 38.098,62.270 38.077,64.293 C40.124,64.273 42.014,65.058 43.424,66.456 C44.811,67.832 45.624,69.696 45.603,71.760 C47.536,71.740 49.476,72.458 50.948,73.917 C53.869,76.820 53.853,81.479 50.949,84.364 L50.196,85.111 L53.958,88.842 C55.207,90.081 57.226,90.081 58.473,88.843 C59.718,87.608 59.718,85.600 58.474,84.366 L56.215,82.127 C55.384,81.303 55.384,79.966 56.215,79.142 C57.047,78.317 58.394,78.317 59.226,79.142 L61.484,81.381 C62.729,82.615 64.755,82.615 66.001,81.380 C67.244,80.147 67.244,78.138 65.999,76.902 L63.742,74.666 C62.911,73.842 62.910,72.506 63.741,71.681 C64.572,70.857 65.919,70.856 66.751,71.680 L69.009,73.917 C69.010,73.918 69.010,73.918 69.011,73.919 C70.258,75.156 72.276,75.156 73.523,73.919 C74.768,72.684 74.768,70.676 73.524,69.441 L71.266,67.202 C70.435,66.378 70.435,65.042 71.266,64.217 C72.097,63.393 73.445,63.393 74.276,64.217 L76.534,66.457 C76.534,66.457 76.535,66.457 76.535,66.457 C77.779,67.691 79.805,67.690 81.051,66.456 C82.294,65.222 82.295,63.213 81.050,61.978 L78.799,59.746 C78.795,59.742 78.791,59.738 78.787,59.735 L64.733,45.798 C60.089,48.003 54.211,47.303 50.196,43.322 C49.367,42.500 48.015,42.500 47.184,43.323 L41.919,48.546 C39.004,51.436 34.296,51.435 31.383,48.546 C28.478,45.666 28.478,40.980 31.383,38.100 L45.682,23.921 C45.880,23.724 46.116,23.568 46.376,23.462 L48.462,22.609 L41.918,21.682 ZM48.391,27.204 L34.393,41.085 C33.148,42.319 33.148,44.327 34.393,45.561 C35.643,46.801 37.659,46.801 38.909,45.561 L44.174,40.338 C46.667,37.870 50.718,37.870 53.206,40.338 C56.168,43.275 60.688,43.559 63.946,41.397 C65.000,40.702 65.428,40.115 66.751,38.845 C67.583,38.021 68.930,38.021 69.762,38.845 C70.593,39.670 70.593,41.006 69.762,41.830 L68.257,43.322 L79.954,54.922 L89.062,41.187 L67.210,19.517 L48.391,27.204 ZM82.762,5.090 L79.753,8.074 L90.288,18.521 C91.120,19.346 91.120,20.682 90.288,21.507 C89.457,22.331 88.110,22.331 87.278,21.507 L76.743,11.059 L70.722,17.029 L91.793,37.925 L103.833,25.985 L82.762,5.090 ZM96.307,24.493 C97.139,25.316 97.139,26.652 96.307,27.477 C95.477,28.301 94.130,28.301 93.298,27.477 C92.468,26.652 92.468,25.316 93.298,24.493 C94.130,23.668 95.477,23.668 96.307,24.493 ZM12.659,29.981 C11.827,29.157 11.827,27.819 12.659,26.996 C13.489,26.171 14.837,26.171 15.669,26.996 C16.499,27.819 16.499,29.157 15.669,29.981 C14.837,30.806 13.489,30.806 12.659,29.981 Z"/>
</svg>
