<?xml version="1.0" encoding="UTF-8"?><!DOCTYPE svg PUBLIC "-//W3C//DTD SVG 1.1//EN" "http://www.w3.org/Graphics/SVG/1.1/DTD/svg11.dtd"><svg xmlns="http://www.w3.org/2000/svg"><symbol id="icon-advantages1" viewBox="0 0 42 37">
    <path fill-rule="evenodd" d="M40.777 4.934l-.008-.001H29.613V3.7A3.7 3.7 0 0 0 25.922 0h-9.844a3.7 3.7 0 0 0-3.691 3.7v1.233H1.23C.545 4.933 0 5.496 0 6.167V33.3A3.7 3.7 0 0 0 3.691 37h34.618A3.7 3.7 0 0 0 42 33.3V6.193v-.005c-.047-.81-.544-1.25-1.223-1.254zM14.848 3.7c0-.68.552-1.234 1.23-1.234h9.844c.678 0 1.23.554 1.23 1.234v1.233H14.848V3.7zm24.214 3.7l-3.821 11.49a1.23 1.23 0 0 1-1.167.843h-6.922V18.5c0-.681-.551-1.234-1.23-1.234h-9.844c-.68 0-1.23.553-1.23 1.234v1.233H7.926c-.53 0-1-.339-1.167-.843L2.938 7.4h36.124zM24.691 19.733V22.2h-7.382v-2.467h7.382zM39.539 33.3c0 .68-.552 1.233-1.23 1.233H3.691c-.678 0-1.23-.553-1.23-1.233V13.767l1.963 5.903a3.688 3.688 0 0 0 3.502 2.53h6.922v1.233c0 .681.55 1.233 1.23 1.233h9.844c.679 0 1.23-.552 1.23-1.233V22.2h6.922a3.688 3.688 0 0 0 3.502-2.53l1.963-5.903V33.3z"/>
</symbol><symbol id="icon-advantages2" viewBox="0 0 41 56">
    <path fill-rule="evenodd" d="M40.767 20.937l-3.052 3.891.676 4.878c.068.495-.211.973-.678 1.161l-4.611 1.861-1.882 4.559a1.108 1.108 0 0 1-1.174.67l-1.804-.244v17.193c0 .442-.269.841-.683 1.01a1.115 1.115 0 0 1-1.205-.237l-5.856-5.789-5.855 5.789a1.116 1.116 0 0 1-1.206.237 1.094 1.094 0 0 1-.683-1.01V37.713l-1.803.244c-.5.069-.984-.207-1.175-.67l-1.882-4.559-4.61-1.86a1.092 1.092 0 0 1-.678-1.162l.675-4.878L.23 20.937a1.082 1.082 0 0 1 0-1.34l3.051-3.891-.676-4.878a1.094 1.094 0 0 1 .678-1.161l4.611-1.862 1.882-4.558a1.11 1.11 0 0 1 1.175-.67l4.933.668L19.82.227a1.116 1.116 0 0 1 1.356 0l3.936 3.018 4.934-.668c.5-.068.983.208 1.174.67l1.882 4.558 4.611 1.862c.468.189.746.666.678 1.161l-.676 4.878 3.052 3.89c.309.395.309.946 0 1.341zm-25.8 31.328l4.749-4.695a1.115 1.115 0 0 1 1.564 0l4.75 4.695V37.413l-.918-.124-3.936 3.017a1.113 1.113 0 0 1-1.356 0l-3.936-3.017-.917.124v14.852zm20.715-35.582a1.078 1.078 0 0 1-.222-.819l.622-4.492-4.247-1.715a1.101 1.101 0 0 1-.606-.6L29.496 4.86l-4.544.615a1.115 1.115 0 0 1-.828-.219l-3.626-2.78-3.625 2.78c-.235.18-.533.259-.828.219l-4.544-.615-1.734 4.197a1.104 1.104 0 0 1-.606.6l-4.247 1.715.623 4.492c.04.292-.04.587-.222.819l-2.811 3.584 2.811 3.584c.182.233.262.528.222.819l-.623 4.493 4.247 1.713c.275.111.494.327.606.6l1.734 4.199 4.544-.616c.297-.04.594.041.828.219l3.625 2.78 3.626-2.779c.235-.18.532-.259.828-.22l2.046.278c.206-.026.397.004.57.077l1.928.261 1.733-4.199c.113-.272.331-.488.606-.599l4.247-1.714-.622-4.493a1.084 1.084 0 0 1 .221-.819l2.811-3.584-2.81-3.584zm-21.748 2.022c.13-.396.476-.685.893-.745l3.233-.464 1.446-2.897c.186-.373.571-.61.992-.61.421 0 .806.237.992.61l1.445 2.897 3.234.464c.416.06.763.349.893.744.13.397.021.831-.28 1.122l-2.34 2.255.553 3.184c.071.411-.1.826-.44 1.07a1.114 1.114 0 0 1-1.165.083l-2.892-1.503-2.892 1.503a1.115 1.115 0 0 1-1.165-.083 1.088 1.088 0 0 1-.441-1.07l.553-3.184-2.34-2.255a1.084 1.084 0 0 1-.279-1.121zm4.58 2.211c.26.252.379.614.318.968l-.272 1.567 1.423-.74a1.115 1.115 0 0 1 1.03 0l1.422.739-.271-1.566a1.085 1.085 0 0 1 .318-.968l1.151-1.109-1.591-.229a1.102 1.102 0 0 1-.833-.598l-.711-1.425-.712 1.425a1.102 1.102 0 0 1-.832.598l-1.591.229 1.151 1.109zm1.984 12.476c-7.523 0-13.63-6.224-13.258-13.79.012-.224.029-.444.05-.658a1.101 1.101 0 0 1 1.209-.982c.608.059 1.053.594.993 1.195-.018.183-.033.371-.043.557-.31 6.316 4.792 11.491 11.049 11.491 6.13 0 11.063-4.927 11.063-10.938 0-6.031-4.963-10.938-11.063-10.938-2.653 0-5.288.92-7.501 2.905a1.115 1.115 0 0 1-1.563-.072 1.085 1.085 0 0 1 .073-1.545c.072-.043 3.437-3.476 8.991-3.476 7.32 0 13.275 5.888 13.275 13.126 0 7.188-5.901 13.125-13.275 13.125zM9.435 15.891a1.095 1.095 0 0 1-1.106-1.093 1.1 1.1 0 0 1 1.106-1.094c.268 0 .515.094.706.25.245.203.401.504.401.844a1.1 1.1 0 0 1-1.107 1.093z"/>
</symbol><symbol id="icon-advantages3" viewBox="0 0 57 52">
    <path fill-rule="evenodd" d="M56.439 6.57l-6.097 3.328a1.106 1.106 0 0 1-1.489-.416 1.063 1.063 0 0 1 .424-1.46l6.098-3.328a1.105 1.105 0 0 1 1.488.416 1.062 1.062 0 0 1-.424 1.46zM44.067 30.456l-20.961 4.033 1.423 2.417a1.062 1.062 0 0 1-.4 1.466l-2.843 1.61 3.283 5.578c1.211 2.055.491 4.678-1.602 5.865-2.115 1.199-4.791.45-5.98-1.572l-5.511-9.363c-3.463 1.36-7.542.067-9.477-3.22-2.117-3.595-.851-8.194 2.804-10.263l9.294-5.263L28.392 3.883a3.27 3.27 0 0 1 2.764-1.485l.042.001A3.266 3.266 0 0 1 34 4.008l4.038 6.859 4.21-.247c.412-.024.806.182 1.013.534l2.189 3.718c.207.353.194.789-.035 1.128l-2.324 3.453 3.637 6.178c1.229 2.086-.229 4.695-2.661 4.825zm-21.98 6.593l-1.094-1.859-1.896 1.074 1.094 1.859 1.896-1.074zM18.883 48.78c.597 1.016 1.937 1.382 2.989.786a2.124 2.124 0 0 0 .802-2.932l-5.472-9.297-3.791 2.147 5.472 9.296zM5.897 28.866c-1.688.956-2.737 2.739-2.737 4.653 0 .937.254 1.863.735 2.678 1.508 2.562 4.861 3.444 7.474 1.965l8.529-4.831-5.471-9.295-8.53 4.83zM28.391 7.36L16.145 22.662l5.805 9.861 19.091-3.672L28.391 7.36zm14.825 8.011l-1.512-2.569-2.443.144 2.607 4.428 1.348-2.003zm1.617 11.334L32.104 5.081a1.08 1.08 0 0 0-.933-.536 1.077 1.077 0 0 0-.948.515c-.056.09-.093.124-.375.481l13.464 22.873c.382-.07.451-.097.6-.1.831-.02 1.335-.905.921-1.609zm-28.872 6.377a1.105 1.105 0 0 1-1.495-.393 1.062 1.062 0 0 1 .401-1.466 1.106 1.106 0 0 1 1.494.393c.302.513.123 1.17-.4 1.466zm-3.791 2.147l-1.895 1.073c-1.575.892-3.584.352-4.485-1.178a1.063 1.063 0 0 1 .401-1.467 1.106 1.106 0 0 1 1.494.393c.302.513.973.689 1.495.393l1.896-1.073a1.106 1.106 0 0 1 1.495.393 1.063 1.063 0 0 1-.401 1.466zM45.091 5.498a1.098 1.098 0 0 1-1.341.759 1.072 1.072 0 0 1-.774-1.315L44.111.794a1.096 1.096 0 0 1 1.34-.758c.584.153.93.742.773 1.314l-1.133 4.148zm5.417 9.202l4.228 1.11c.584.154.93.742.774 1.315a1.097 1.097 0 0 1-1.34.759l-4.229-1.111a1.072 1.072 0 0 1-.774-1.315 1.097 1.097 0 0 1 1.341-.758z"/>
</symbol><symbol id="icon-advantages4" viewBox="0 0 50 50">
    <path fill-rule="evenodd" d="M47.5 37.497H37.208l6.365 10.608a1.248 1.248 0 0 1-1.073 1.892 1.25 1.25 0 0 1-1.072-.607l-5.178-8.629v7.987a1.25 1.25 0 1 1-2.5 0v-7.987l-5.177 8.63a1.245 1.245 0 0 1-1.714.43 1.246 1.246 0 0 1-.43-1.714l6.365-10.608H22.5a2.5 2.5 0 0 1-2.499-2.5v-3.596l2.499.624v2.972h25V15h-25v3.159l-2.499-1.25V15a2.5 2.5 0 0 1 2.499-2.5h25A2.5 2.5 0 0 1 50 15v19.997a2.5 2.5 0 0 1-2.5 2.5zM10.001 15c-4.136 0-7.5-3.363-7.5-7.499 0-4.136 3.364-7.5 7.5-7.501 4.135 0 7.5 3.364 7.5 7.5s-3.365 7.5-7.5 7.5zm0-12.499a5 5 0 1 0 0 10 5 5 0 0 0 0-10zm-5 14.999h10c.388 0 .771.091 1.118.264l10 5c.23.116.431.268.611.443l15.426-4.408a1.24 1.24 0 0 1 1.545.857 1.248 1.248 0 0 1-.857 1.545L27.5 25.585v1.914a2.5 2.5 0 0 1-3.105 2.426l-7.225-1.806-2.184 19.656a2.5 2.5 0 0 1-2.485 2.223h-5a2.499 2.499 0 0 1-2.492-2.302l-.911-11.447H2.501a2.5 2.5 0 0 1-2.46-2.947l2.5-13.749a2.5 2.5 0 0 1 2.46-2.053zm1.406 16.249l1.094 13.75h5L15.001 25 25 27.5V25l-9.999-5h-3.75v7.605a1.25 1.25 0 1 1-2.5 0V20h-3.75l-2.5 13.749h3.906z"/>
</symbol><symbol id="icon-advantages5" viewBox="0 0 58 41">
    <path fill-rule="evenodd" d="M57.033 36.232h-4.931C51.639 38.933 49.268 41 46.4 41s-5.239-2.067-5.702-4.768H19.236C18.772 38.933 16.401 41 13.533 41c-2.867 0-5.239-2.067-5.702-4.768H.967A.96.96 0 0 1 0 35.279V4.767a.96.96 0 0 1 .967-.953H37.7a.96.96 0 0 1 .967.953v5.721h9.666a.97.97 0 0 1 .813.438l8.7 13.349a.937.937 0 0 1 .154.516v10.488a.959.959 0 0 1-.967.953zm-43.5 2.861c2.133 0 3.867-1.711 3.867-3.814 0-2.103-1.734-3.814-3.867-3.814-2.132 0-3.866 1.71-3.866 3.814 0 2.103 1.734 3.814 3.866 3.814zm23.2-6.674H20.3v-1.908h16.433V9.535H3.867V7.628h32.866V5.721h-34.8v24.79h4.834v1.908H1.933v1.906h5.898c.464-2.7 2.835-4.767 5.702-4.767 2.868 0 5.239 2.067 5.703 4.767h17.497v-1.906zm9.667 6.674c2.133 0 3.867-1.711 3.867-3.814 0-2.103-1.734-3.814-3.867-3.814-2.132 0-3.867 1.71-3.867 3.814 0 2.103 1.734 3.814 3.867 3.814zm3.867-22.921v.037h-7.734v6.674h12.108l-4.374-6.711zm5.8 16.247h-2.9v-1.908h2.9v-5.44l-.183-.281H41.567a.959.959 0 0 1-.967-.953v-8.581a.96.96 0 0 1 .967-.954h7.481l-1.243-1.907h-9.138v21.93h2.031c.463-2.7 2.834-4.767 5.702-4.767s5.239 2.067 5.702 4.767h3.965v-1.906zm-8.7 3.813h-1.934v-1.907h1.934v1.907zm-32.867 0h-1.933v-1.907H14.5v1.907zM3.867 0H17.4v1.907H3.867V0zM0 0h1.933v1.907H0V0z"/>
</symbol><symbol id="icon-advantages6" viewBox="0 0 54 54">
    <path fill-rule="evenodd" d="M48.251 6.21c1.976 2.609 1.983 6.19.081 8.743l3.744 3.638.011.011a3.102 3.102 0 0 1 0 4.391L22.866 52.089a3.105 3.105 0 0 1-4.391-.002l-4.105-4.105a7.357 7.357 0 0 1-9.355-9.355L.91 34.522a3.105 3.105 0 0 1 0-4.393L30.002.911A3.103 3.103 0 0 1 34.395.91l.011.01 3.639 3.745c2.57-1.909 6.15-1.877 8.742.081L51.23.303a1.034 1.034 0 1 1 1.463 1.464L48.251 6.21zm-1.483 1.482L45.25 9.21a3.107 3.107 0 0 1-5 3.536 3.11 3.11 0 0 1 0-4.392 3.112 3.112 0 0 1 3.535-.606l1.518-1.518c-2.044-1.376-4.819-1.186-6.59.586a1.034 1.034 0 0 1-1.475-.011l-4.311-4.436a1.035 1.035 0 0 0-1.459.004L2.375 31.592a1.037 1.037 0 0 0-.001 1.466l4.59 4.59c.309.309.391.777.205 1.172-.934 1.991-.508 4.381 1.06 5.947 1.567 1.568 3.957 1.994 5.948 1.06a1.035 1.035 0 0 1 1.171.205l4.591 4.591a1.037 1.037 0 0 0 1.465 0l29.22-29.096c.4-.399.405-1.051.003-1.457l-4.436-4.312a1.032 1.032 0 0 1-.011-1.474c1.795-1.794 1.952-4.571.588-6.592zm-3.59 2.126a1.036 1.036 0 1 0-1.463 1.464 1.036 1.036 0 0 0 1.463-1.464zm3.66 12.443L22.135 46.963a1.033 1.033 0 0 1-1.463 0L6.034 32.325a1.034 1.034 0 0 1 0-1.464l7.979-7.979a1.036 1.036 0 0 1 1.464 1.463l-7.248 7.248 13.175 13.174 23.238-23.238L31.468 8.354 21.332 18.49a1.036 1.036 0 0 1-1.464-1.464L30.736 6.158a1.034 1.034 0 0 1 1.463 0l14.639 14.639c.404.404.404 1.06 0 1.464zm-22.578.621a3.102 3.102 0 0 1 0-4.391 3.102 3.102 0 0 1 4.391 0 3.108 3.108 0 0 1 0 4.391 3.108 3.108 0 0 1-4.391 0zm2.928-2.927a1.035 1.035 0 1 0-1.465 1.463 1.035 1.035 0 0 0 1.465-1.463zm1.463 10.246a3.109 3.109 0 0 1 0 4.392 3.103 3.103 0 0 1-4.391 0 3.103 3.103 0 0 1 0-4.392 3.103 3.103 0 0 1 4.391 0zm-2.928 2.928a1.035 1.035 0 1 0 1.465-1.463 1.035 1.035 0 0 0-1.465 1.463zm9.066-8.255a1.035 1.035 0 0 1-.812 1.218L19.339 29.02a1.034 1.034 0 1 1-.406-2.03l14.638-2.928a1.035 1.035 0 0 1 1.218.812zM16.94 21.418a1.034 1.034 0 1 1 1.464-1.466 1.034 1.034 0 0 1-1.464 1.466z"/>
</symbol><symbol id="icon-advantages7" viewBox="0 0 53 33">
    <path fill-rule="evenodd" d="M51.896 24.199h-6.625c-.497 0-.932-.33-1.065-.807a33.494 33.494 0 0 0-.297-.995l-1.757 1.175c.236 1.234-.18 2.472-1.188 3.331-.748.64-1.654.951-2.532.904-.319.795-.959 1.475-1.844 1.919-.906.453-1.902.583-2.772.398a4.347 4.347 0 0 1-2.299 2.115c-.85.33-1.733.327-2.511.026-.58.486-1.417.735-2.506.735-1.356 0-3.107-.748-3.92-1.281-.985-.644-5.927-4.347-10.039-7.777-.685-.572-1.703-1.633-2.688-2.658-.29-.302-.563-.586-.816-.847-.143.448-.237.735-.259.803a1.103 1.103 0 0 1-1.049.759H1.104A1.103 1.103 0 0 1 0 20.899V1.097A1.1 1.1 0 0 1 1.17-.001c2.275.134 9.843.713 11.735 2.499.246.229.369.559.341.894-.028.317-.068.655-.115 1.005h8.844c2.843-2.232 5.412-2.778 9.392-1.005a121.09 121.09 0 0 0 6.346 2.592 1.1 1.1 0 0 1-.088-.799c.089-.302.303-.55.59-.684.201-.093 5.011-2.304 13.681-2.304.609 0 1.104.491 1.104 1.1v19.802c0 .607-.495 1.1-1.104 1.1zM2.208 2.276v17.523h4.715c.822-2.583 3.469-11.144 4.055-15.963-1.392-.673-5.221-1.28-8.77-1.56zm10.556 4.321c-.734 3.787-2.067 8.437-2.99 11.471.405.378 1.01 1.001 1.676 1.693.901.937 1.921 1.998 2.511 2.493 4.198 3.503 9.059 7.116 9.834 7.624.647.427 1.969.922 2.705.922.221 0 .381-.017.525-.037-1.672-1.569-3.896-3.916-4.644-4.713a1.1 1.1 0 0 1 .053-1.556 1.107 1.107 0 0 1 1.562.053c.629.671 3.851 4.088 5.426 5.41.006.005.008.012.013.017.006.006.014.009.02.014.439.4.929.323 1.267.196.534-.207.969-.66 1.177-1.184-1.833-1.635-5.072-5.117-5.108-5.155a1.099 1.099 0 0 1 .067-1.556 1.11 1.11 0 0 1 1.561.066c.751.815 4.074 4.333 5.397 5.386.011.009.015.021.025.03.012.01.026.015.037.026.276.255 1.014.316 1.72-.04.227-.113.676-.411.801-.893-1.662-1.511-5.766-5.773-6.277-6.304a1.102 1.102 0 0 1 1.594-1.522c2.158 2.241 5.625 5.777 6.475 6.465.328.21.909.093 1.338-.274.298-.253.738-.805.329-1.653-.828-1.716-4.509-4.682-7.756-7.298-1.795-1.445-3.5-2.82-4.763-4.002-.322.13-.565.238-.773.33-.574.258-.956.416-1.658.524-1.701 2.249-3.984 3.036-6.486 2.213-.998-.328-1.67-1.032-1.897-1.982-.528-2.225 1.505-5.253 3.014-6.764h-6.775zm17.7-1.194c-3.909-1.741-5.759-.845-9.348 2.732-1.508 1.503-2.672 3.752-2.44 4.718.033.14.095.288.439.402 1.08.361 2.697.559 4.258-1.767.183-.272.479-.448.808-.481.745-.075.93-.159 1.482-.405.362-.161.822-.368 1.566-.636.4-.143.852-.046 1.155.258 1.208 1.203 3.102 2.73 5.108 4.345 3.045 2.455 6.164 4.977 7.684 7.006l2.025-1.356c-1.135-3.394-2.885-8.266-4.183-11.409-1.145-.408-4.847-1.756-8.554-3.407zm20.328-.992c-5.254.123-8.874 1.102-10.558 1.672 1.724 3.661 4.816 12.519 5.863 15.916h4.695V4.411z"/>
</symbol><symbol id="icon-arrow_small_left" viewBox="0 0 6 10">
    <path fill-rule="evenodd" d="M4.507 9.999L0 5 4.507-.001 6 1.633 2.965 5 6 8.366 4.507 9.999z"/>
</symbol><symbol id="icon-arrow_small_right" viewBox="0 0 6 10">
    <path fill-rule="evenodd" d="M1.493 9.999L6 5 1.493-.001 0 1.633 3.035 5 0 8.366l1.493 1.633z"/>
</symbol><symbol id="icon-calendar" viewBox="0 0 18 18">
    <path fill-rule="evenodd" d="M16.5 18h-15A1.5 1.5 0 0 1 0 16.499V3.186a1.5 1.5 0 0 1 1.5-1.499h2.437V.562a.563.563 0 1 1 1.125 0v1.125h3.375V.562a.564.564 0 0 1 1.125 0v1.125h3.375V.562a.563.563 0 1 1 1.125 0v1.125H16.5A1.5 1.5 0 0 1 18 3.186v13.313A1.5 1.5 0 0 1 16.5 18zm.375-14.814a.375.375 0 0 0-.375-.374h-2.438v1.125a.562.562 0 1 1-1.125 0V2.812H9.562v1.125a.562.562 0 1 1-1.125 0V2.812H5.062v1.125a.562.562 0 1 1-1.125 0V2.812H1.5a.375.375 0 0 0-.375.374v13.313c0 .207.168.376.375.376h15a.376.376 0 0 0 .375-.376V3.186zm-5.063 9.188h2.25v1.688h-2.25v-1.688zm0-2.812h2.25v1.687h-2.25V9.562zm0-2.813h2.25v1.688h-2.25V6.749zm-3.937 5.625h2.25v1.688h-2.25v-1.688zm0-2.812h2.25v1.687h-2.25V9.562zm0-2.813h2.25v1.688h-2.25V6.749zm-3.938 5.625h2.25v1.688h-2.25v-1.688zm0-2.812h2.25v1.687h-2.25V9.562zm0-2.813h2.25v1.688h-2.25V6.749z"/>
</symbol><symbol id="icon-car" viewBox="0 0 46 20">
    <path fill-rule="evenodd" d="M45.059 16.216H40.77a4.813 4.813 0 0 1-1.352 2.414A4.831 4.831 0 0 1 36.036 20a4.827 4.827 0 0 1-3.381-1.371 4.802 4.802 0 0 1-1.352-2.413h-16.86a4.816 4.816 0 0 1-1.351 2.414A4.835 4.835 0 0 1 9.71 20a4.836 4.836 0 0 1-3.383-1.37 4.807 4.807 0 0 1-1.351-2.414H.941A.94.94 0 0 1 0 15.277v-3.353c0-1.392.502-2.739 1.415-3.791a5.814 5.814 0 0 1 3.557-1.946l5.696-.828 7.942-4.028A12.339 12.339 0 0 1 24.175 0h5.372c1.573 0 3.11.295 4.569.879l8.765 3.504A4.935 4.935 0 0 1 46 8.983v6.294a.94.94 0 0 1-.941.939zm-9.022 1.907a2.963 2.963 0 0 0 2.967-2.959 2.963 2.963 0 0 0-2.967-2.96 2.964 2.964 0 0 0-2.968 2.96 2.964 2.964 0 0 0 2.968 2.959zm-26.328 0a2.963 2.963 0 0 0 2.967-2.959 2.963 2.963 0 0 0-2.967-2.96 2.963 2.963 0 0 0-2.967 2.96 2.963 2.963 0 0 0 2.967 2.959zm-7.55-7.635A3.412 3.412 0 0 0 5.098 8.07a3.95 3.95 0 0 0-2.939 2.418zm21.017-8.562a10.448 10.448 0 0 0-3.714 1.078l-4.578 2.322h8.292v-3.4zm6.882-.037a9.63 9.63 0 0 0-.511-.012h-4.49v3.449h7.647l-2.646-3.437zm3.358.732a10.58 10.58 0 0 0-.587-.214l2.248 2.919h5.105l-6.766-2.705zm10.703 6.362c0-.656-.206-1.272-.567-1.78h-1.103v1.221a1.24 1.24 0 0 0 1.24 1.238h.43v-.679zm0 2.556h-.43a3.123 3.123 0 0 1-3.122-3.115V7.203H11.03l-3.956.575a5.287 5.287 0 0 1-5.193 4.602v1.959h3.052a4.853 4.853 0 0 1 4.777-4.012 4.854 4.854 0 0 1 4.777 4.012H31.26a4.852 4.852 0 0 1 4.776-4.012 4.853 4.853 0 0 1 4.777 4.012h3.306v-2.8zm-18.047.17h-6.239a.94.94 0 1 1 0-1.876h6.239c.52 0 .941.42.941.938a.94.94 0 0 1-.941.938zM9.709 13.92c.689 0 1.247.557 1.247 1.244 0 .687-.558 1.244-1.247 1.244a1.246 1.246 0 0 1-1.247-1.244c0-.687.558-1.244 1.247-1.244zm26.328 0c.689 0 1.247.557 1.247 1.244 0 .687-.558 1.244-1.247 1.244a1.246 1.246 0 0 1-1.247-1.244c0-.687.558-1.244 1.247-1.244z"/>
</symbol><symbol id="icon-checked" viewBox="0 0 11 8">
    <path fill-rule="evenodd" d="M4.404 7.999L-.001 3.886l1.973-1.841 2.432 2.271L9.028 0l1.973 1.841-6.597 6.158z"/>
</symbol><symbol id="icon-clock" viewBox="0 0 18 18">
    <path fill-rule="evenodd" d="M9 18c-4.95 0-9-4.051-9-9C0 4.05 4.05-.001 9-.001S18 4.05 18 9c0 4.949-4.05 9-9 9zM9 1.799c-3.96 0-7.2 3.24-7.2 7.201 0 3.959 3.24 7.199 7.2 7.199s7.2-3.24 7.2-7.199c0-3.961-3.24-7.201-7.2-7.201zm-.9 8.1v-5.4h1.35v4.68l4.05 2.43-.72 1.17-4.68-2.88z"/>
</symbol><symbol id="icon-facebook" viewBox="0 0 10 19">
    <path d="M9.766.157v2.946H8.014c-.64 0-1.071.134-1.295.402-.223.268-.335.67-.335 1.205v2.11h3.27l-.435 3.303H6.384v8.471H2.97v-8.47H.123V6.82H2.97V4.387c0-1.384.387-2.457 1.161-3.22C4.904.404 5.934.023 7.222.023c1.093 0 1.941.045 2.544.134z" fill-rule="evenodd"/>
</symbol><symbol id="icon-instagram" viewBox="0 0 512 512">
    <path d="M352 0H160C71.648 0 0 71.648 0 160v192c0 88.352 71.648 160 160 160h192c88.352 0 160-71.648 160-160V160C512 71.648 440.352 0 352 0zm112 352c0 61.76-50.24 112-112 112H160c-61.76 0-112-50.24-112-112V160C48 98.24 98.24 48 160 48h192c61.76 0 112 50.24 112 112v192z"/>
    <path d="M256 128c-70.688 0-128 57.312-128 128s57.312 128 128 128 128-57.312 128-128-57.312-128-128-128zm0 208c-44.096 0-80-35.904-80-80 0-44.128 35.904-80 80-80s80 35.872 80 80c0 44.096-35.904 80-80 80z"/>
    <circle cx="393.6" cy="118.4" r="17.056"/>
</symbol><symbol id="icon-mail" viewBox="0 0 35 24">
    <path fill-rule="evenodd" d="M31.733 24H3.267C1.465 24 0 22.523 0 20.707V3.292C0 1.477 1.465 0 3.267 0h28.466C33.534 0 35 1.477 35 3.292v17.415C35 22.523 33.534 24 31.733 24zm1.089-20.708c0-.605-.488-1.097-1.089-1.097H3.267c-.601 0-1.089.492-1.089 1.097v17.415c0 .605.488 1.098 1.089 1.098h28.466c.601 0 1.089-.493 1.089-1.098V3.292zM18.221 17.017a1.08 1.08 0 0 1-1.439 0L4.725 6.311a1.103 1.103 0 0 1-.097-1.549 1.083 1.083 0 0 1 1.537-.098l11.336 10.067L28.835 4.664a1.083 1.083 0 0 1 1.537.098 1.102 1.102 0 0 1-.097 1.549L18.221 17.017z"/>
</symbol><symbol id="icon-marker" viewBox="0 0 27 39">
    <path fill-rule="evenodd" d="M25.096 20.735L14.653 38.444a1.122 1.122 0 0 1-.957.556h-.009a1.12 1.12 0 0 1-.955-.54L2.015 20.921A13.848 13.848 0 0 1 0 13.711C0 6.15 6.056 0 13.5 0S27 6.15 27 13.711c0 2.478-.658 4.907-1.904 7.024zM13.5 2.27c-6.203 0-11.265 5.141-11.265 11.441 0 2.129.595 4.205 1.692 6.006l9.743 15.945 9.495-16.1a11.546 11.546 0 0 0 1.592-5.851c0-6.3-5.054-11.441-11.257-11.441zm0 18.296c-3.771 0-6.75-3.099-6.75-6.855 0-3.78 3.028-6.856 6.75-6.856s6.75 3.076 6.75 6.856c0 3.715-2.932 6.855-6.75 6.855zm0-11.441c-2.481 0-4.515 2.066-4.515 4.586 0 2.526 2.021 4.585 4.515 4.585 2.534 0 4.507-2.096 4.507-4.585 0-2.52-2.026-4.586-4.507-4.586z"/>
</symbol><symbol id="icon-phone" viewBox="0 0 36 36">
    <path fill-rule="evenodd" d="M34.244 31.034l-1.674 1.544c-4.591 4.573-11.996 4.556-16.568-.016L3.436 20.168c-4.585-4.585-4.584-12.002-.001-16.585l.139-.139 1.533-1.533a3.256 3.256 0 0 1 4.599 0l4.599 4.599a3.256 3.256 0 0 1 0 4.599l-2.09 2.09a2.462 2.462 0 0 0 0 3.484l7.27 7.098.001.001a2.462 2.462 0 0 0 3.484 0l2.09-2.09a3.25 3.25 0 0 1 4.599 0l.013.013 4.579 4.738a3.255 3.255 0 0 1-.007 4.591zM12.006 10.342l.766-.766a1.084 1.084 0 0 0 0-1.534L8.173 3.444a1.085 1.085 0 0 0-1.533 0l-.766.766 6.132 6.132zm12.281 15.175a4.628 4.628 0 0 1-6.333-.2l-7.271-7.1a4.638 4.638 0 0 1-.203-6.335l-6.11-6.11c-3.111 3.737-2.943 9.321.598 12.862l12.566 12.394a9.529 9.529 0 0 0 12.862.599l-6.109-6.11zm8.424 2.451l-4.59-4.749a1.084 1.084 0 0 0-1.528.006l-.766.766 6.168 6.168.729-.671a1.086 1.086 0 0 0-.013-1.52zM18.572 7.672c5.38 0 9.756 4.376 9.756 9.756a1.083 1.083 0 0 1-2.168 0c0-4.184-3.404-7.588-7.588-7.588a1.085 1.085 0 0 1 0-2.168zM31.58 18.511a1.083 1.083 0 0 1-1.084-1.083c0-6.575-5.349-11.924-11.924-11.924a1.085 1.085 0 0 1 0-2.168c7.77 0 14.092 6.321 14.092 14.092 0 .598-.485 1.083-1.084 1.083z"/>
</symbol><symbol id="icon-price" viewBox="0 0 22 22">
    <path fill-rule="evenodd" d="M21.773 12.48l-9.284 9.292a.835.835 0 0 1-.569.228.8.8 0 0 1-.568-.228L.23 10.641a.802.802 0 0 1-.227-.645L.95 1.652A.788.788 0 0 1 1.651.95L9.988.002a.824.824 0 0 1 .644.228l11.122 11.131c.151.152.227.36.246.55a.776.776 0 0 1-.227.569zM9.779 1.633l-7.313.835-.834 7.319 7.56 7.566 8.147-8.154-7.56-7.566zm8.697 8.704l-8.147 8.154 1.591 1.593 8.147-8.154-1.591-1.593zm-11.482-.303a3.003 3.003 0 0 1-2.141-.892 3.022 3.022 0 0 1 0-4.266c.587-.569 1.326-.892 2.141-.892s1.573.323 2.141.892c.568.568.891 1.327.891 2.124 0 .815-.323 1.573-.891 2.142-.587.57-1.326.892-2.141.892zm1.004-4.039a1.417 1.417 0 0 0-2.008 0c-.55.568-.55 1.479 0 2.028.549.532 1.497.532 2.027 0 .265-.284.417-.625.398-1.023 0-.38-.152-.74-.417-1.005z"/>
</symbol><symbol id="icon-step" viewBox="0 0 44 32">
    <path fill-rule="evenodd" d="M42.953 11.508l-.797-.809-.01-.009-9.305-9.472a.848.848 0 0 0-1.214-.001L30.5 2.36c-2.076 2.105-4.833 3.269-7.763 3.279a.854.854 0 0 0-.678.341l-7.677 10.157h-3.941C4.684 16.137 0 20.905 0 26.765v3.485C0 31.215.771 32 1.719 32h31.849a.868.868 0 0 0 .859-.875.868.868 0 0 0-.859-.875H21.929l20.413-13.12a3.607 3.607 0 0 0 1.635-2.661 3.636 3.636 0 0 0-1.024-2.961zM23.169 7.38c3.226-.118 6.246-1.45 8.544-3.78l.52-.527 1.947 1.982c-3.642 3.437-8.342 5.342-13.326 5.388l2.315-3.063zM9.051 18c.036.063.08.123.134.177l4.571 4.654a.849.849 0 0 0 1.216 0 .887.887 0 0 0 0-1.237l-3.642-3.708h3.119l1.696 1.727a.849.849 0 0 0 1.215 0 .885.885 0 0 0 0-1.237l-1.414-1.44 1.807-2.39 3.445 3.507a.848.848 0 0 0 1.215 0 .885.885 0 0 0 0-1.237l-3.603-3.669.72-.953h1.208a21.17 21.17 0 0 0 8.212-1.679 21.455 21.455 0 0 0 6.446-4.222l4.797 4.883-22.694 15.108H1.731c.222-4.198 3.321-7.63 7.32-8.284zm33.218-3.724a1.863 1.863 0 0 1-.844 1.374L18.71 30.25H1.719v-2.216h16.036c.168 0 .331-.05.471-.142l23.21-15.453.304.309c.398.403.591.961.529 1.528z"/>
</symbol><symbol id="icon-time" viewBox="0 0 34 34">
    <path fill-rule="evenodd" d="M16.934 34C7.506 34 0 26.223 0 16.934 0 7.573 7.574 0 16.934 0 26.213 0 34 7.495 34 16.934 34 26.316 26.26 34 16.934 34zm0-32.021c-8.239 0-14.955 6.716-14.955 14.955 0 8.311 6.716 15.087 14.955 15.087 8.312 0 15.087-6.776 15.087-15.087 0-8.239-6.775-14.955-15.087-14.955zm0 28.037c-7.115 0-12.95-5.914-12.95-13.082 0-7.146 5.817-12.95 12.95-12.95 7.173 0 13.082 5.839 13.082 12.95 0 7.162-5.944 13.082-13.082 13.082zm8.532-20.074l-.652.652a.99.99 0 0 1-.704.292c-.88 0-1.334-1.071-.704-1.7l.646-.647a11.111 11.111 0 0 0-6.122-2.518v.952a.995.995 0 1 1-1.993 0v-.951a10.911 10.911 0 0 0-6.011 2.495l.668.669a.995.995 0 1 1-1.408 1.408l-.669-.668a10.911 10.911 0 0 0-2.495 6.011h.951a.996.996 0 0 1 0 1.993h-.952a11.111 11.111 0 0 0 2.518 6.122l.647-.646a.995.995 0 1 1 1.408 1.408l-.652.652a10.848 10.848 0 0 0 5.995 2.511v-.95a.996.996 0 0 1 1.993 0v.949c2.275-.214 4.377-1.15 6.067-2.57l-.592-.592a.996.996 0 0 1 1.409-1.409l.592.592c1.42-1.69 2.356-3.792 2.57-6.067h-.949a.996.996 0 0 1 0-1.993h.95a10.848 10.848 0 0 0-2.511-5.995zm-3.711 11.68a.996.996 0 0 1-1.409 0l-3.984-3.984a.996.996 0 0 1 0-1.409l3.984-3.984a.996.996 0 0 1 1.409 1.408l-3.28 3.281 3.28 3.279a.996.996 0 0 1 0 1.409z"/>
</symbol><symbol id="icon-youtube" viewBox="0 0 176 124">
    <path class="st0" d="M172.3 19.4c-2-7.6-8-13.6-15.6-15.7C143 0 88 0 88 0S33 0 19.2 3.7c-7.6 2-13.5 8-15.6 15.7C0 33.2 0 62 0 62s0 28.8 3.7 42.6c2 7.6 8 13.6 15.6 15.7C33 124 88 124 88 124s55 0 68.8-3.7c7.6-2 13.5-8 15.6-15.7C176 90.8 176 62 176 62s0-28.8-3.7-42.6M70 88.2V35.8L116 62 70 88.2z"/>
</symbol></svg>