<svg
        xmlns="http://www.w3.org/2000/svg"
        xmlns:xlink="http://www.w3.org/1999/xlink"
        viewBox="0 0 63 28"
        width="63px" height="28px">
    <path fill-rule="evenodd"  fill="rgb(255, 255, 255)"
          d="M62.675,14.339 C62.250,14.758 61.561,14.755 61.138,14.332 C55.347,8.550 48.136,4.690 40.280,3.050 C43.535,5.617 45.631,9.567 45.631,13.999 C45.631,21.719 39.291,28.000 31.497,28.000 C23.704,28.000 17.363,21.719 17.363,13.999 C17.363,9.614 19.411,5.697 22.607,3.129 C14.889,4.810 7.808,8.638 2.106,14.331 L1.856,14.581 C1.643,14.793 1.363,14.900 1.084,14.900 C0.807,14.900 0.530,14.795 0.318,14.587 C-0.108,14.169 -0.111,13.487 0.312,13.065 L0.562,12.815 C8.781,4.606 19.719,0.066 31.382,0.005 C31.420,0.005 31.458,-0.000 31.497,-0.000 C31.510,-0.000 31.523,0.002 31.537,0.002 C31.566,0.002 31.593,-0.000 31.621,-0.000 C43.374,-0.000 54.404,4.550 62.682,12.815 C63.104,13.237 63.101,13.919 62.675,14.339 ZM31.537,2.154 C31.485,2.154 31.433,2.158 31.381,2.158 C24.841,2.220 19.537,7.506 19.537,13.998 C19.537,20.530 24.903,25.844 31.497,25.844 C38.091,25.844 43.457,20.530 43.457,13.998 C43.457,7.481 38.113,2.177 31.537,2.154 ZM31.526,22.614 C26.731,22.614 22.829,18.749 22.829,13.998 C22.829,9.248 26.731,5.383 31.526,5.383 C32.127,5.383 32.614,5.866 32.614,6.460 C32.614,7.054 32.127,7.537 31.526,7.537 C27.929,7.537 25.003,10.435 25.003,13.998 C25.003,17.562 27.929,20.460 31.526,20.460 C35.124,20.460 38.050,17.562 38.050,13.998 C38.050,13.404 38.537,12.921 39.137,12.921 C39.737,12.921 40.224,13.404 40.224,13.998 C40.224,18.749 36.322,22.614 31.526,22.614 Z"/>
</svg>
