<svg
        xmlns="http://www.w3.org/2000/svg"
        xmlns:xlink="http://www.w3.org/1999/xlink"
        width="31px" height="31px">
    <path fill-rule="evenodd"  fill="rgb(14, 189, 238)"
          d="M29.062,25.833 L27.771,25.833 L27.771,24.541 L29.062,24.541 C29.419,24.541 29.708,24.252 29.708,23.896 L29.708,1.937 C29.708,1.581 29.419,1.291 29.062,1.291 L1.937,1.291 C1.581,1.291 1.292,1.581 1.292,1.937 L1.292,23.896 C1.292,24.252 1.581,24.541 1.937,24.541 L17.437,24.541 L17.437,25.833 L1.937,25.833 C0.867,25.833 -0.000,24.966 -0.000,23.896 L-0.000,1.937 C-0.000,0.867 0.867,-0.000 1.937,-0.000 L29.062,-0.000 C30.132,-0.000 31.000,0.867 31.000,1.937 L31.000,23.896 C31.000,24.966 30.132,25.833 29.062,25.833 ZM9.042,6.458 L21.958,6.458 C22.315,6.458 22.604,6.747 22.604,7.104 L22.604,9.687 C22.604,10.044 22.315,10.333 21.958,10.333 L9.042,10.333 C8.685,10.333 8.396,10.044 8.396,9.687 L8.396,7.104 C8.396,6.747 8.685,6.458 9.042,6.458 ZM9.687,9.042 L21.312,9.042 L21.312,7.750 L9.687,7.750 L9.687,9.042 ZM7.750,12.271 L9.042,12.271 L9.042,13.562 L7.750,13.562 L7.750,12.271 ZM11.625,12.271 L11.625,13.562 L10.333,13.562 L10.333,12.271 L11.625,12.271 ZM15.500,16.146 L7.750,16.146 L7.750,14.854 L15.500,14.854 L15.500,16.146 ZM4.521,22.604 L3.229,22.604 L3.229,21.312 L4.521,21.312 L4.521,22.604 ZM3.229,3.229 L4.521,3.229 L4.521,4.521 L3.229,4.521 L3.229,3.229 ZM26.479,3.229 L27.771,3.229 L27.771,4.521 L26.479,4.521 L26.479,3.229 ZM27.771,12.917 L26.479,12.917 L26.479,7.696 C24.854,7.418 23.581,6.146 23.304,4.521 L7.696,4.521 C7.419,6.146 6.146,7.418 4.521,7.696 L4.521,18.137 C6.146,18.414 7.419,19.687 7.696,21.312 L15.500,21.312 L15.500,22.604 L7.104,22.604 C6.747,22.604 6.458,22.315 6.458,21.958 C6.458,20.531 5.302,19.375 3.875,19.375 C3.518,19.375 3.229,19.086 3.229,18.729 L3.229,7.104 C3.229,6.747 3.518,6.458 3.875,6.458 C5.302,6.458 6.458,5.302 6.458,3.875 C6.458,3.518 6.747,3.229 7.104,3.229 L23.896,3.229 C24.252,3.229 24.542,3.518 24.542,3.875 C24.542,5.302 25.698,6.458 27.125,6.458 C27.482,6.458 27.771,6.747 27.771,7.104 L27.771,12.917 ZM22.604,13.562 C25.814,13.562 28.417,16.165 28.417,19.375 C28.415,21.088 27.659,22.611 26.479,23.675 L26.479,30.354 C26.479,30.711 26.190,31.000 25.833,31.000 C25.687,31.000 25.544,30.950 25.430,30.858 L22.604,28.598 L19.779,30.858 C19.500,31.081 19.094,31.036 18.871,30.758 C18.779,30.643 18.729,30.501 18.729,30.354 L18.729,23.679 C17.548,22.615 16.792,21.090 16.792,19.375 C16.792,16.165 19.394,13.562 22.604,13.562 ZM20.021,29.010 L22.201,27.266 C22.436,27.077 22.772,27.077 23.008,27.266 L25.187,29.010 L25.187,24.554 C24.406,24.945 23.537,25.186 22.604,25.187 C21.671,25.187 20.802,24.947 20.021,24.556 L20.021,29.010 ZM22.604,23.896 C25.101,23.896 27.125,21.872 27.125,19.375 C27.122,16.879 25.100,14.857 22.604,14.854 C20.107,14.854 18.083,16.878 18.083,19.375 C18.083,21.872 20.107,23.896 22.604,23.896 ZM22.604,16.146 C24.388,16.146 25.833,17.591 25.833,19.375 C25.831,21.157 24.387,22.602 22.604,22.604 C20.821,22.604 19.375,21.158 19.375,19.375 C19.375,17.591 20.821,16.146 22.604,16.146 ZM22.604,21.312 C23.674,21.312 24.542,20.445 24.542,19.375 C24.542,18.305 23.674,17.437 22.604,17.437 C21.534,17.437 20.667,18.305 20.667,19.375 C20.667,20.445 21.534,21.312 22.604,21.312 Z"/>
</svg>
