<?xml version="1.0" encoding="UTF-8"?><!DOCTYPE svg PUBLIC "-//W3C//DTD SVG 1.1//EN" "http://www.w3.org/Graphics/SVG/1.1/DTD/svg11.dtd"><svg xmlns="http://www.w3.org/2000/svg" xmlns:xlink="http://www.w3.org/1999/xlink" xmlns:sketch="http://www.bohemiancoding.com/sketch/ns"><symbol id="icon-advantages1" viewBox="0 0 42 37">
    <path fill-rule="evenodd" d="M40.777,4.934 C40.775,4.934 40.772,4.933 40.769,4.933 L29.613,4.933 L29.613,3.700 C29.613,1.660 27.957,-0.000 25.922,-0.000 L16.078,-0.000 C14.043,-0.000 12.387,1.660 12.387,3.700 L12.387,4.933 L1.230,4.933 C0.545,4.933 -0.000,5.496 -0.000,6.167 L-0.000,33.300 C-0.000,35.340 1.656,37.000 3.691,37.000 L38.309,37.000 C40.344,37.000 42.000,35.340 42.000,33.300 L42.000,6.193 C42.000,6.191 42.000,6.189 42.000,6.188 C41.953,5.378 41.456,4.938 40.777,4.934 ZM14.848,3.700 C14.848,3.020 15.400,2.466 16.078,2.466 L25.922,2.466 C26.600,2.466 27.152,3.020 27.152,3.700 L27.152,4.933 L14.848,4.933 L14.848,3.700 ZM39.062,7.400 L35.241,18.890 C35.073,19.394 34.604,19.733 34.074,19.733 L27.152,19.733 L27.152,18.500 C27.152,17.819 26.601,17.266 25.922,17.266 L16.078,17.266 C15.398,17.266 14.848,17.819 14.848,18.500 L14.848,19.733 L7.926,19.733 C7.396,19.733 6.926,19.394 6.759,18.890 L2.938,7.400 L39.062,7.400 ZM24.691,19.733 L24.691,22.200 L17.309,22.200 L17.309,19.733 L24.691,19.733 ZM39.539,33.300 C39.539,33.980 38.987,34.533 38.309,34.533 L3.691,34.533 C3.013,34.533 2.461,33.980 2.461,33.300 L2.461,13.767 L4.424,19.670 C4.927,21.183 6.335,22.200 7.926,22.200 L14.848,22.200 L14.848,23.433 C14.848,24.114 15.398,24.666 16.078,24.666 L25.922,24.666 C26.601,24.666 27.152,24.114 27.152,23.433 L27.152,22.200 L34.074,22.200 C35.665,22.200 37.073,21.183 37.576,19.670 L39.539,13.767 L39.539,33.300 Z"/>
</symbol><symbol id="icon-advantages2" viewBox="0 0 41 56">
    <path fill-rule="evenodd" d="M40.767,20.937 L37.715,24.828 L38.391,29.706 C38.459,30.201 38.180,30.679 37.713,30.867 L33.102,32.728 L31.220,37.287 C31.029,37.749 30.546,38.025 30.046,37.957 L28.242,37.713 L28.242,54.906 C28.242,55.348 27.973,55.747 27.559,55.916 C27.146,56.085 26.670,55.992 26.354,55.679 L20.498,49.890 L14.643,55.679 C14.327,55.992 13.851,56.085 13.437,55.916 C13.024,55.747 12.754,55.348 12.754,54.906 L12.754,37.713 L10.951,37.957 C10.451,38.026 9.967,37.750 9.776,37.287 L7.894,32.728 L3.284,30.868 C2.816,30.679 2.537,30.201 2.606,29.706 L3.281,24.828 L0.230,20.937 C-0.080,20.542 -0.080,19.991 0.230,19.597 L3.281,15.706 L2.605,10.828 C2.537,10.334 2.816,9.856 3.283,9.667 L7.894,7.805 L9.776,3.247 C9.967,2.785 10.451,2.509 10.951,2.577 L15.884,3.245 L19.820,0.227 C20.219,-0.079 20.777,-0.079 21.176,0.227 L25.112,3.245 L30.046,2.577 C30.546,2.509 31.029,2.785 31.220,3.247 L33.102,7.805 L37.713,9.667 C38.181,9.856 38.459,10.333 38.391,10.828 L37.715,15.706 L40.767,19.596 C41.076,19.991 41.076,20.542 40.767,20.937 ZM14.967,52.265 L19.716,47.570 C20.148,47.143 20.848,47.143 21.280,47.570 L26.030,52.265 L26.030,37.413 L25.112,37.289 L21.176,40.306 C20.977,40.459 20.737,40.536 20.498,40.536 C20.259,40.536 20.020,40.459 19.820,40.306 L15.884,37.289 L14.967,37.413 L14.967,52.265 ZM35.682,16.683 C35.499,16.451 35.419,16.156 35.460,15.864 L36.082,11.372 L31.835,9.657 C31.560,9.546 31.342,9.330 31.229,9.057 L29.496,4.860 L24.952,5.475 C24.657,5.515 24.359,5.436 24.124,5.256 L20.498,2.476 L16.873,5.256 C16.638,5.436 16.340,5.515 16.045,5.475 L11.501,4.860 L9.767,9.057 C9.655,9.329 9.436,9.545 9.161,9.657 L4.914,11.372 L5.537,15.864 C5.577,16.156 5.497,16.451 5.315,16.683 L2.504,20.267 L5.315,23.851 C5.497,24.084 5.577,24.379 5.537,24.670 L4.914,29.163 L9.161,30.876 C9.436,30.987 9.655,31.203 9.767,31.476 L11.501,35.675 L16.045,35.059 C16.342,35.019 16.639,35.100 16.873,35.278 L20.498,38.058 L24.124,35.279 C24.359,35.099 24.656,35.020 24.952,35.059 L26.998,35.337 C27.204,35.311 27.395,35.341 27.568,35.414 L29.496,35.675 L31.229,31.476 C31.342,31.204 31.560,30.988 31.835,30.877 L36.082,29.163 L35.460,24.670 C35.419,24.379 35.499,24.084 35.681,23.851 L38.492,20.267 L35.682,16.683 ZM13.934,18.705 C14.064,18.309 14.410,18.020 14.827,17.960 L18.060,17.496 L19.506,14.599 C19.692,14.226 20.077,13.989 20.498,13.989 C20.498,13.989 20.498,13.989 20.498,13.989 C20.919,13.989 21.304,14.226 21.490,14.599 L22.935,17.496 L26.169,17.960 C26.585,18.020 26.932,18.309 27.062,18.704 C27.192,19.101 27.083,19.535 26.782,19.826 L24.442,22.081 L24.995,25.265 C25.066,25.676 24.895,26.091 24.555,26.335 C24.212,26.582 23.760,26.611 23.390,26.418 L20.498,24.915 L17.606,26.418 C17.233,26.612 16.781,26.580 16.441,26.335 C16.100,26.091 15.929,25.676 16.000,25.265 L16.553,22.081 L14.213,19.826 C13.912,19.535 13.803,19.101 13.934,18.705 ZM18.514,20.916 C18.774,21.168 18.893,21.530 18.832,21.884 L18.560,23.451 L19.983,22.711 C20.306,22.543 20.691,22.543 21.013,22.711 L22.435,23.450 L22.164,21.884 C22.102,21.530 22.221,21.168 22.482,20.916 L23.633,19.807 L22.042,19.578 C21.681,19.527 21.370,19.303 21.209,18.980 L20.498,17.555 L19.786,18.980 C19.625,19.303 19.314,19.527 18.954,19.578 L17.363,19.807 L18.514,20.916 ZM20.498,33.392 C12.975,33.392 6.868,27.168 7.240,19.602 C7.252,19.378 7.269,19.158 7.290,18.944 C7.350,18.342 7.889,17.902 8.499,17.962 C9.107,18.021 9.552,18.556 9.492,19.157 C9.474,19.340 9.459,19.528 9.449,19.714 C9.139,26.030 14.241,31.205 20.498,31.205 C26.628,31.205 31.561,26.278 31.561,20.267 C31.561,14.236 26.598,9.329 20.498,9.329 C17.845,9.329 15.210,10.249 12.997,12.234 C12.545,12.641 11.846,12.609 11.434,12.162 C11.023,11.716 11.055,11.024 11.507,10.617 C11.579,10.574 14.944,7.141 20.498,7.141 C27.818,7.141 33.773,13.029 33.773,20.267 C33.773,27.455 27.872,33.392 20.498,33.392 ZM9.435,15.891 C9.346,15.891 9.258,15.881 9.174,15.860 C8.690,15.745 8.329,15.314 8.329,14.798 C8.329,14.194 8.825,13.704 9.435,13.704 C9.703,13.704 9.950,13.798 10.141,13.954 C10.386,14.157 10.542,14.458 10.542,14.798 C10.542,15.403 10.046,15.891 9.435,15.891 Z"/>
</symbol><symbol id="icon-advantages3" viewBox="0 0 57 52">
    <path fill-rule="evenodd" d="M56.439,6.570 L50.342,9.898 C49.813,10.187 49.147,9.999 48.853,9.482 C48.559,8.964 48.749,8.311 49.277,8.022 L55.375,4.694 C55.903,4.406 56.570,4.592 56.863,5.110 C57.157,5.628 56.968,6.281 56.439,6.570 ZM44.067,30.456 C24.392,34.242 23.276,34.456 23.106,34.489 L24.529,36.906 C24.832,37.419 24.652,38.075 24.129,38.372 L21.286,39.982 L24.569,45.560 C25.780,47.615 25.060,50.238 22.967,51.425 C20.852,52.624 18.176,51.875 16.987,49.853 L11.476,40.490 C8.013,41.850 3.934,40.557 1.999,37.270 C-0.118,33.675 1.148,29.076 4.803,27.007 L14.097,21.744 L28.392,3.883 C29.000,2.950 30.026,2.398 31.156,2.398 C31.170,2.398 31.184,2.398 31.198,2.399 C32.368,2.413 33.415,3.015 34.000,4.008 L38.038,10.867 L42.248,10.620 C42.660,10.596 43.054,10.802 43.261,11.154 L45.450,14.872 C45.657,15.225 45.644,15.661 45.415,16.000 L43.091,19.453 L46.728,25.631 C47.957,27.717 46.499,30.326 44.067,30.456 ZM22.087,37.049 L20.993,35.190 L19.097,36.264 L20.191,38.123 L22.087,37.049 ZM18.883,48.780 C19.480,49.796 20.820,50.162 21.872,49.566 C22.921,48.971 23.278,47.659 22.674,46.634 C22.572,46.461 23.534,48.096 17.202,37.337 L13.411,39.484 L18.883,48.780 ZM5.897,28.866 C4.209,29.822 3.160,31.605 3.160,33.519 C3.160,34.456 3.414,35.382 3.895,36.197 C5.403,38.759 8.756,39.641 11.369,38.162 L19.898,33.331 L14.427,24.036 L5.897,28.866 ZM28.391,7.360 L16.145,22.662 L21.950,32.523 L41.041,28.851 L28.391,7.360 ZM43.216,15.371 L41.704,12.802 L39.261,12.946 L41.868,17.374 L43.216,15.371 ZM44.833,26.705 L32.104,5.081 C31.823,4.604 31.358,4.547 31.171,4.545 C30.982,4.540 30.516,4.589 30.223,5.060 C30.167,5.150 30.130,5.184 29.848,5.541 L43.312,28.414 C43.694,28.344 43.763,28.317 43.912,28.314 C44.743,28.294 45.247,27.409 44.833,26.705 ZM15.961,33.082 C15.438,33.379 14.768,33.203 14.466,32.689 C14.164,32.177 14.343,31.520 14.867,31.223 C15.390,30.927 16.059,31.103 16.361,31.616 C16.663,32.129 16.484,32.786 15.961,33.082 ZM12.170,35.229 L10.275,36.302 C8.700,37.194 6.691,36.654 5.790,35.124 C5.488,34.611 5.667,33.954 6.191,33.657 C6.714,33.361 7.383,33.537 7.685,34.050 C7.987,34.563 8.658,34.739 9.180,34.443 L11.076,33.370 C11.599,33.073 12.268,33.250 12.571,33.763 C12.873,34.276 12.693,34.932 12.170,35.229 ZM45.091,5.498 C44.934,6.071 44.334,6.410 43.750,6.257 C43.166,6.103 42.820,5.515 42.976,4.942 L44.111,0.794 C44.267,0.222 44.867,-0.118 45.451,0.036 C46.035,0.189 46.381,0.778 46.224,1.350 L45.091,5.498 ZM50.508,14.700 L54.736,15.810 C55.320,15.964 55.666,16.552 55.510,17.125 C55.354,17.693 54.757,18.039 54.170,17.884 L49.941,16.773 C49.357,16.619 49.011,16.031 49.167,15.458 C49.324,14.886 49.924,14.546 50.508,14.700 Z"/>
</symbol><symbol id="icon-advantages4" viewBox="0 0 50 50">
    <path fill-rule="evenodd" d="M47.500,37.497 L37.208,37.497 L43.573,48.105 C43.928,48.696 43.736,49.465 43.143,49.819 C42.942,49.942 42.720,49.997 42.500,49.997 C42.078,49.997 41.663,49.781 41.428,49.390 L36.250,40.761 L36.250,48.748 C36.250,49.439 35.691,49.998 35.000,49.998 C34.309,49.998 33.750,49.439 33.750,48.748 L33.750,40.761 L28.573,49.391 C28.216,49.986 27.445,50.180 26.859,49.821 C26.265,49.466 26.072,48.697 26.429,48.107 L32.794,37.499 L22.500,37.499 C21.120,37.499 20.001,36.380 20.001,34.999 L20.001,31.403 L22.500,32.027 L22.500,34.999 L47.500,34.999 L47.500,15.000 L22.500,15.000 L22.500,18.159 L20.001,16.909 L20.001,15.000 C20.001,13.619 21.120,12.500 22.500,12.500 L47.500,12.500 C48.881,12.500 50.000,13.619 50.000,15.000 L50.000,34.997 C50.000,36.378 48.881,37.497 47.500,37.497 ZM10.001,15.000 C5.865,15.000 2.501,11.637 2.501,7.501 C2.501,3.365 5.865,0.001 10.001,-0.000 C14.136,-0.000 17.501,3.364 17.501,7.500 C17.501,11.636 14.136,15.000 10.001,15.000 ZM10.001,2.501 C7.239,2.501 5.001,4.739 5.001,7.501 C5.001,10.262 7.239,12.501 10.001,12.501 C12.762,12.501 15.001,10.262 15.001,7.501 C15.001,4.739 12.762,2.501 10.001,2.501 ZM5.001,17.500 L15.001,17.500 C15.389,17.500 15.772,17.591 16.119,17.764 L26.119,22.764 C26.349,22.880 26.550,23.032 26.730,23.207 L42.156,18.799 C42.822,18.601 43.513,18.991 43.701,19.656 C43.892,20.319 43.508,21.012 42.844,21.201 L27.500,25.585 L27.500,27.499 C27.500,28.269 27.146,28.996 26.539,29.470 C26.095,29.816 25.552,29.999 25.001,29.999 C24.798,29.999 24.595,29.975 24.395,29.925 L17.170,28.119 L14.986,47.775 C14.845,49.041 13.775,49.998 12.501,49.998 L7.501,49.998 C6.197,49.998 5.112,48.997 5.009,47.696 L4.098,36.249 L2.501,36.249 C1.759,36.249 1.056,35.920 0.581,35.351 C0.106,34.782 -0.092,34.031 0.041,33.302 L2.541,19.553 C2.757,18.364 3.793,17.500 5.001,17.500 ZM6.407,33.749 L7.501,47.499 L12.501,47.499 L15.001,25.000 L25.000,27.500 L25.000,25.000 L15.001,20.000 L11.251,20.000 L11.251,27.605 C11.251,28.296 10.692,28.855 10.001,28.855 C9.310,28.855 8.751,28.296 8.751,27.605 L8.751,20.000 L5.001,20.000 L2.501,33.749 L6.407,33.749 Z"/>
</symbol><symbol id="icon-advantages5" viewBox="0 0 58 41">
    <path fill-rule="evenodd" d="M57.033,36.232 L52.102,36.232 C51.639,38.933 49.268,41.000 46.400,41.000 C43.532,41.000 41.161,38.933 40.698,36.232 L37.701,36.232 C37.700,36.232 37.700,36.232 37.700,36.232 L19.236,36.232 C18.772,38.933 16.401,41.000 13.533,41.000 C10.666,41.000 8.294,38.933 7.831,36.232 L0.967,36.232 C0.433,36.232 -0.000,35.806 -0.000,35.279 L-0.000,4.767 C-0.000,4.241 0.433,3.814 0.967,3.814 L37.700,3.814 C38.235,3.814 38.667,4.241 38.667,4.767 L38.667,10.488 L48.333,10.488 C48.662,10.488 48.968,10.653 49.146,10.926 L57.846,24.275 C57.947,24.428 58.000,24.608 58.000,24.791 L58.000,35.279 C58.000,35.806 57.568,36.232 57.033,36.232 ZM13.533,39.093 C15.666,39.093 17.400,37.382 17.400,35.279 C17.400,33.176 15.666,31.465 13.533,31.465 C11.401,31.465 9.667,33.175 9.667,35.279 C9.667,37.382 11.401,39.093 13.533,39.093 ZM36.733,32.419 L20.300,32.419 L20.300,30.511 L36.733,30.511 L36.733,11.442 L36.733,9.535 L3.867,9.535 L3.867,7.628 L36.733,7.628 L36.733,5.721 L1.933,5.721 L1.933,30.511 L6.767,30.511 L6.767,32.419 L1.933,32.419 L1.933,34.325 L7.831,34.325 C8.295,31.625 10.666,29.558 13.533,29.558 C16.401,29.558 18.772,31.625 19.236,34.325 L36.733,34.325 L36.733,32.419 ZM46.400,39.093 C48.533,39.093 50.267,37.382 50.267,35.279 C50.267,33.176 48.533,31.465 46.400,31.465 C44.268,31.465 42.533,33.175 42.533,35.279 C42.533,37.382 44.267,39.093 46.400,39.093 ZM50.267,16.172 L50.267,16.209 L42.533,16.209 L42.533,22.883 L54.641,22.883 L50.267,16.172 ZM56.067,32.419 L53.167,32.419 L53.167,30.511 L56.067,30.511 L56.067,25.071 L55.884,24.790 L41.567,24.790 C41.032,24.790 40.600,24.364 40.600,23.837 L40.600,15.256 C40.600,14.729 41.032,14.302 41.567,14.302 L49.048,14.302 L47.805,12.395 L38.667,12.395 L38.667,34.325 L40.698,34.325 C41.161,31.625 43.532,29.558 46.400,29.558 C49.268,29.558 51.639,31.625 52.102,34.325 L56.067,34.325 L56.067,32.419 ZM47.367,36.232 L45.433,36.232 L45.433,34.325 L47.367,34.325 L47.367,36.232 ZM14.500,36.232 L12.567,36.232 L12.567,34.325 L14.500,34.325 L14.500,36.232 ZM3.867,-0.000 L17.400,-0.000 L17.400,1.907 L3.867,1.907 L3.867,-0.000 ZM-0.000,-0.000 L1.933,-0.000 L1.933,1.907 L-0.000,1.907 L-0.000,-0.000 Z"/>
</symbol><symbol id="icon-advantages6" viewBox="0 0 54 54">
    <path fill-rule="evenodd" d="M48.251,6.210 C50.227,8.819 50.234,12.400 48.332,14.953 L52.076,18.591 C52.080,18.595 52.083,18.598 52.087,18.602 C53.301,19.815 53.301,21.779 52.087,22.993 L22.866,52.089 C21.655,53.300 19.689,53.301 18.475,52.087 L14.370,47.982 C11.745,48.898 8.770,48.237 6.765,46.231 C4.760,44.227 4.098,41.252 5.015,38.627 L0.910,34.522 C-0.304,33.308 -0.304,31.343 0.910,30.129 L30.002,0.911 C31.224,-0.311 33.188,-0.298 34.395,0.910 C34.399,0.913 34.402,0.917 34.406,0.920 L38.045,4.665 C40.615,2.756 44.195,2.788 46.787,4.746 L51.230,0.303 C51.634,-0.101 52.289,-0.101 52.693,0.303 C53.098,0.707 53.098,1.363 52.693,1.767 L48.251,6.210 ZM46.768,7.692 L45.250,9.210 C45.790,10.338 45.619,11.770 44.643,12.746 C43.429,13.960 41.464,13.959 40.250,12.746 C39.040,11.535 39.040,9.565 40.250,8.354 C41.205,7.400 42.630,7.198 43.785,7.748 L45.303,6.230 C43.259,4.854 40.484,5.044 38.713,6.816 C38.286,7.242 37.625,7.203 37.238,6.805 L32.927,2.369 C32.522,1.969 31.871,1.971 31.468,2.373 L2.375,31.592 C1.970,31.997 1.970,32.654 2.374,33.058 L6.964,37.648 C7.273,37.957 7.355,38.425 7.169,38.820 C6.235,40.811 6.661,43.201 8.229,44.767 C9.796,46.335 12.186,46.761 14.177,45.827 C14.318,45.761 14.468,45.729 14.616,45.729 C14.885,45.729 15.150,45.834 15.348,46.032 L19.939,50.623 C20.343,51.027 21.000,51.027 21.404,50.623 L50.624,21.527 C51.024,21.128 51.029,20.476 50.627,20.070 L46.191,15.758 C45.992,15.565 45.879,15.301 45.877,15.024 C45.875,14.746 45.985,14.480 46.180,14.284 C47.975,12.490 48.132,9.713 46.768,7.692 ZM43.178,9.818 C42.775,9.414 42.118,9.415 41.714,9.818 C41.310,10.221 41.310,10.878 41.714,11.282 C42.119,11.687 42.774,11.687 43.178,11.282 C43.584,10.877 43.582,10.222 43.178,9.818 ZM46.838,22.261 L22.135,46.963 C21.731,47.368 21.076,47.368 20.672,46.963 L6.034,32.325 C5.629,31.921 5.629,31.265 6.034,30.861 L14.013,22.882 C14.417,22.478 15.073,22.478 15.477,22.882 C15.881,23.286 15.881,23.941 15.477,24.345 L8.229,31.593 L21.404,44.767 L44.642,21.529 L31.468,8.354 L21.332,18.490 C20.928,18.894 20.273,18.894 19.868,18.490 C19.464,18.086 19.464,17.430 19.868,17.026 L30.736,6.158 C30.930,5.964 31.193,5.856 31.468,5.856 C31.742,5.856 32.005,5.964 32.199,6.158 L46.838,20.797 C47.242,21.201 47.242,21.857 46.838,22.261 ZM24.260,22.882 C23.046,21.668 23.046,19.704 24.260,18.491 C25.473,17.277 27.438,17.277 28.651,18.491 C29.862,19.702 29.862,21.671 28.651,22.882 C27.440,24.093 25.470,24.093 24.260,22.882 ZM27.188,19.955 C26.783,19.550 26.128,19.550 25.723,19.955 C25.318,20.360 25.319,21.014 25.723,21.418 C26.127,21.822 26.784,21.821 27.188,21.418 C27.591,21.014 27.591,20.358 27.188,19.955 ZM28.651,30.201 C29.862,31.412 29.862,33.382 28.651,34.593 C27.438,35.807 25.473,35.806 24.260,34.593 C23.046,33.379 23.046,31.415 24.260,30.201 C25.473,28.987 27.438,28.988 28.651,30.201 ZM25.723,33.129 C26.128,33.534 26.783,33.534 27.188,33.129 C27.591,32.725 27.591,32.068 27.188,31.665 C26.783,31.260 26.128,31.260 25.723,31.665 C25.318,32.070 25.319,32.725 25.723,33.129 ZM34.789,24.874 C34.901,25.435 34.537,25.980 33.977,26.092 L19.339,29.020 C18.779,29.132 18.233,28.770 18.121,28.208 C18.008,27.648 18.372,27.103 18.933,26.990 L33.571,24.062 C34.131,23.950 34.677,24.313 34.789,24.874 ZM16.940,21.418 C16.535,21.013 16.535,20.358 16.940,19.955 C17.345,19.550 18.000,19.550 18.404,19.955 C18.809,20.358 18.809,21.013 18.404,21.418 C18.000,21.822 17.345,21.822 16.940,21.418 Z"/>
</symbol><symbol id="icon-advantages7" viewBox="0 0 53 33">
    <path fill-rule="evenodd" d="M51.896,24.199 L45.271,24.199 C44.774,24.199 44.339,23.869 44.206,23.392 C44.135,23.133 44.029,22.783 43.909,22.397 L42.152,23.572 C42.388,24.806 41.972,26.044 40.964,26.903 C40.216,27.543 39.310,27.854 38.432,27.807 C38.113,28.602 37.473,29.282 36.588,29.726 C35.682,30.179 34.686,30.309 33.816,30.124 C33.348,31.070 32.522,31.851 31.517,32.239 C30.667,32.569 29.784,32.566 29.006,32.265 C28.426,32.751 27.589,33.000 26.500,33.000 C25.144,33.000 23.393,32.252 22.580,31.719 C21.595,31.075 16.653,27.372 12.541,23.942 C11.856,23.370 10.838,22.309 9.853,21.284 C9.563,20.982 9.290,20.698 9.037,20.437 C8.894,20.885 8.800,21.172 8.778,21.240 C8.630,21.693 8.206,21.999 7.729,21.999 L1.104,21.999 C0.495,21.999 -0.000,21.506 -0.000,20.899 L-0.000,1.097 C-0.000,0.793 0.126,0.503 0.347,0.296 C0.568,0.087 0.857,-0.016 1.170,-0.001 C3.445,0.133 11.013,0.712 12.905,2.498 C13.151,2.727 13.274,3.057 13.246,3.392 C13.218,3.709 13.178,4.047 13.131,4.397 L21.975,4.397 C24.818,2.165 27.387,1.619 31.367,3.392 C33.707,4.435 36.042,5.353 37.713,5.984 C37.589,5.735 37.547,5.454 37.625,5.185 C37.714,4.883 37.928,4.635 38.215,4.501 C38.416,4.408 43.226,2.197 51.896,2.197 C52.505,2.197 53.000,2.688 53.000,3.297 L53.000,23.099 C53.000,23.706 52.505,24.199 51.896,24.199 ZM2.208,2.276 L2.208,19.799 L6.923,19.799 C7.745,17.216 10.392,8.655 10.978,3.836 C9.586,3.163 5.757,2.556 2.208,2.276 ZM12.764,6.597 C12.030,10.384 10.697,15.034 9.774,18.068 C10.179,18.446 10.784,19.069 11.450,19.761 C12.351,20.698 13.371,21.759 13.961,22.254 C18.159,25.757 23.020,29.370 23.795,29.878 C24.442,30.305 25.764,30.800 26.500,30.800 C26.721,30.800 26.881,30.783 27.025,30.763 C25.353,29.194 23.129,26.847 22.381,26.050 C21.966,25.605 21.988,24.910 22.434,24.494 C22.878,24.078 23.578,24.102 23.996,24.547 C24.625,25.218 27.847,28.635 29.422,29.957 C29.428,29.962 29.430,29.969 29.435,29.974 C29.441,29.980 29.449,29.983 29.455,29.988 C29.894,30.388 30.384,30.311 30.722,30.184 C31.256,29.977 31.691,29.524 31.899,29.000 C30.066,27.365 26.827,23.883 26.791,23.845 C26.378,23.398 26.409,22.701 26.858,22.289 C27.308,21.880 28.004,21.907 28.419,22.355 C29.170,23.170 32.493,26.688 33.816,27.741 C33.827,27.750 33.831,27.762 33.841,27.771 C33.853,27.781 33.867,27.786 33.878,27.797 C34.154,28.052 34.892,28.113 35.598,27.757 C35.825,27.644 36.274,27.346 36.399,26.864 C34.737,25.353 30.633,21.091 30.122,20.560 C29.700,20.122 29.713,19.425 30.155,19.005 C30.594,18.582 31.294,18.597 31.716,19.038 C33.874,21.279 37.341,24.815 38.191,25.503 C38.519,25.713 39.100,25.596 39.529,25.229 C39.827,24.976 40.267,24.424 39.858,23.576 C39.030,21.860 35.349,18.894 32.102,16.278 C30.307,14.833 28.602,13.458 27.339,12.276 C27.017,12.406 26.774,12.514 26.566,12.606 C25.992,12.864 25.610,13.022 24.908,13.130 C23.207,15.379 20.924,16.166 18.422,15.343 C17.424,15.015 16.752,14.311 16.525,13.361 C15.997,11.136 18.030,8.108 19.539,6.597 L12.764,6.597 ZM30.464,5.403 C26.555,3.662 24.705,4.558 21.116,8.135 C19.608,9.638 18.444,11.887 18.676,12.853 C18.709,12.993 18.771,13.141 19.115,13.255 C20.195,13.616 21.812,13.814 23.373,11.488 C23.556,11.216 23.852,11.040 24.181,11.007 C24.926,10.932 25.111,10.848 25.663,10.602 C26.025,10.441 26.485,10.234 27.229,9.966 C27.629,9.823 28.081,9.920 28.384,10.224 C29.592,11.427 31.486,12.954 33.492,14.569 C36.537,17.024 39.656,19.546 41.176,21.575 L43.201,20.219 C42.066,16.825 40.316,11.953 39.018,8.810 C37.873,8.402 34.171,7.054 30.464,5.403 ZM50.792,4.411 C45.538,4.534 41.918,5.513 40.234,6.083 C41.958,9.744 45.050,18.602 46.097,21.999 L50.792,21.999 L50.792,4.411 Z"/>
</symbol><symbol id="icon-arrow_small_left" viewBox="0 0 6 10">
    <path fill-rule="evenodd" d="M4.507,9.999 L0.000,5.000 L4.507,-0.001 L6.000,1.633 L2.965,5.000 L6.000,8.366 L4.507,9.999 Z"/>
</symbol><symbol id="icon-arrow_small_right" viewBox="0 0 6 10">
    <path fill-rule="evenodd" d="M1.493,9.999 L6.000,5.000 L1.493,-0.001 L0.000,1.633 L3.035,5.000 L0.000,8.366 L1.493,9.999 Z"/>
</symbol><symbol id="icon-calendar" viewBox="0 0 18 18">
    <path fill-rule="evenodd" d="M16.500,18.000 L1.500,18.000 C0.671,18.000 -0.000,17.328 -0.000,16.499 L-0.000,3.186 C-0.000,2.358 0.671,1.687 1.500,1.687 L3.937,1.687 L3.937,0.562 C3.937,0.251 4.189,-0.001 4.500,-0.001 C4.810,-0.001 5.062,0.251 5.062,0.562 L5.062,1.687 L8.437,1.687 L8.437,0.562 C8.437,0.251 8.690,-0.001 9.000,-0.001 C9.310,-0.001 9.562,0.251 9.562,0.562 L9.562,1.687 L12.937,1.687 L12.937,0.562 C12.937,0.251 13.189,-0.001 13.500,-0.001 C13.811,-0.001 14.062,0.251 14.062,0.562 L14.062,1.687 L16.500,1.687 C17.329,1.687 18.000,2.358 18.000,3.186 L18.000,16.499 C18.000,17.328 17.329,18.000 16.500,18.000 ZM16.875,3.186 C16.875,2.980 16.707,2.812 16.500,2.812 L14.062,2.812 L14.062,3.937 C14.062,4.248 13.811,4.499 13.500,4.499 C13.189,4.499 12.937,4.248 12.937,3.937 L12.937,2.812 L9.562,2.812 L9.562,3.937 C9.562,4.248 9.310,4.499 9.000,4.499 C8.690,4.499 8.437,4.248 8.437,3.937 L8.437,2.812 L5.062,2.812 L5.062,3.937 C5.062,4.248 4.810,4.499 4.500,4.499 C4.189,4.499 3.937,4.248 3.937,3.937 L3.937,2.812 L1.500,2.812 C1.293,2.812 1.125,2.980 1.125,3.186 L1.125,16.499 C1.125,16.706 1.293,16.875 1.500,16.875 L16.500,16.875 C16.707,16.875 16.875,16.706 16.875,16.499 L16.875,3.186 ZM11.812,12.374 L14.062,12.374 L14.062,14.062 L11.812,14.062 L11.812,12.374 ZM11.812,9.562 L14.062,9.562 L14.062,11.249 L11.812,11.249 L11.812,9.562 ZM11.812,6.749 L14.062,6.749 L14.062,8.437 L11.812,8.437 L11.812,6.749 ZM7.875,12.374 L10.125,12.374 L10.125,14.062 L7.875,14.062 L7.875,12.374 ZM7.875,9.562 L10.125,9.562 L10.125,11.249 L7.875,11.249 L7.875,9.562 ZM7.875,6.749 L10.125,6.749 L10.125,8.437 L7.875,8.437 L7.875,6.749 ZM3.937,12.374 L6.187,12.374 L6.187,14.062 L3.937,14.062 L3.937,12.374 ZM3.937,9.562 L6.187,9.562 L6.187,11.249 L3.937,11.249 L3.937,9.562 ZM3.937,6.749 L6.187,6.749 L6.187,8.437 L3.937,8.437 L3.937,6.749 Z"/>
</symbol><symbol id="icon-car" viewBox="0 0 46 20">
    <path fill-rule="evenodd" d="M45.059,16.216 L40.770,16.216 C40.567,17.128 40.104,17.964 39.418,18.630 C38.508,19.513 37.307,20.000 36.036,20.000 C34.766,20.000 33.565,19.513 32.655,18.629 C31.969,17.964 31.506,17.129 31.303,16.216 L14.443,16.216 C14.242,17.126 13.777,17.963 13.092,18.630 C12.181,19.513 10.980,20.000 9.710,20.000 C8.439,20.000 7.238,19.513 6.327,18.630 C5.642,17.964 5.178,17.129 4.976,16.216 L0.941,16.216 C0.421,16.216 -0.000,15.795 -0.000,15.277 L-0.000,11.924 C-0.000,10.532 0.502,9.185 1.415,8.133 C2.328,7.079 3.591,6.388 4.972,6.187 L10.668,5.359 L18.610,1.331 C20.326,0.459 22.250,-0.000 24.175,-0.000 L29.547,-0.000 C31.120,-0.000 32.657,0.295 34.116,0.879 L42.881,4.383 C44.775,5.141 46.000,6.947 46.000,8.983 L46.000,15.277 C46.000,15.795 45.579,16.216 45.059,16.216 ZM36.037,18.123 C37.676,18.123 39.004,16.798 39.004,15.164 C39.004,13.529 37.676,12.204 36.037,12.204 C34.398,12.204 33.069,13.529 33.069,15.164 C33.069,16.798 34.398,18.123 36.037,18.123 ZM9.709,18.123 C11.348,18.123 12.676,16.798 12.676,15.164 C12.676,13.529 11.348,12.204 9.709,12.204 C8.070,12.204 6.742,13.529 6.742,15.164 C6.742,16.798 8.070,18.123 9.709,18.123 ZM2.159,10.488 C3.557,10.354 4.711,9.375 5.098,8.070 C3.747,8.318 2.649,9.261 2.159,10.488 ZM23.176,1.926 C21.885,2.051 20.618,2.417 19.462,3.004 L14.884,5.326 L23.176,5.326 L23.176,1.926 ZM30.058,1.889 C29.889,1.880 29.718,1.877 29.547,1.877 L25.057,1.877 L25.057,5.326 L32.704,5.326 L30.058,1.889 ZM33.416,2.621 C33.222,2.544 33.026,2.472 32.829,2.407 L35.077,5.326 L40.182,5.326 L33.416,2.621 ZM44.119,8.983 C44.119,8.327 43.913,7.711 43.552,7.203 L42.449,7.203 L42.449,8.424 C42.449,9.107 43.006,9.662 43.689,9.662 L44.119,9.662 L44.119,8.983 ZM44.119,11.539 L43.689,11.539 C41.968,11.539 40.567,10.141 40.567,8.424 L40.567,7.203 L34.615,7.203 C34.614,7.203 34.614,7.203 34.614,7.203 C34.613,7.203 34.613,7.203 34.613,7.203 L11.030,7.203 L7.074,7.778 C6.746,10.355 4.546,12.355 1.881,12.380 L1.881,14.339 L4.933,14.339 C5.327,12.064 7.318,10.327 9.710,10.327 C12.101,10.327 14.092,12.064 14.487,14.339 L31.260,14.339 C31.654,12.064 33.645,10.327 36.036,10.327 C38.428,10.327 40.419,12.064 40.813,14.339 L44.119,14.339 L44.119,11.539 ZM26.072,11.709 L19.833,11.709 C19.314,11.709 18.893,11.289 18.893,10.771 C18.893,10.253 19.314,9.833 19.833,9.833 L26.072,9.833 C26.592,9.833 27.013,10.253 27.013,10.771 C27.013,11.289 26.592,11.709 26.072,11.709 ZM9.709,13.920 C10.398,13.920 10.956,14.477 10.956,15.164 C10.956,15.851 10.398,16.408 9.709,16.408 C9.020,16.408 8.462,15.850 8.462,15.164 C8.462,14.477 9.020,13.920 9.709,13.920 ZM36.037,13.920 C36.726,13.920 37.284,14.477 37.284,15.164 C37.284,15.851 36.726,16.408 36.037,16.408 C35.348,16.408 34.790,15.850 34.790,15.164 C34.790,14.477 35.348,13.920 36.037,13.920 Z"/>
</symbol><symbol id="icon-checked" viewBox="0 0 11 8">
    <path fill-rule="evenodd" d="M4.404,7.999 L-0.001,3.886 L1.972,2.045 L4.404,4.316 L9.028,-0.000 L11.001,1.841 L4.404,7.999 Z"/>
</symbol><symbol id="icon-clock" viewBox="0 0 18 18">
    <path fill-rule="evenodd" d="M9.000,18.000 C4.050,18.000 -0.000,13.949 -0.000,9.000 C-0.000,4.050 4.050,-0.001 9.000,-0.001 C13.950,-0.001 18.000,4.050 18.000,9.000 C18.000,13.949 13.950,18.000 9.000,18.000 ZM9.000,1.799 C5.040,1.799 1.800,5.039 1.800,9.000 C1.800,12.959 5.040,16.199 9.000,16.199 C12.960,16.199 16.200,12.959 16.200,9.000 C16.200,5.039 12.960,1.799 9.000,1.799 ZM8.100,9.899 L8.100,4.499 L9.450,4.499 L9.450,9.179 L13.500,11.609 L12.780,12.779 L8.100,9.899 Z"/>
</symbol><symbol id="icon-facebook" viewBox="0 0 10 19">
    <g id="Page-1" stroke-width="1" fill-rule="evenodd" sketch:type="MSPage">
        <path d="M9.76616526,0.156928571 L9.76616526,3.10335714 L8.01393311,3.10335714 C7.37405216,3.10335714 6.94250454,3.23728571 6.71929026,3.50514286 C6.49607597,3.773 6.38446883,4.17478571 6.38446883,4.7105 L6.38446883,6.819875 L9.65455811,6.819875 L9.21929026,10.1234464 L6.38446883,10.1234464 L6.38446883,18.5944286 L2.96929026,18.5944286 L2.96929026,10.1234464 L0.123308113,10.1234464 L0.123308113,6.819875 L2.96929026,6.819875 L2.96929026,4.38683929 C2.96929026,3.00291071 3.35619502,1.92962202 4.13000454,1.16697321 C4.90381407,0.404324405 5.93432002,0.023 7.2215224,0.023 C8.3152724,0.023 9.16348668,0.0676428571 9.76616526,0.156928571 L9.76616526,0.156928571 Z" id="facebook" sketch:type="MSShapeGroup"/>
    </g>
</symbol><symbol id="icon-instagram" viewBox="0 0 512 512">
<g>
	<g>
		<path d="M352,0H160C71.648,0,0,71.648,0,160v192c0,88.352,71.648,160,160,160h192c88.352,0,160-71.648,160-160V160
			C512,71.648,440.352,0,352,0z M464,352c0,61.76-50.24,112-112,112H160c-61.76,0-112-50.24-112-112V160C48,98.24,98.24,48,160,48
			h192c61.76,0,112,50.24,112,112V352z"/>
	</g>
</g>
<g>
	<g>
		<path d="M256,128c-70.688,0-128,57.312-128,128s57.312,128,128,128s128-57.312,128-128S326.688,128,256,128z M256,336
			c-44.096,0-80-35.904-80-80c0-44.128,35.904-80,80-80s80,35.872,80,80C336,300.096,300.096,336,256,336z"/>
	</g>
</g>
<g>
	<g>
		<circle cx="393.6" cy="118.4" r="17.056"/>
	</g>
</g>
<g>
</g>
<g>
</g>
<g>
</g>
<g>
</g>
<g>
</g>
<g>
</g>
<g>
</g>
<g>
</g>
<g>
</g>
<g>
</g>
<g>
</g>
<g>
</g>
<g>
</g>
<g>
</g>
<g>
</g>
</symbol><symbol id="icon-mail" viewBox="0 0 35 24">
    <path fill-rule="evenodd" d="M31.733,24.000 L3.267,24.000 C1.465,24.000 -0.000,22.523 -0.000,20.707 L-0.000,3.292 C-0.000,1.477 1.465,-0.000 3.267,-0.000 L31.733,-0.000 C33.534,-0.000 35.000,1.477 35.000,3.292 L35.000,20.707 C35.000,22.523 33.534,24.000 31.733,24.000 ZM32.822,3.292 C32.822,2.687 32.334,2.195 31.733,2.195 L3.267,2.195 C2.666,2.195 2.178,2.687 2.178,3.292 L2.178,20.707 C2.178,21.312 2.666,21.805 3.267,21.805 L31.733,21.805 C32.334,21.805 32.822,21.312 32.822,20.707 L32.822,3.292 ZM18.221,17.017 C18.016,17.200 17.758,17.291 17.501,17.291 C17.244,17.291 16.987,17.200 16.782,17.017 L4.725,6.311 C4.274,5.910 4.230,5.217 4.628,4.762 C5.025,4.307 5.713,4.263 6.165,4.664 L17.501,14.731 L28.835,4.664 C29.287,4.263 29.975,4.307 30.372,4.762 C30.770,5.217 30.727,5.910 30.275,6.311 L18.221,17.017 Z"/>
</symbol><symbol id="icon-marker" viewBox="0 0 27 39">
    <path fill-rule="evenodd" d="M25.096,20.735 L14.653,38.444 C14.451,38.786 14.089,38.997 13.696,39.000 C13.693,39.000 13.690,39.000 13.687,39.000 C13.298,39.000 12.937,38.796 12.732,38.460 L2.015,20.921 C0.697,18.758 -0.000,16.265 -0.000,13.711 C-0.000,6.150 6.056,-0.000 13.500,-0.000 C20.944,-0.000 27.000,6.150 27.000,13.711 C27.000,16.189 26.342,18.618 25.096,20.735 ZM13.500,2.270 C7.297,2.270 2.235,7.411 2.235,13.711 C2.235,15.840 2.830,17.916 3.927,19.717 L13.670,35.662 L23.165,19.562 C24.202,17.800 24.757,15.777 24.757,13.711 C24.757,7.411 19.703,2.270 13.500,2.270 ZM13.500,20.566 C9.729,20.566 6.750,17.467 6.750,13.711 C6.750,9.931 9.778,6.855 13.500,6.855 C17.222,6.855 20.250,9.931 20.250,13.711 C20.250,17.426 17.318,20.566 13.500,20.566 ZM13.500,9.125 C11.019,9.125 8.985,11.191 8.985,13.711 C8.985,16.237 11.006,18.296 13.500,18.296 C16.034,18.296 18.007,16.200 18.007,13.711 C18.007,11.191 15.981,9.125 13.500,9.125 Z"/>
</symbol><symbol id="icon-phone" viewBox="0 0 36 36">
    <path fill-rule="evenodd" d="M34.244,31.034 C34.219,31.058 32.595,32.555 32.570,32.578 C27.979,37.151 20.574,37.134 16.002,32.562 L3.436,20.168 C-1.149,15.583 -1.148,8.166 3.435,3.583 C3.435,3.582 3.574,3.444 3.574,3.444 C3.574,3.444 5.107,1.911 5.107,1.911 C6.375,0.643 8.438,0.643 9.706,1.911 L14.305,6.510 C15.573,7.777 15.573,9.841 14.305,11.109 L12.215,13.199 C11.252,14.162 11.252,15.720 12.215,16.683 L19.485,23.781 C19.485,23.781 19.485,23.782 19.486,23.782 C20.449,24.745 22.007,24.745 22.970,23.782 L25.060,21.692 C26.331,20.421 28.388,20.421 29.659,21.692 C29.664,21.696 29.668,21.701 29.672,21.705 L34.251,26.443 C35.512,27.711 35.509,29.769 34.244,31.034 ZM12.006,10.342 L12.772,9.576 C13.196,9.152 13.196,8.466 12.772,8.042 L8.173,3.444 C7.750,3.021 7.063,3.021 6.640,3.444 L5.874,4.210 L12.006,10.342 ZM24.287,25.517 C22.464,27.125 19.692,27.053 17.954,25.317 L10.683,18.217 C8.946,16.481 8.880,13.699 10.480,11.882 L4.370,5.772 C1.259,9.509 1.427,15.093 4.968,18.634 L17.534,31.028 C21.072,34.566 26.623,34.762 30.396,31.627 L24.287,25.517 ZM32.711,27.968 C32.702,27.960 28.129,23.228 28.121,23.219 C27.697,22.801 27.015,22.803 26.593,23.225 L25.827,23.991 L31.995,30.159 L32.724,29.488 C33.133,29.065 33.129,28.387 32.711,27.968 ZM18.572,7.672 C23.952,7.672 28.328,12.048 28.328,17.428 C28.328,18.026 27.843,18.511 27.244,18.511 C26.645,18.511 26.160,18.026 26.160,17.428 C26.160,13.244 22.756,9.840 18.572,9.840 C17.974,9.840 17.488,9.354 17.488,8.756 C17.488,8.157 17.974,7.672 18.572,7.672 ZM31.580,18.511 C30.981,18.511 30.496,18.026 30.496,17.428 C30.496,10.853 25.147,5.504 18.572,5.504 C17.974,5.504 17.488,5.018 17.488,4.420 C17.488,3.821 17.974,3.336 18.572,3.336 C26.342,3.336 32.664,9.657 32.664,17.428 C32.664,18.026 32.179,18.511 31.580,18.511 Z"/>
</symbol><symbol id="icon-price" viewBox="0 0 22 22">
    <path fill-rule="evenodd" d="M21.773,12.480 L12.489,21.772 C12.318,21.924 12.129,22.000 11.920,22.000 C11.712,22.000 11.503,21.924 11.352,21.772 L0.230,10.641 C0.059,10.470 -0.016,10.242 0.003,9.996 L0.950,1.652 C0.988,1.273 1.291,0.988 1.651,0.950 L9.988,0.002 C10.215,-0.017 10.461,0.059 10.632,0.230 L21.754,11.361 C21.905,11.513 21.981,11.721 22.000,11.911 C22.000,12.138 21.924,12.328 21.773,12.480 ZM9.779,1.633 L2.466,2.468 L1.632,9.787 L9.192,17.353 L17.339,9.199 L9.779,1.633 ZM18.476,10.337 L10.329,18.491 L11.920,20.084 L20.067,11.930 L18.476,10.337 ZM6.994,10.034 C6.179,10.034 5.421,9.712 4.853,9.142 C3.678,7.967 3.678,6.052 4.853,4.876 C5.440,4.307 6.179,3.984 6.994,3.984 C7.809,3.984 8.567,4.307 9.135,4.876 C9.703,5.444 10.026,6.203 10.026,7.000 C10.026,7.815 9.703,8.573 9.135,9.142 C8.548,9.712 7.809,10.034 6.994,10.034 ZM7.998,5.995 C7.733,5.729 7.373,5.577 6.994,5.577 C6.615,5.577 6.255,5.729 5.990,5.995 C5.440,6.563 5.440,7.474 5.990,8.023 C6.539,8.555 7.487,8.555 8.017,8.023 C8.282,7.739 8.434,7.398 8.415,7.000 C8.415,6.620 8.263,6.260 7.998,5.995 Z"/>
</symbol><symbol id="icon-step" viewBox="0 0 44 32">
    <path fill-rule="evenodd" d="M42.953,11.508 L42.156,10.699 C42.153,10.696 42.149,10.693 42.146,10.690 L32.841,1.218 C32.506,0.877 31.963,0.876 31.627,1.217 L30.500,2.360 C28.424,4.465 25.667,5.629 22.737,5.639 C22.471,5.640 22.221,5.766 22.059,5.980 L14.382,16.137 L10.441,16.137 C4.684,16.137 -0.000,20.905 -0.000,26.765 L-0.000,30.250 C-0.000,31.215 0.771,32.000 1.719,32.000 L33.568,32.000 C34.042,32.000 34.427,31.608 34.427,31.125 C34.427,30.642 34.042,30.250 33.568,30.250 L21.929,30.250 L42.342,17.130 C43.262,16.539 43.857,15.569 43.977,14.469 C44.097,13.369 43.724,12.290 42.953,11.508 L42.953,11.508 ZM23.169,7.380 C26.395,7.262 29.415,5.930 31.713,3.600 L32.233,3.073 L34.180,5.055 C30.538,8.492 25.838,10.397 20.854,10.443 L23.169,7.380 ZM9.051,18.000 C9.087,18.063 9.131,18.123 9.185,18.177 L13.756,22.831 C13.924,23.002 14.144,23.087 14.364,23.087 C14.584,23.087 14.804,23.002 14.972,22.831 C15.307,22.489 15.307,21.936 14.972,21.594 L11.330,17.886 L14.449,17.886 L16.145,19.613 C16.313,19.784 16.533,19.869 16.753,19.869 C16.973,19.869 17.193,19.784 17.360,19.613 C17.696,19.271 17.696,18.717 17.360,18.376 L15.946,16.936 L17.753,14.546 L21.198,18.053 C21.366,18.224 21.586,18.309 21.805,18.309 C22.025,18.309 22.246,18.224 22.413,18.053 C22.749,17.711 22.749,17.158 22.413,16.816 L18.810,13.147 L19.530,12.194 L20.738,12.194 C23.571,12.185 26.334,11.620 28.950,10.515 C31.343,9.504 33.508,8.085 35.396,6.293 L40.193,11.176 L17.499,26.284 L1.731,26.284 C1.953,22.086 5.052,18.654 9.051,18.000 L9.051,18.000 ZM42.269,14.276 C42.207,14.845 41.899,15.345 41.425,15.650 L18.710,30.250 L1.719,30.250 L1.719,28.034 L17.755,28.034 C17.923,28.034 18.086,27.984 18.226,27.892 L41.436,12.439 L41.740,12.748 C42.138,13.151 42.331,13.709 42.269,14.276 L42.269,14.276 Z"/>
</symbol><symbol id="icon-time" viewBox="0 0 34 34">
    <path fill-rule="evenodd" d="M16.934,34.000 C7.506,34.000 -0.000,26.223 -0.000,16.934 C-0.000,7.573 7.574,-0.000 16.934,-0.000 C26.213,-0.000 34.000,7.495 34.000,16.934 C34.000,26.316 26.260,34.000 16.934,34.000 ZM16.934,1.979 C8.695,1.979 1.979,8.695 1.979,16.934 C1.979,25.245 8.695,32.021 16.934,32.021 C25.246,32.021 32.021,25.245 32.021,16.934 C32.021,8.695 25.246,1.979 16.934,1.979 ZM16.934,30.016 C9.819,30.016 3.984,24.102 3.984,16.934 C3.984,9.788 9.801,3.984 16.934,3.984 C24.107,3.984 30.016,9.823 30.016,16.934 C30.016,24.096 24.072,30.016 16.934,30.016 ZM25.466,9.942 L24.814,10.594 C24.620,10.789 24.365,10.886 24.110,10.886 C23.230,10.886 22.776,9.815 23.406,9.186 L24.052,8.539 C22.364,7.139 20.248,6.226 17.930,6.021 L17.930,6.973 C17.930,7.523 17.484,7.968 16.934,7.968 C16.383,7.968 15.937,7.523 15.937,6.973 L15.937,6.022 C13.663,6.228 11.587,7.132 9.926,8.517 L10.594,9.186 C10.984,9.575 10.984,10.205 10.594,10.594 C10.205,10.983 9.575,10.983 9.186,10.594 L8.517,9.926 C7.132,11.587 6.228,13.663 6.022,15.937 L6.973,15.937 C7.523,15.937 7.969,16.383 7.969,16.934 C7.969,17.484 7.523,17.930 6.973,17.930 L6.021,17.930 C6.226,20.248 7.139,22.364 8.539,24.052 L9.186,23.406 C9.575,23.016 10.205,23.016 10.594,23.406 C10.983,23.795 10.983,24.425 10.594,24.814 L9.942,25.466 C11.601,26.860 13.671,27.769 15.937,27.977 L15.937,27.027 C15.937,26.477 16.383,26.031 16.934,26.031 C17.484,26.031 17.930,26.477 17.930,27.027 L17.930,27.976 C20.205,27.762 22.307,26.826 23.997,25.406 L23.405,24.814 C23.016,24.425 23.016,23.794 23.405,23.405 C23.794,23.016 24.425,23.016 24.814,23.405 L25.406,23.997 C26.826,22.307 27.762,20.205 27.976,17.930 L27.027,17.930 C26.477,17.930 26.031,17.484 26.031,16.934 C26.031,16.383 26.477,15.937 27.027,15.937 L27.977,15.937 C27.769,13.671 26.860,11.601 25.466,9.942 ZM21.755,21.622 C21.366,22.011 20.735,22.011 20.346,21.622 L16.362,17.638 C15.973,17.249 15.973,16.618 16.362,16.229 L20.346,12.245 C20.735,11.856 21.366,11.856 21.755,12.245 C22.144,12.634 22.144,13.264 21.755,13.653 L18.475,16.934 L21.755,20.213 C22.144,20.603 22.144,21.233 21.755,21.622 Z"/>
</symbol><symbol id="icon-youtube" viewBox="0 0 176 124">
    <path class="st0" d="M172.3,19.4c-2-7.6-8-13.6-15.6-15.7C143,0,88,0,88,0S33,0,19.2,3.7c-7.6,2-13.5,8-15.6,15.7C0,33.2,0,62,0,62
		s0,28.8,3.7,42.6c2,7.6,8,13.6,15.6,15.7C33,124,88,124,88,124s55,0,68.8-3.7c7.6-2,13.5-8,15.6-15.7C176,90.8,176,62,176,62
		S176,33.2,172.3,19.4 M70,88.2V35.8L116,62L70,88.2z"/>
</symbol></svg>