<svg
        xmlns="http://www.w3.org/2000/svg"
        xmlns:xlink="http://www.w3.org/1999/xlink"
        width="99px" height="103px">
    <path fill-rule="evenodd"  fill="rgb(235, 235, 235)"
          d="M83.301,76.791 C82.932,77.098 82.483,77.248 82.037,77.248 C81.471,77.248 80.910,77.008 80.520,76.543 C79.821,75.711 79.932,74.473 80.769,73.777 C89.845,66.240 95.050,55.181 95.050,43.435 C95.050,21.650 77.224,3.926 55.313,3.926 C45.271,3.926 35.685,7.659 28.322,14.437 C27.521,15.174 26.271,15.126 25.531,14.330 C24.790,13.535 24.838,12.292 25.638,11.556 C33.734,4.103 44.273,-0.001 55.313,-0.001 C79.402,-0.001 99.000,19.485 99.000,43.435 C99.000,56.348 93.279,68.505 83.301,76.791 ZM26.633,38.383 L26.633,47.532 L27.768,47.532 C28.858,47.532 29.742,48.412 29.742,49.496 L29.742,101.036 C29.742,102.121 28.858,103.000 27.767,103.000 L1.975,103.000 C0.884,103.000 -0.000,102.121 -0.000,101.036 L-0.000,49.496 C-0.000,48.412 0.884,47.532 1.975,47.532 L3.111,47.532 L3.111,38.383 C3.111,37.298 3.995,36.420 5.086,36.420 L5.256,36.420 L5.256,10.101 C5.256,9.421 5.610,8.789 6.193,8.431 C6.775,8.073 7.502,8.041 8.114,8.345 L23.397,15.945 C24.066,16.277 24.488,16.957 24.488,17.701 L24.488,36.420 L24.658,36.420 C25.749,36.420 26.633,37.298 26.633,38.383 ZM20.539,18.914 L9.206,13.279 L9.206,36.420 L20.539,36.420 L20.539,18.914 ZM22.683,40.346 L7.062,40.346 L7.062,47.532 L22.683,47.532 L22.683,40.346 ZM25.793,51.459 L3.950,51.459 L3.950,99.073 L25.793,99.073 L25.793,51.459 ZM81.824,37.140 C82.595,37.907 82.595,39.150 81.824,39.917 L54.766,66.819 C54.380,67.203 53.875,67.394 53.370,67.394 C52.864,67.394 52.359,67.203 51.973,66.819 C51.202,66.053 51.202,64.809 51.973,64.043 L79.031,37.140 C79.802,36.373 81.053,36.373 81.824,37.140 ZM42.395,67.152 C41.890,67.152 41.384,66.960 40.999,66.577 C40.227,65.811 40.227,64.567 40.999,63.800 L77.038,27.968 C77.809,27.201 79.059,27.201 79.831,27.968 C80.602,28.735 80.602,29.978 79.831,30.745 L43.792,66.577 C43.406,66.960 42.901,67.152 42.395,67.152 ZM27.144,25.296 C26.265,24.653 26.077,23.423 26.724,22.550 C33.391,13.543 44.078,8.166 55.312,8.166 C74.873,8.166 90.786,23.988 90.786,43.437 C90.786,62.885 74.873,78.707 55.312,78.707 C46.518,78.707 38.082,75.485 31.559,69.633 C30.749,68.907 30.685,67.665 31.415,66.860 C32.146,66.055 33.395,65.991 34.204,66.717 C40.001,71.916 47.497,74.780 55.312,74.780 C72.695,74.780 86.837,60.719 86.837,43.437 C86.837,26.153 72.695,12.093 55.312,12.093 C45.329,12.093 35.830,16.872 29.905,24.878 C29.258,25.751 28.022,25.938 27.144,25.296 ZM30.906,81.622 C30.906,80.538 31.790,79.658 32.881,79.658 L97.025,79.658 C97.704,79.658 98.336,80.006 98.697,80.577 C99.059,81.149 99.099,81.865 98.804,82.473 L96.990,86.222 C93.856,92.698 87.160,96.883 79.931,96.883 L32.881,96.883 C31.790,96.883 30.906,96.004 30.906,94.919 C30.906,93.835 31.790,92.956 32.881,92.956 L79.931,92.956 C85.651,92.956 90.951,89.644 93.431,84.519 L93.883,83.585 L32.881,83.585 C31.790,83.585 30.906,82.706 30.906,81.622 Z"/>
</svg>
