<svg
        xmlns="http://www.w3.org/2000/svg"
        xmlns:xlink="http://www.w3.org/1999/xlink"
        width="97px" height="97px">
    <path fill-rule="evenodd"  fill="rgb(235, 235, 235)"
          d="M92.074,44.070 L92.074,95.105 C92.074,96.151 91.226,96.999 90.180,96.999 L6.820,96.999 C5.774,96.999 4.926,96.151 4.926,95.105 L4.926,44.070 C1.899,42.334 -0.000,39.279 -0.000,35.996 L-0.000,32.206 C-0.000,32.206 -0.000,32.205 -0.000,32.205 C0.001,31.130 0.146,31.808 12.504,8.986 L12.504,5.683 C12.504,2.549 15.054,-0.000 18.187,-0.000 L78.812,-0.000 C81.946,-0.000 84.496,2.549 84.496,5.683 L84.496,8.986 C96.733,31.585 96.999,31.118 97.000,32.205 C97.000,32.205 97.000,32.206 97.000,32.206 L97.000,35.996 C97.000,39.245 95.071,42.335 92.074,44.070 ZM20.082,93.210 L39.027,93.210 L39.027,76.917 L20.082,76.917 L20.082,93.210 ZM20.082,73.129 L39.027,73.129 L39.027,56.836 L20.082,56.836 L20.082,73.129 ZM8.715,93.210 L16.293,93.210 L16.293,54.941 C16.293,53.895 17.141,53.046 18.187,53.046 L40.922,53.046 C41.968,53.046 42.816,53.895 42.816,54.941 L42.816,93.210 L88.285,93.210 L88.285,45.377 C87.845,45.436 87.403,45.468 86.959,45.468 C84.466,45.468 81.945,44.480 80.044,42.758 C79.624,42.377 79.245,41.970 78.906,41.543 C77.183,43.919 74.387,45.468 71.234,45.468 C68.139,45.468 65.386,43.976 63.656,41.673 C61.927,43.976 59.174,45.468 56.078,45.468 C52.983,45.468 50.230,43.976 48.500,41.673 C46.770,43.976 44.017,45.468 40.922,45.468 C37.826,45.468 35.073,43.976 33.344,41.673 C31.614,43.976 28.861,45.468 25.766,45.468 C22.613,45.468 19.817,43.919 18.094,41.543 C17.755,41.970 17.376,42.377 16.956,42.758 C15.055,44.480 12.534,45.468 10.041,45.468 C9.596,45.468 9.154,45.435 8.715,45.376 L8.715,93.210 ZM65.551,34.101 L65.551,35.996 C65.551,39.129 68.100,41.679 71.234,41.679 C74.368,41.679 76.918,39.129 76.918,35.996 L76.918,34.101 L65.551,34.101 ZM76.184,30.312 L69.869,11.367 L62.104,11.367 L65.261,30.312 L76.184,30.312 ZM50.394,34.101 L50.394,35.996 C50.394,39.129 52.944,41.679 56.078,41.679 C59.212,41.679 61.762,39.129 61.762,35.996 L61.762,34.101 L50.394,34.101 ZM61.420,30.312 L58.262,11.367 L50.394,11.367 L50.394,30.312 L61.420,30.312 ZM35.238,34.101 L35.238,35.996 C35.238,39.129 37.788,41.679 40.922,41.679 C44.056,41.679 46.605,39.129 46.605,35.996 L46.605,34.101 L35.238,34.101 ZM46.605,30.312 L46.605,11.367 L38.738,11.367 L35.580,30.312 L46.605,30.312 ZM31.739,30.312 L34.896,11.367 L27.131,11.367 L20.816,30.312 L31.739,30.312 ZM20.082,34.101 L20.082,35.996 C20.082,39.129 22.632,41.679 25.766,41.679 C28.900,41.679 31.449,39.129 31.449,35.996 L31.449,34.101 L20.082,34.101 ZM3.789,35.996 C3.789,38.124 5.307,40.199 7.566,41.160 C8.361,41.500 9.216,41.679 10.041,41.679 C13.313,41.679 16.293,38.970 16.293,35.996 L16.293,34.101 L3.789,34.101 L3.789,35.996 ZM5.099,30.312 L16.822,30.312 L23.137,11.367 L15.518,11.367 L5.099,30.312 ZM80.707,5.683 C80.707,4.639 79.857,3.789 78.812,3.789 L18.187,3.789 C17.143,3.789 16.293,4.639 16.293,5.683 L16.293,7.578 C18.111,7.578 78.903,7.578 80.707,7.578 L80.707,5.683 ZM81.481,11.367 L73.863,11.367 L80.178,30.312 L91.901,30.312 L81.481,11.367 ZM93.211,34.101 L80.707,34.101 L80.707,35.996 C80.707,38.970 83.687,41.679 86.959,41.679 C87.743,41.679 88.528,41.524 89.294,41.220 C91.637,40.283 93.211,38.184 93.211,35.996 L93.211,34.101 ZM52.289,73.129 L54.184,73.129 L54.184,54.941 C54.184,53.895 55.032,53.046 56.078,53.046 L78.812,53.046 C79.859,53.046 80.707,53.895 80.707,54.941 L80.707,73.129 L82.602,73.129 C83.648,73.129 84.496,73.977 84.496,75.023 C84.496,76.069 83.648,76.917 82.602,76.917 L52.289,76.917 C51.243,76.917 50.394,76.069 50.394,75.023 C50.394,73.977 51.243,73.129 52.289,73.129 ZM57.973,73.129 L76.918,73.129 L76.918,56.836 L57.973,56.836 L57.973,73.129 ZM56.078,80.707 L71.234,80.707 C72.280,80.707 73.129,81.555 73.129,82.601 C73.129,83.647 72.280,84.495 71.234,84.495 L56.078,84.495 C55.032,84.495 54.184,83.647 54.184,82.601 C54.184,81.555 55.032,80.707 56.078,80.707 ZM78.812,80.707 C79.858,80.707 80.707,81.555 80.707,82.601 C80.707,83.647 79.858,84.495 78.812,84.495 C77.767,84.495 76.918,83.647 76.918,82.601 C76.918,81.555 77.767,80.707 78.812,80.707 Z"/>
</svg>
