<svg
        xmlns="http://www.w3.org/2000/svg"
        xmlns:xlink="http://www.w3.org/1999/xlink"
        width="116px" height="111px">
    <path fill-rule="evenodd"  fill="rgb(235, 235, 235)"
          d="M114.011,28.237 L88.525,39.095 L88.525,42.637 L111.379,32.954 L111.379,32.307 C111.379,31.225 112.230,30.347 113.283,30.347 C114.337,30.347 115.188,31.225 115.188,32.308 L115.188,34.268 C115.188,35.062 114.723,35.779 114.009,36.081 L88.525,46.878 L88.525,71.196 C90.860,68.667 92.005,66.104 92.334,65.274 L92.334,51.913 C92.334,50.830 93.185,49.952 94.239,49.952 C95.292,49.952 96.143,50.830 96.143,51.913 L96.143,65.636 C96.143,65.853 96.107,66.071 96.038,66.277 C95.953,66.527 93.993,72.186 88.525,76.434 L88.525,87.562 C90.736,88.375 92.334,90.530 92.334,93.082 C92.334,96.325 89.771,98.964 86.621,98.964 C83.471,98.964 80.907,96.325 80.907,93.082 C80.907,90.530 82.505,88.375 84.716,87.562 L84.716,45.547 L84.716,45.545 L84.716,39.263 L62.983,30.909 C61.661,31.772 59.961,32.307 58.054,32.307 C53.783,32.307 50.436,29.723 50.436,26.426 C50.436,23.128 53.783,20.545 58.054,20.545 C62.326,20.545 65.672,23.128 65.672,26.426 C65.672,26.863 65.605,27.283 65.495,27.691 L86.438,35.740 L108.303,26.426 L58.054,5.022 L7.805,26.426 L58.054,47.830 L77.297,39.635 C78.268,39.224 79.382,39.697 79.784,40.696 C80.186,41.698 79.725,42.845 78.752,43.257 L58.782,51.763 C58.549,51.863 58.302,51.912 58.054,51.912 C57.806,51.912 57.559,51.863 57.327,51.763 L2.097,28.237 C1.385,27.935 0.920,27.220 0.920,26.426 C0.920,25.632 1.385,24.919 2.097,24.614 L57.327,1.089 C57.793,0.890 58.315,0.890 58.782,1.089 L114.013,24.614 C114.723,24.918 115.188,25.632 115.188,26.426 C115.188,27.220 114.723,27.935 114.011,28.237 ZM58.054,24.466 C55.728,24.466 54.245,25.626 54.245,26.426 C54.245,27.226 55.729,28.386 58.054,28.386 C60.379,28.386 61.863,27.226 61.863,26.426 C61.863,25.626 60.380,24.466 58.054,24.466 ZM86.621,91.122 C85.570,91.122 84.716,92.002 84.716,93.082 C84.716,94.162 85.570,95.042 86.621,95.042 C87.672,95.042 88.525,94.162 88.525,93.082 C88.525,92.002 87.672,91.122 86.621,91.122 ZM2.825,30.347 C3.876,30.347 4.729,31.225 4.729,32.307 L4.729,32.959 L58.054,55.672 L78.272,47.058 C79.241,46.648 80.359,47.118 80.761,48.120 C81.163,49.120 80.702,50.267 79.731,50.681 L58.782,59.605 C58.549,59.705 58.301,59.754 58.054,59.754 C57.806,59.754 57.559,59.705 57.327,59.605 L2.097,36.079 C1.385,35.777 0.920,35.062 0.920,34.268 L0.920,32.307 C0.920,31.225 1.774,30.347 2.825,30.347 ZM21.870,49.952 C22.921,49.952 23.774,50.830 23.774,51.912 L23.774,65.227 C24.871,67.682 32.502,82.429 56.150,83.205 L56.150,65.635 C56.150,64.554 57.003,63.675 58.054,63.675 C59.105,63.675 59.959,64.554 59.959,65.635 L59.959,83.223 C68.502,82.930 74.543,80.790 78.159,78.949 C79.106,78.468 80.245,78.868 80.710,79.839 C81.178,80.809 80.791,81.984 79.847,82.464 C75.600,84.625 68.371,87.200 58.054,87.200 C28.537,87.200 20.432,67.214 20.101,66.365 C20.011,66.132 19.965,65.884 19.965,65.635 L19.965,51.912 C19.965,50.830 20.818,49.952 21.870,49.952 ZM79.060,100.447 C79.314,99.398 80.348,98.755 81.368,99.022 C82.389,99.285 83.010,100.349 82.755,101.400 L80.851,109.242 C80.633,110.132 79.858,110.726 79.005,110.726 C78.853,110.726 78.696,110.708 78.542,110.667 C77.521,110.404 76.899,109.342 77.156,108.289 L79.060,100.447 ZM86.621,100.924 C87.674,100.924 88.525,101.802 88.525,102.884 L88.525,108.766 C88.525,109.848 87.674,110.726 86.621,110.726 C85.568,110.726 84.716,109.848 84.716,108.766 L84.716,102.884 C84.716,101.802 85.568,100.924 86.621,100.924 ZM91.873,99.022 C92.890,98.757 93.926,99.399 94.181,100.447 L96.086,108.289 C96.341,109.342 95.721,110.405 94.700,110.667 C94.545,110.708 94.389,110.726 94.237,110.726 C93.384,110.726 92.609,110.132 92.391,109.242 L90.487,101.400 C90.232,100.349 90.853,99.285 91.873,99.022 Z"/>
</svg>
