<svg
        xmlns="http://www.w3.org/2000/svg"
        xmlns:xlink="http://www.w3.org/1999/xlink"
        viewBox="0 0 21 18"
        width="21px" height="18px">
    <path fill-rule="evenodd"  fill="rgb(12, 188, 238)"
          d="M20.295,2.301 L18.823,2.300 L18.823,0.776 C18.823,0.426 18.568,0.130 18.223,0.078 C18.163,0.069 16.729,-0.139 15.002,0.175 C13.077,0.526 11.541,1.390 10.500,2.697 C9.459,1.390 7.923,0.526 5.998,0.175 C4.271,-0.139 2.837,0.069 2.777,0.078 C2.432,0.130 2.177,0.427 2.177,0.776 L2.177,2.300 L0.705,2.300 C0.316,2.300 -0.000,2.616 -0.000,3.006 L-0.000,16.294 C-0.000,16.522 0.110,16.736 0.296,16.869 C0.482,17.001 0.721,17.035 0.936,16.960 C0.989,16.942 6.270,15.138 10.207,16.936 C10.393,17.020 10.607,17.020 10.792,16.936 C14.719,15.143 20.011,16.942 20.064,16.960 C20.139,16.986 20.217,16.999 20.295,16.999 C20.440,16.999 20.583,16.955 20.703,16.869 C20.890,16.737 21.000,16.522 21.000,16.294 L21.000,3.006 C21.000,2.616 20.684,2.301 20.295,2.301 ZM1.409,15.351 L1.409,3.711 L2.177,3.711 L2.177,13.102 C2.177,13.307 2.266,13.502 2.421,13.635 C2.576,13.770 2.782,13.829 2.985,13.799 C3.024,13.794 6.085,13.373 8.321,14.909 C5.566,14.437 2.809,14.983 1.409,15.351 ZM9.795,14.273 C8.810,13.382 7.527,12.780 5.998,12.502 C5.262,12.368 4.580,12.329 4.034,12.329 C3.872,12.329 3.722,12.332 3.586,12.337 L3.586,1.423 L3.586,1.423 C4.940,1.362 8.235,1.507 9.795,4.154 L9.795,14.273 ZM11.205,4.154 C12.759,1.518 16.059,1.367 17.414,1.425 L17.414,12.337 C16.821,12.314 15.956,12.328 15.002,12.502 C13.473,12.780 12.190,13.382 11.205,14.273 L11.205,4.154 L11.205,4.154 ZM12.676,14.909 C14.913,13.373 17.976,13.794 18.014,13.799 C18.217,13.830 18.423,13.770 18.578,13.636 C18.734,13.502 18.823,13.307 18.823,13.102 L18.823,3.711 L19.590,3.711 L19.590,15.351 C18.190,14.983 15.432,14.437 12.676,14.909 Z"/>
</svg>
