<svg
        xmlns="http://www.w3.org/2000/svg"
        xmlns:xlink="http://www.w3.org/1999/xlink"
        width="10px" height="14px">
    <path fill-rule="evenodd"  fill="rgb(12, 188, 238)"
          d="M5.000,-0.000 C2.243,-0.000 0.000,2.312 0.000,5.153 C0.000,5.895 0.147,6.603 0.437,7.257 C1.687,10.077 4.084,13.054 4.789,13.899 C4.842,13.962 4.919,13.999 5.000,13.999 C5.081,13.999 5.158,13.962 5.211,13.899 C5.916,13.054 8.312,10.077 9.563,7.257 C9.853,6.603 10.000,5.895 10.000,5.153 C10.000,2.312 7.757,-0.000 5.000,-0.000 ZM5.000,7.831 C3.568,7.831 2.403,6.629 2.403,5.153 C2.403,3.677 3.568,2.476 5.000,2.476 C6.432,2.476 7.597,3.677 7.597,5.153 C7.597,6.629 6.432,7.831 5.000,7.831 Z"/>
</svg>
