<svg
        xmlns="http://www.w3.org/2000/svg"
        xmlns:xlink="http://www.w3.org/1999/xlink"
        width="12px" height="12px">
    <path fill-rule="evenodd"  fill="rgb(12, 188, 238)"
          d="M11.079,5.788 C10.871,4.577 10.299,3.475 9.428,2.604 C8.509,1.688 7.345,1.106 6.062,0.926 L6.192,-0.000 C7.678,0.207 9.023,0.878 10.087,1.942 C11.096,2.954 11.758,4.227 12.000,5.630 L11.079,5.788 ZM8.417,3.568 C9.023,4.177 9.423,4.944 9.568,5.790 L8.646,5.947 C8.534,5.294 8.227,4.699 7.757,4.230 C7.261,3.733 6.631,3.420 5.940,3.323 L6.069,2.397 C6.963,2.521 7.775,2.926 8.417,3.568 ZM3.917,6.544 C4.556,7.328 5.278,8.025 6.139,8.567 C6.324,8.682 6.529,8.767 6.721,8.871 C6.819,8.927 6.886,8.909 6.966,8.827 C7.258,8.527 7.555,8.232 7.852,7.938 C8.242,7.551 8.731,7.551 9.123,7.938 C9.600,8.412 10.077,8.887 10.552,9.364 C10.949,9.763 10.946,10.252 10.547,10.657 C10.277,10.929 9.990,11.189 9.735,11.473 C9.363,11.890 8.899,12.025 8.364,11.995 C7.588,11.953 6.873,11.696 6.184,11.361 C4.654,10.617 3.345,9.586 2.249,8.282 C1.437,7.318 0.768,6.267 0.329,5.084 C0.114,4.512 -0.038,3.925 0.009,3.303 C0.039,2.921 0.181,2.594 0.463,2.327 C0.768,2.037 1.055,1.735 1.355,1.440 C1.744,1.056 2.234,1.056 2.626,1.438 C2.868,1.675 3.105,1.917 3.345,2.157 C3.577,2.392 3.810,2.622 4.042,2.856 C4.451,3.268 4.451,3.747 4.044,4.157 C3.752,4.452 3.462,4.746 3.165,5.034 C3.088,5.111 3.080,5.173 3.120,5.268 C3.318,5.738 3.600,6.155 3.917,6.544 Z"/>
</svg>
