<svg
        xmlns="http://www.w3.org/2000/svg"
        xmlns:xlink="http://www.w3.org/1999/xlink"
        width="115px" height="128px">
    <path fill-rule="evenodd"  fill="rgb(235, 235, 235)"
          d="M114.302,120.713 L108.603,87.933 C107.989,84.402 105.439,81.564 101.948,80.530 L86.576,75.973 C86.258,72.282 84.717,68.799 82.153,66.042 C80.102,63.837 77.523,62.232 74.679,61.346 C75.166,60.815 75.617,60.286 76.031,59.769 C79.686,55.202 81.643,50.170 82.142,46.736 L83.327,46.736 C86.412,46.736 88.921,44.271 88.921,41.241 L88.921,38.424 C88.921,36.401 87.763,34.569 86.022,33.618 L86.022,26.843 C86.022,25.820 85.177,24.990 84.135,24.990 C83.093,24.990 82.249,25.820 82.249,26.843 L82.249,34.448 C81.514,34.574 80.637,34.790 79.741,35.162 C79.649,35.194 79.560,35.233 79.475,35.278 C79.272,35.369 79.070,35.464 78.868,35.572 L78.868,20.636 C78.868,16.509 75.451,13.153 71.251,13.153 L66.044,13.153 C64.247,13.153 62.493,13.767 61.103,14.884 L60.592,15.295 C59.653,16.048 58.468,16.464 57.256,16.464 C56.043,16.464 54.859,16.048 53.920,15.295 L53.409,14.884 C52.019,13.768 50.264,13.153 48.468,13.153 L43.261,13.153 C39.061,13.153 35.644,16.509 35.644,20.636 L35.644,35.572 C35.442,35.464 35.239,35.369 35.036,35.278 C34.952,35.233 34.863,35.194 34.771,35.162 C33.874,34.790 32.997,34.574 32.263,34.448 L32.263,15.219 C32.263,9.218 37.233,4.335 43.341,4.335 L71.170,4.335 C77.279,4.335 82.248,9.218 82.248,15.219 L82.248,18.133 C82.248,19.156 83.093,19.986 84.135,19.986 C85.176,19.986 86.021,19.156 86.021,18.133 L86.021,15.219 C86.021,7.174 79.359,0.628 71.170,0.628 L43.341,0.628 C35.152,0.628 28.490,7.174 28.490,15.219 L28.490,33.618 C26.748,34.569 25.591,36.401 25.591,38.424 L25.591,41.241 C25.591,44.271 28.100,46.736 31.184,46.736 L32.370,46.736 C32.868,50.170 34.825,55.202 38.481,59.770 C38.894,60.286 39.345,60.814 39.831,61.344 C33.294,63.384 28.527,69.158 27.936,75.973 L12.564,80.530 C9.072,81.564 6.522,84.402 5.908,87.933 L3.593,101.245 C3.418,102.254 4.108,103.211 5.135,103.383 C6.162,103.556 7.137,102.878 7.313,101.869 L9.627,88.557 C9.998,86.421 11.541,84.705 13.653,84.079 L27.871,79.864 L27.871,83.530 C24.612,84.120 21.839,86.319 20.697,89.366 C20.394,90.175 20.205,91.022 20.137,91.883 L18.763,109.210 C18.659,110.516 19.119,111.816 20.023,112.775 C20.928,113.736 22.211,114.288 23.543,114.288 L25.895,114.288 C26.937,114.288 27.782,113.458 27.782,112.434 C27.782,111.410 26.937,110.581 25.895,110.581 L23.543,110.581 C23.259,110.581 22.986,110.464 22.793,110.258 C22.600,110.054 22.502,109.777 22.524,109.499 L23.898,92.171 C23.940,91.650 24.054,91.137 24.237,90.647 C25.032,88.527 27.178,87.091 29.577,87.075 L29.888,87.073 C29.903,87.073 29.917,87.073 29.931,87.073 C32.264,87.073 34.328,88.372 35.199,90.392 C35.443,90.958 35.592,91.557 35.640,92.171 L37.015,109.499 C37.037,109.777 36.939,110.054 36.746,110.259 C36.554,110.464 36.280,110.581 35.996,110.581 L33.644,110.581 C32.602,110.581 31.757,111.410 31.757,112.434 C31.757,113.458 32.602,114.288 33.644,114.288 L35.996,114.288 C37.328,114.288 38.611,113.737 39.516,112.775 C40.421,111.815 40.880,110.516 40.777,109.211 L39.402,91.883 C39.322,90.869 39.076,89.880 38.673,88.946 C37.430,86.064 34.773,84.061 31.643,83.518 L31.643,78.746 L38.128,76.824 C38.718,78.044 39.888,80.683 42.204,86.370 C44.538,92.108 47.439,99.464 50.222,106.614 C50.242,106.674 50.265,106.733 50.290,106.790 C52.147,111.564 53.949,116.239 55.489,120.273 C55.765,120.996 56.469,121.475 57.255,121.475 C58.042,121.475 58.745,120.996 59.022,120.273 C60.562,116.239 62.363,111.564 64.221,106.790 C64.246,106.733 64.269,106.674 64.289,106.614 C67.070,99.468 69.969,92.117 72.303,86.381 C74.622,80.686 75.792,78.045 76.382,76.824 L82.867,78.746 L82.867,89.693 C78.374,90.551 74.970,94.444 74.970,99.105 C74.970,104.393 79.349,108.696 84.732,108.696 C90.114,108.696 94.493,104.394 94.493,99.105 C94.493,94.459 91.112,90.575 86.640,89.701 L86.640,79.864 L100.858,84.079 C102.970,84.705 104.513,86.421 104.884,88.557 L110.583,121.337 C110.678,121.881 110.531,122.412 110.169,122.833 C109.807,123.255 109.298,123.487 108.737,123.487 L5.774,123.487 C5.213,123.487 4.704,123.255 4.342,122.833 C3.980,122.412 3.833,121.881 3.928,121.337 L5.808,110.519 C5.984,109.510 5.293,108.552 4.266,108.380 C3.240,108.207 2.265,108.886 2.089,109.895 L0.208,120.713 C-0.072,122.327 0.384,123.971 1.458,125.223 C2.534,126.475 4.107,127.193 5.774,127.193 L108.737,127.193 C110.404,127.193 111.977,126.475 113.052,125.223 C114.127,123.971 114.583,122.327 114.302,120.713 ZM82.271,38.224 C83.276,37.978 84.083,37.982 84.092,37.982 C84.417,37.987 84.733,37.912 85.014,37.768 C85.098,37.973 85.148,38.194 85.148,38.424 L85.148,41.241 C85.148,42.227 84.331,43.030 83.327,43.030 L82.271,43.030 L82.271,38.224 L82.271,38.224 ZM32.240,43.030 L32.240,43.030 L31.184,43.030 C30.180,43.030 29.363,42.227 29.363,41.241 L29.363,38.424 C29.363,38.194 29.413,37.973 29.497,37.768 C29.777,37.913 30.093,37.987 30.419,37.982 C30.433,37.985 31.238,37.981 32.240,38.225 L32.240,43.030 L32.240,43.030 ZM36.013,45.107 L36.013,40.238 C36.585,40.407 37.210,40.384 37.787,40.147 C38.777,39.741 39.417,38.799 39.417,37.746 L39.417,20.636 C39.417,18.554 41.141,16.859 43.261,16.859 L48.468,16.859 C49.396,16.859 50.302,17.177 51.021,17.754 L51.531,18.165 C53.142,19.458 55.175,20.170 57.255,20.170 C59.336,20.170 61.369,19.458 62.979,18.165 L63.490,17.754 C64.208,17.177 65.115,16.859 66.043,16.859 L71.250,16.859 C73.370,16.859 75.094,18.554 75.094,20.636 L75.094,37.746 C75.094,38.799 75.734,39.742 76.724,40.148 C77.055,40.283 77.401,40.349 77.744,40.349 C78.000,40.349 78.254,40.312 78.498,40.240 L78.498,45.107 C78.498,47.814 76.594,53.069 73.065,57.478 C71.896,58.939 70.393,60.508 68.543,61.880 C68.484,61.918 68.428,61.960 68.375,62.004 C65.509,64.086 61.823,65.681 57.255,65.681 C52.688,65.681 49.002,64.086 46.136,62.004 C46.082,61.960 46.027,61.918 45.968,61.880 C44.118,60.508 42.615,58.939 41.446,57.478 C37.917,53.069 36.013,47.814 36.013,45.107 ZM69.615,75.052 L57.255,84.128 L44.896,75.052 C46.122,73.521 46.809,71.557 46.809,69.804 L46.809,66.816 C49.715,68.352 53.183,69.388 57.255,69.388 C61.328,69.388 64.796,68.352 67.702,66.816 L67.702,69.804 C67.702,71.557 68.389,73.521 69.615,75.052 ZM41.748,72.983 C40.740,72.606 39.624,72.544 38.567,72.826 C38.521,72.837 38.475,72.849 38.431,72.861 L31.914,74.794 C33.016,69.468 37.417,65.230 43.036,64.409 L43.036,69.804 C43.036,70.967 42.507,72.169 41.748,72.983 ZM46.868,87.862 C46.864,87.853 46.861,87.844 46.858,87.836 C46.762,87.598 46.668,87.364 46.574,87.133 C46.557,87.091 46.540,87.049 46.523,87.007 C46.432,86.780 46.341,86.556 46.251,86.334 C46.245,86.318 46.239,86.303 46.233,86.287 C45.953,85.597 45.684,84.935 45.424,84.300 C45.406,84.254 45.387,84.207 45.368,84.162 C45.293,83.980 45.220,83.800 45.147,83.624 C45.121,83.558 45.094,83.494 45.068,83.430 C44.997,83.259 44.927,83.088 44.859,82.921 C44.838,82.871 44.818,82.823 44.797,82.773 C44.672,82.470 44.550,82.175 44.431,81.886 C44.399,81.809 44.366,81.729 44.334,81.652 C44.287,81.540 44.241,81.431 44.196,81.321 C44.146,81.202 44.097,81.085 44.049,80.969 C44.030,80.926 44.012,80.880 43.994,80.837 C43.979,80.802 43.966,80.770 43.951,80.736 C43.733,80.216 43.526,79.726 43.330,79.265 C43.328,79.261 43.326,79.258 43.325,79.253 C43.220,79.008 43.118,78.768 43.020,78.540 C42.968,78.421 42.918,78.305 42.869,78.191 L53.498,85.996 L49.057,87.850 C49.049,87.853 49.041,87.856 49.033,87.859 L47.179,88.633 C47.073,88.372 46.971,88.116 46.868,87.862 ZM51.369,99.210 C50.997,98.260 50.621,97.304 50.245,96.350 C49.657,94.857 49.095,93.438 48.557,92.086 L49.261,91.792 L52.138,95.077 L51.369,99.210 ZM57.292,114.273 C57.238,114.164 57.173,114.059 57.099,113.962 C56.246,111.749 55.165,108.948 53.967,105.866 L55.728,96.392 L58.782,96.392 L60.544,105.866 C59.289,109.094 58.162,112.014 57.292,114.273 ZM59.490,92.686 L55.021,92.686 L52.906,90.270 L57.255,88.456 L61.605,90.270 L59.490,92.686 ZM64.266,96.350 C63.890,97.304 63.514,98.260 63.142,99.210 L62.373,95.077 L65.250,91.792 L65.954,92.085 C65.416,93.438 64.854,94.857 64.266,96.350 ZM71.492,78.540 C71.398,78.756 71.301,78.984 71.202,79.215 C71.189,79.246 71.176,79.276 71.164,79.307 C71.066,79.536 70.966,79.771 70.863,80.016 C70.856,80.032 70.849,80.049 70.842,80.065 C70.753,80.276 70.662,80.493 70.569,80.715 C70.552,80.757 70.535,80.795 70.518,80.837 C70.497,80.886 70.475,80.939 70.454,80.989 C70.413,81.089 70.371,81.189 70.329,81.290 C70.277,81.414 70.225,81.538 70.172,81.666 C70.155,81.706 70.138,81.748 70.121,81.789 C69.990,82.105 69.855,82.431 69.717,82.766 C69.695,82.818 69.674,82.869 69.652,82.923 C69.584,83.088 69.514,83.257 69.445,83.427 C69.418,83.493 69.390,83.559 69.363,83.627 C69.291,83.802 69.218,83.980 69.145,84.160 C69.124,84.210 69.103,84.261 69.082,84.312 C68.827,84.937 68.561,85.590 68.286,86.271 C68.277,86.293 68.268,86.315 68.258,86.338 C68.169,86.557 68.079,86.781 67.988,87.006 C67.971,87.048 67.954,87.091 67.937,87.133 C67.843,87.365 67.748,87.601 67.652,87.840 C67.650,87.844 67.649,87.849 67.647,87.853 C67.543,88.110 67.439,88.369 67.333,88.634 L65.477,87.859 C65.470,87.857 65.464,87.854 65.457,87.851 L61.013,85.997 L71.643,78.192 C71.593,78.305 71.542,78.421 71.492,78.540 ZM76.080,72.862 C76.079,72.862 76.079,72.861 76.079,72.861 C76.077,72.861 76.075,72.860 76.074,72.860 C74.979,72.538 73.812,72.591 72.763,72.983 C72.004,72.169 71.476,70.967 71.476,69.804 L71.476,64.407 C77.129,65.225 81.517,69.424 82.605,74.796 L76.080,72.862 ZM90.720,99.105 C90.720,102.350 88.034,104.989 84.732,104.989 C81.430,104.989 78.743,102.350 78.743,99.105 C78.743,95.861 81.430,93.222 84.732,93.222 C88.034,93.222 90.720,95.861 90.720,99.105 Z"/>
</svg>
